<svg width="42" height="44" viewBox="0 0 42 44" fill="none" xmlns="http://www.w3.org/2000/svg">
<path fill-rule="evenodd" clip-rule="evenodd" d="M4.39699 4.03414C4.29625 2.81466 4.46056 1.74152 5.35645 0.919593C5.90071 0.40698 6.61385 0.119888 7.3557 0.114738C7.97434 0.100909 8.58113 0.288485 9.08752 0.650089C9.62121 1.02203 10.047 1.50372 10.2125 2.14151C10.3175 2.55095 10.3666 2.97546 10.4181 3.41983L10.4181 3.41988L10.4181 3.41992L10.4181 3.41996C10.4413 3.6201 10.4649 3.82428 10.4943 4.03292H13.7445C13.7445 3.90221 13.7436 3.7774 13.7428 3.65641V3.65634C13.7412 3.42519 13.7397 3.20799 13.7445 2.99027C13.7617 2.19006 14.0869 1.42866 14.6502 0.869572C15.2135 0.310487 15.97 -0.00168188 16.7571 0.000107042C17.5438 0.00284217 18.2982 0.318759 18.8587 0.880178C19.4191 1.4416 19.741 2.20387 19.7554 3.00368C19.7602 3.21234 19.7587 3.42153 19.7571 3.64167V3.64171V3.64174V3.64177V3.64181V3.64184C19.7563 3.75616 19.7554 3.87343 19.7554 3.99512H23.0811V3.05856C23.0821 2.65441 23.1616 2.25443 23.3151 1.88165C23.4686 1.50886 23.6931 1.17061 23.9756 0.886367C24.2582 0.602123 24.5932 0.37749 24.9615 0.225391C25.3297 0.0732924 25.7239 -0.00327004 26.1214 0.000107042C27.7728 0.0123018 29.0729 1.35373 29.0981 3.07441V4.05975C29.247 4.05975 29.3918 4.05537 29.5336 4.05109L29.5336 4.05109C29.8085 4.04278 30.0719 4.03481 30.3322 4.05975C32.1995 4.27316 33.4696 5.71824 33.478 7.64624C33.486 9.64456 33.4833 11.6429 33.4806 13.6412C33.4793 14.6404 33.478 15.6395 33.478 16.6387C33.478 17.1734 33.4791 17.7081 33.4803 18.2428C33.4836 19.7324 33.4868 21.2217 33.4648 22.7105C33.4576 23.1739 33.5715 23.3507 34.0309 23.4531C38.7262 24.5006 42.0938 28.8713 41.9943 33.7541C41.9539 36.2967 40.9991 38.7362 39.3102 40.6116C37.6213 42.4871 35.3153 43.6687 32.8279 43.933C27.4718 44.5245 22.551 40.7465 21.6743 35.3443C21.6108 34.9552 21.4968 34.8565 21.1214 34.8565C15.3008 34.8703 9.48049 34.8731 3.66062 34.865C1.9408 34.865 0.608361 33.9138 0.163415 32.3504C0.0590356 31.9702 0.00736654 31.577 0.00990282 31.1822C0.00190739 23.3604 0.00190739 15.5391 0.00990282 7.71819C0.00990282 5.54873 1.47786 4.05121 3.61384 4.0256C3.84411 4.0317 4.08277 4.03414 4.39699 4.03414ZM1.4047 13.1802V13.6351V31.1212C1.4047 32.6102 2.22383 33.4382 3.6834 33.4382H21.0123H21.4201C22.2308 26.992 25.764 23.5848 32.058 23.0946V13.1754L1.4047 13.1802ZM31.7689 42.6075C36.5938 42.6343 40.5935 38.5832 40.6139 33.6394C40.6355 28.6786 36.7101 24.6031 31.8745 24.5653C30.7049 24.5511 29.5441 24.7722 28.4588 25.2157C27.3735 25.6593 26.3852 26.3167 25.5506 27.15C24.716 27.9833 24.0517 28.9761 23.5958 30.0714C23.1399 31.1667 22.9014 32.3428 22.894 33.5321C22.8874 34.7215 23.112 35.9004 23.5551 37.0012C23.9981 38.102 24.6508 39.1029 25.4756 39.9463C26.3003 40.7897 27.2809 41.459 28.361 41.9157C29.441 42.3724 30.5992 42.6075 31.7689 42.6075ZM32.1204 11.5676L32.1204 11.5672C32.1268 11.4631 32.1328 11.3659 32.1335 11.2681V7.84379C32.1335 6.08043 30.8839 5.09875 29.1113 5.52678C29.1113 5.65124 29.114 5.77768 29.1168 5.90529V5.90534V5.90538V5.90542V5.90546V5.90551C29.1224 6.1642 29.1281 6.42767 29.1113 6.68895C29.0483 7.43921 28.7146 8.13925 28.1742 8.65419C27.6339 9.16914 26.9253 9.46255 26.1849 9.47789C25.4445 9.49145 24.7252 9.22585 24.1659 8.73229C23.6065 8.23873 23.2466 7.55213 23.1555 6.8048C23.1212 6.50985 23.1113 6.21206 23.101 5.89795V5.89791L23.101 5.89765L23.101 5.89742C23.0961 5.75067 23.0912 5.60034 23.0835 5.44508H19.8034C19.7941 5.62532 19.7908 5.80026 19.7876 5.97082C19.7808 6.32992 19.7744 6.66963 19.7134 6.99869C19.5767 7.73141 19.1805 8.38774 18.5999 8.84348C18.0193 9.29922 17.2946 9.52276 16.5628 9.4718C15.8178 9.4173 15.1187 9.08493 14.5999 8.53846C14.0811 7.992 13.779 7.26996 13.7516 6.5109C13.7429 6.28406 13.7457 6.05721 13.7487 5.824V5.82398V5.82396V5.82394V5.82392V5.8239V5.82383V5.82378V5.82371V5.82366V5.82359C13.7501 5.70465 13.7516 5.58404 13.7516 5.46093H10.4188V6.2792C10.4032 8.00964 9.08512 9.36936 7.41447 9.3779C7.01695 9.37806 6.62332 9.29833 6.25621 9.14328C5.8891 8.98823 5.55575 8.76092 5.27533 8.47443C4.99491 8.18794 4.77295 7.84791 4.62222 7.47389C4.47148 7.09988 4.39494 6.69925 4.39699 6.29505V5.46093H3.75536C2.20225 5.46093 1.4095 6.26579 1.4059 7.84501V11.2693C1.4059 11.3756 1.4144 11.4814 1.42292 11.5874C1.42719 11.6406 1.43148 11.6939 1.43469 11.7473L32.1108 11.7364C32.1136 11.6781 32.117 11.6226 32.1203 11.5689L32.1203 11.5682L32.1204 11.5676ZM18.3834 4.74266C18.3834 4.56543 18.3845 4.3882 18.3855 4.21097C18.3877 3.8565 18.3898 3.50204 18.3834 3.14758C18.3606 2.13176 17.6734 1.40007 16.7523 1.39519C15.8313 1.39031 15.1237 2.12688 15.1105 3.13417C15.0961 4.19918 15.0961 5.26297 15.1105 6.32554C15.1237 7.34137 15.8157 8.07184 16.7403 8.07549C17.665 8.07915 18.3594 7.35356 18.3846 6.33896C18.3909 5.99487 18.3884 5.64869 18.386 5.30146V5.30125C18.3847 5.11693 18.3834 4.93231 18.3834 4.74754V4.74266ZM27.7381 4.73046C27.7381 4.5479 27.7391 4.36507 27.7402 4.18229C27.7423 3.81685 27.7444 3.45159 27.7381 3.08905C27.7177 2.12444 27.0029 1.39153 26.0986 1.39519C25.1943 1.39885 24.5035 2.09761 24.4843 3.05612C24.4627 4.18048 24.4627 5.30484 24.4843 6.4292C24.5047 7.39137 25.2039 8.07793 26.1106 8.07428C27.0173 8.07062 27.7189 7.34259 27.7369 6.367C27.7453 5.98641 27.7436 5.60154 27.7419 5.21499V5.21478V5.21437V5.21395V5.21353V5.21311V5.21269C27.7412 5.0538 27.7405 4.89462 27.7405 4.73534L27.7381 4.73046ZM5.74862 4.73046C5.74862 4.90769 5.74769 5.08506 5.74675 5.26243C5.74489 5.61716 5.74302 5.97189 5.74862 6.32554C5.74823 6.76373 5.91704 7.18456 6.21872 7.49747C6.5204 7.81038 6.93083 7.99036 7.3617 7.99867C7.78608 8.00948 8.19734 7.84861 8.50517 7.55138C8.81301 7.25414 8.99226 6.84484 9.00356 6.41334C9.03594 5.30484 9.03475 4.19511 9.00356 3.08661C8.99477 2.65712 8.82062 2.24829 8.51854 1.94797C8.21646 1.64765 7.81056 1.47982 7.38808 1.48055C6.95707 1.48436 6.54474 1.65999 6.23973 1.96967C5.93472 2.27935 5.7614 2.69835 5.75702 3.13661C5.74495 3.51875 5.74713 3.9009 5.74931 4.28304C5.75017 4.43259 5.75102 4.58214 5.75102 4.73168L5.74862 4.73046ZM16.7426 15.3326H19.2551C19.8344 15.3326 20.0851 15.5765 20.0887 16.1594C20.0975 17.8667 20.0975 19.5703 20.0887 21.2703C20.0887 21.8556 19.8344 22.1032 19.2623 22.1056C17.5833 22.1105 15.9079 22.1105 14.236 22.1056C13.6867 22.1056 13.4373 21.8617 13.4337 21.3007C13.4249 19.5813 13.4249 17.8622 13.4337 16.1436C13.4337 15.5607 13.6843 15.3363 14.2732 15.3338C14.8599 15.3312 15.4472 15.3317 16.0355 15.3322C16.271 15.3324 16.5067 15.3326 16.7426 15.3326ZM14.8357 16.7435V20.6861H18.6735V16.7435H14.8357ZM14.2744 31.0578H16.7426C17.0226 31.0578 17.3025 31.0582 17.5824 31.0586C18.1416 31.0594 18.7004 31.0602 19.2575 31.0578C19.8368 31.0541 20.0899 30.8176 20.0899 30.231C20.0987 28.531 20.0987 26.8274 20.0899 25.1201C20.0863 24.5348 19.8332 24.2848 19.2623 24.2848C17.5905 24.2799 15.9151 24.2799 14.236 24.2848C13.6891 24.2872 13.4349 24.5311 13.4349 25.0921C13.4253 26.8107 13.4253 28.5298 13.4349 30.2493C13.4349 30.8322 13.6819 31.0578 14.2744 31.0578ZM14.8357 29.6395V25.6994H18.6735V29.6395H14.8357ZM7.38792 22.108H4.87656C4.30329 22.108 4.05383 21.8544 4.05263 21.2739C4.04623 19.5715 4.04623 17.8683 4.05263 16.1643C4.05263 15.5838 4.30329 15.3375 4.87776 15.3351H9.90169C10.4798 15.3351 10.7172 15.5716 10.7196 16.1655C10.7268 17.8728 10.7268 19.576 10.7196 21.2751C10.7196 21.8666 10.4798 22.1032 9.90049 22.108C9.33783 22.1113 8.77784 22.1102 8.22016 22.1091C7.94219 22.1086 7.66479 22.108 7.38792 22.108ZM5.44983 20.6837H9.30683V16.7545H5.43904L5.44983 20.6837ZM23.5895 22.108H26.108C26.3851 22.108 26.6609 22.1084 26.9358 22.1089C27.4831 22.1097 28.027 22.1105 28.5714 22.108C29.1975 22.1044 29.4445 21.8617 29.4445 21.2264C29.4493 19.5386 29.4493 17.85 29.4445 16.1606C29.4433 15.5789 29.1963 15.3351 28.617 15.3351H23.5907C23.0102 15.3363 22.7703 15.5704 22.7703 16.1643C22.7623 17.8643 22.7623 19.5679 22.7703 21.2751C22.7727 21.8641 23.0126 22.108 23.5895 22.108ZM28.0437 16.7545V20.6934H24.1783V16.7545H28.0437ZM7.31836 31.0578H4.85017C4.30209 31.0578 4.04903 30.8139 4.04663 30.2542C4.04024 28.5355 4.04024 26.8169 4.04663 25.0982C4.04663 24.5446 4.30209 24.2885 4.84657 24.2872C6.53601 24.2807 8.22545 24.2807 9.91488 24.2872C10.4642 24.2872 10.7112 24.5311 10.7136 25.0958C10.7224 26.8136 10.7224 28.5318 10.7136 30.2505C10.7136 30.8334 10.4678 31.0578 9.8741 31.0602C9.44835 31.0602 9.02229 31.0596 8.59623 31.059C8.17018 31.0584 7.74412 31.0578 7.31836 31.0578ZM5.45463 29.642H9.31282V25.6957H5.45463V29.642ZM31.74 40.5429C32.1969 40.5563 32.372 40.288 32.48 39.3929C32.5004 39.3855 32.521 39.3781 32.5417 39.3706C32.654 39.3302 32.7708 39.2881 32.8842 39.2356C33.3253 39.0636 33.7227 38.7927 34.0469 38.4431C34.371 38.0935 34.6135 37.6741 34.7563 37.2162C34.8992 36.7582 34.9388 36.2734 34.8721 35.7978C34.8055 35.3221 34.6343 34.8678 34.3713 34.4687C33.7501 33.5321 32.8626 33.076 31.7532 33.0443C31.036 33.0236 30.4879 32.6919 30.1713 32.0309C30.0185 31.7399 29.9519 31.41 29.9795 31.0813C30.0072 30.7525 30.128 30.439 30.3272 30.1785C30.5414 29.8811 30.8406 29.6581 31.184 29.5398C31.5273 29.4215 31.8982 29.4138 32.2461 29.5176C32.9513 29.7249 33.4226 30.3249 33.5066 31.1212C33.5642 31.6736 33.8484 31.9822 34.267 31.9419C34.7095 31.9004 34.9482 31.52 34.8822 30.959C34.7467 29.7859 34.1854 28.8749 33.1216 28.3981C32.5999 28.164 32.3433 27.9371 32.4128 27.3274C32.4644 26.9116 32.131 26.6408 31.7448 26.6433C31.3586 26.6457 31.096 26.9152 31.066 27.3396C31.0588 27.3999 31.0588 27.461 31.066 27.5213C31.138 27.9384 30.9952 28.1445 30.5719 28.3042C29.9503 28.5434 29.4228 28.9827 29.0696 29.5551C28.7164 30.1276 28.5571 30.8017 28.6158 31.4748C28.6526 32.1487 28.9022 32.7925 29.3273 33.3107C29.7525 33.8289 30.3307 34.194 30.976 34.3516C31.1886 34.4062 31.4109 34.4306 31.6334 34.4551C31.7687 34.4699 31.9041 34.4848 32.0374 34.5065C32.3787 34.5619 32.6962 34.7189 32.9498 34.9576C33.2034 35.1964 33.3817 35.5062 33.4622 35.8479C33.5422 36.1906 33.5213 36.5496 33.4021 36.8803C33.2829 37.211 33.0707 37.4987 32.7918 37.7076C32.2377 38.11 31.6477 38.1978 31.012 37.8954C30.3764 37.593 30.0382 37.0723 29.983 36.3576C29.941 35.8345 29.6448 35.5479 29.237 35.5796C28.8293 35.6113 28.6002 35.9125 28.6278 36.4247C28.689 37.5588 29.2167 38.4161 30.1641 39.0003C30.4494 39.1561 30.7433 39.2949 31.0444 39.4161C31.1104 40.2478 31.2831 40.5295 31.74 40.5429Z" fill="url(#paint0_linear_83_13)"/>
<defs>
<linearGradient id="paint0_linear_83_13" x1="8.5" y1="6.5" x2="42" y2="46.5" gradientUnits="userSpaceOnUse">
<stop stop-color="#6B33DD"/>
<stop offset="1" stop-color="#6CA5FA"/>
</linearGradient>
</defs>
</svg>
