<svg width="42" height="42" viewBox="0 0 42 42" fill="none" xmlns="http://www.w3.org/2000/svg">
<path fill-rule="evenodd" clip-rule="evenodd" d="M20.2154 0.0551458C19.7949 0.161411 19.2656 0.435888 18.8101 0.78375C18.3221 1.15653 17.9835 1.21144 17.306 1.02789C16.5297 0.817646 15.5319 0.878321 14.8848 1.17508C14.272 1.45609 13.646 2.03902 13.3393 2.6145C12.8782 3.47919 12.6256 3.64808 11.6016 3.77664C10.6945 3.89044 10.1042 4.16678 9.52073 4.75073C8.97312 5.29867 8.68184 5.88415 8.55346 6.69478C8.42272 7.51956 8.29926 7.7071 7.6287 8.09902C6.94223 8.50027 6.41198 9.06431 6.1112 9.7136C5.82872 10.3231 5.762 11.3412 5.95989 12.0224C6.23009 12.9526 6.15261 13.3429 5.56114 14.0314C5.42286 14.1923 5.19152 14.5737 5.04706 14.8788C4.81022 15.379 4.7844 15.5129 4.78516 16.2387C4.78592 16.9324 4.81734 17.1106 5.01218 17.5283C5.13648 17.7948 5.37333 18.19 5.53845 18.4064C5.92932 18.9188 5.98614 19.2499 5.80069 19.9355C5.69468 20.3276 5.66335 20.6809 5.69044 21.1786C5.7332 21.9655 5.90044 22.4142 6.38852 23.0507L6.70606 23.4647L3.35301 26.8241C0.377116 29.8057 4.89108e-05 30.2131 4.89108e-05 30.447C4.89108e-05 31.0212 -0.0655762 30.998 4.61081 32.0777L8.92062 33.0726L9.91482 37.3857C10.9939 42.0663 10.9704 42 11.5449 42C11.7807 42 12.2995 41.5093 16.4045 37.4038L21 32.8077L25.5955 37.4038C29.7005 41.5093 30.2193 42 30.4551 42C31.0296 42 31.0061 42.0662 32.0849 37.3867L33.079 33.0748L37.3891 32.0785C42.0652 30.9977 42 31.0207 42 30.4471C42 30.2132 41.6265 29.8094 38.6865 26.8638L35.3732 23.5439L35.5991 23.2474C36.1213 22.5623 36.3218 21.2155 36.0258 20.3805C35.8658 19.929 35.85 19.2943 35.992 19.0234C36.0498 18.9133 36.2291 18.6755 36.3906 18.4947C36.5521 18.3141 36.8038 17.9137 36.95 17.6049C37.1901 17.0977 37.2156 16.9662 37.2148 16.2387C37.2141 15.5449 37.1827 15.3667 36.9878 14.949C36.8635 14.6825 36.6267 14.2873 36.4616 14.0709C36.0673 13.5541 36.0107 13.2157 36.198 12.4931C36.6116 10.8975 35.9659 9.29438 34.6202 8.57552C33.7475 8.10936 33.5813 7.86048 33.4515 6.82392C33.3406 5.93906 33.053 5.32604 32.4787 4.75107C31.9588 4.23034 31.2785 3.89443 30.5295 3.78824C29.7795 3.68198 29.4779 3.4908 29.1763 2.93083C28.8415 2.30943 28.1794 1.66421 27.5716 1.36702C26.9332 1.05492 25.9306 0.978485 25.2131 1.1872C24.6626 1.34736 24.0301 1.3649 23.7676 1.22728C23.6659 1.1739 23.435 0.99806 23.2544 0.836459C22.7076 0.346994 21.9497 0.042011 21.1904 0.00582651C20.8295 -0.0113759 20.3908 0.0108262 20.2154 0.0551458ZM21.8994 1.57405C22.0801 1.67277 22.4183 1.9047 22.6512 2.08936C23.4053 2.68754 24.4038 2.86118 25.3609 2.56069C26.4752 2.2107 27.458 2.58797 27.957 3.55707C28.1932 4.01594 28.7643 4.61244 29.1617 4.81531C29.3469 4.90988 29.7977 5.03945 30.1635 5.10343C30.9257 5.23655 31.0948 5.30994 31.486 5.67738C31.8902 6.05693 32.0091 6.33243 32.1373 7.18636C32.3219 8.41528 32.7535 9.08177 33.7148 9.6214C34.3079 9.95435 34.6116 10.2494 34.8126 10.6881C35.0025 11.1022 35.0155 11.8087 34.8438 12.3752C34.5849 13.2292 34.737 13.9723 35.3485 14.8404C36.1275 15.9465 36.1071 16.6032 35.259 17.7235C35.0112 18.0508 34.75 18.4846 34.6784 18.6875C34.5127 19.1576 34.5112 20.0947 34.6754 20.5605C34.8396 21.0262 34.8376 21.7525 34.6711 22.1521C34.5048 22.5509 34.092 22.9843 33.672 23.2009C33.2135 23.4373 32.6175 24.0088 32.4147 24.4065C32.3202 24.5918 32.1908 25.043 32.1268 25.4091C31.9938 26.1718 31.9205 26.3411 31.5533 26.7326C31.1741 27.137 30.8988 27.2561 30.0455 27.3844C28.8175 27.5691 28.1515 28.0011 27.6123 28.963C27.2796 29.5566 26.9847 29.8605 26.5464 30.0617C26.1325 30.2517 25.4266 30.2648 24.8605 30.0929C24.0041 29.8329 23.2895 29.9815 22.3717 30.6104C21.7424 31.0417 21.2743 31.1905 20.7665 31.1209C20.3194 31.0595 20.02 30.9077 19.4043 30.4298C19.1409 30.2254 18.7587 29.9994 18.5549 29.9277C18.0831 29.7616 17.1472 29.7599 16.6815 29.9243C16.2161 30.0887 15.4903 30.0867 15.0911 29.92C14.6925 29.7537 14.2594 29.3406 14.043 28.9202C13.8068 28.4614 13.2357 27.8649 12.8383 27.662C12.6531 27.5674 12.2033 27.438 11.8387 27.3743C11.0401 27.2347 10.7922 27.1151 10.3981 26.6783C10.0606 26.3047 9.947 26.0044 9.86308 25.2651C9.73725 24.157 9.16441 23.2903 8.24854 22.822C7.18567 22.2786 6.79294 21.3005 7.15621 20.1021C7.41566 19.246 7.26815 18.5057 6.66973 17.6601C5.87081 16.5314 5.88672 15.8822 6.74103 14.7538C6.9888 14.4266 7.25181 13.988 7.32548 13.7793C7.49695 13.2938 7.49881 12.4037 7.32945 11.9274C7.16086 11.4533 7.16061 10.729 7.32895 10.3253C7.49517 9.92638 7.90797 9.49302 8.32797 9.27642C8.7865 9.03999 9.38254 8.46849 9.58526 8.0708C9.67976 7.88548 9.80906 7.43533 9.87274 7.07044C10.0069 6.30175 10.1242 6.04566 10.514 5.67153C10.8687 5.33096 11.2497 5.17376 11.8972 5.1008C13.0795 4.9675 13.7959 4.52329 14.3423 3.5847C14.5228 3.27463 14.7705 2.91973 14.8927 2.79601C15.4099 2.27265 16.2461 2.12503 17.1704 2.39392C18.0382 2.64636 18.8404 2.46001 19.7602 1.79242C19.9865 1.62819 20.2913 1.45685 20.4376 1.41177C20.8279 1.29135 21.5237 1.36855 21.8994 1.57405ZM19.4335 4.12551C14.2143 4.83073 10.0543 8.77365 9.002 14.0125C8.7793 15.1213 8.80038 17.519 9.04248 18.6269C9.44698 20.4772 10.179 22.0992 11.2603 23.5403C13.1124 26.0089 15.7513 27.6468 18.8407 28.2452C19.8953 28.4494 22.1997 28.4491 23.2245 28.2445C25.7086 27.7487 27.824 26.6202 29.5988 24.8439C31.3519 23.0896 32.4027 21.1458 32.9596 18.6269C33.221 17.4447 33.221 15.0326 32.9596 13.8504C32.4025 11.3312 31.3503 9.38302 29.6003 7.63185C27.8434 5.87355 25.9174 4.83064 23.4133 4.28152C22.5224 4.08619 20.3536 4.0012 19.4335 4.12551ZM23.2863 5.63704C26.5008 6.37047 29.2277 8.49154 30.6887 11.3949C32.6444 15.2814 32.0296 20.0777 29.1559 23.3535C24.9643 28.1317 17.6762 28.3368 13.2799 23.8004C11.7517 22.2233 10.8245 20.4922 10.3646 18.3572C10.1477 17.35 10.1477 15.1273 10.3646 14.1201C10.8336 11.9431 11.7963 10.1741 13.3681 8.60103C15.1565 6.8113 17.2913 5.76602 19.8145 5.44459C20.4824 5.35951 22.5794 5.47578 23.2863 5.63704ZM20.5849 7.57388C20.4577 7.67879 20.1245 8.56544 19.4464 10.6034L18.4877 13.4846L15.8411 13.5269L13.1945 13.5693L13.0327 13.7694C12.9438 13.8794 12.871 14.0865 12.871 14.2296C12.871 14.529 12.8046 14.4652 15.2246 16.4924C16.4182 17.4923 16.8468 17.8992 16.8158 18.0031C16.6408 18.5868 15.5807 22.9653 15.5807 23.1043C15.5807 23.3592 15.9528 23.6959 16.2347 23.6959C16.4084 23.6959 17.0884 23.2576 18.7413 22.0805L21.0097 20.4651L23.2276 22.0549C25.6419 23.7854 25.8254 23.8743 26.2028 23.4966C26.3219 23.3774 26.4193 23.2009 26.4193 23.1045C26.4193 23.0079 26.1329 21.784 25.7827 20.3847L25.1461 17.8404L25.3805 17.646C27.676 15.7419 28.7832 14.8118 28.9385 14.6568C29.1735 14.4225 29.1858 14.0397 28.9673 13.7694L28.8055 13.5693L26.1589 13.5269L23.5123 13.4846L22.5536 10.6034C21.5485 7.58295 21.4717 7.42559 21 7.42559C20.8706 7.42559 20.6838 7.49228 20.5849 7.57388ZM21.7463 12.5031C22.1321 13.6645 22.5088 14.6654 22.5834 14.7276C22.684 14.8112 23.2141 14.8514 24.63 14.8828L26.5409 14.9252L25.1643 16.0692C24.3503 16.7457 23.7678 17.2922 23.7389 17.4066C23.7114 17.5155 23.8934 18.4141 24.1553 19.4615C24.4112 20.4855 24.6039 21.3231 24.5835 21.3231C24.563 21.3231 23.7998 20.7893 22.8873 20.1367C21.7745 19.3409 21.1558 18.9504 21.0081 18.9504C20.8602 18.9504 20.2457 19.3392 19.1368 20.1342C18.2289 20.7854 17.4619 21.3192 17.4326 21.3206C17.4033 21.322 17.5888 20.4855 17.8447 19.4615C18.1181 18.3681 18.2892 17.517 18.2596 17.3988C18.2284 17.2744 17.6879 16.7647 16.8412 16.0615L15.4733 14.9252L17.3771 14.8828C18.787 14.8514 19.3161 14.8111 19.4166 14.7276C19.4912 14.6654 19.8679 13.6645 20.2537 12.5031C20.6394 11.3417 20.9754 10.3915 21 10.3915C21.0246 10.3915 21.3606 11.3417 21.7463 12.5031ZM8.34524 24.7215C8.40807 24.8429 8.49953 25.2623 8.54847 25.6534C8.6594 26.5383 8.94704 27.1513 9.52133 27.7262C10.0412 28.247 10.7215 28.5829 11.4705 28.6891C12.2205 28.7953 12.5221 28.9865 12.8237 29.5465C13.1585 30.1679 13.8206 30.8131 14.4284 31.1103C15.0766 31.4272 16.0685 31.4992 16.8112 31.2831C17.3922 31.114 17.9438 31.0976 18.2122 31.2413C18.3173 31.2977 18.6038 31.5071 18.8488 31.7068C19.0938 31.9065 19.3783 32.0967 19.4811 32.1293C19.6464 32.1818 19.3379 32.519 16.802 35.0577L13.9361 37.9267L13.0288 34.0119C12.333 31.0098 12.0843 30.0671 11.9616 29.9684C11.8737 29.8976 10.0604 29.4399 7.93227 28.9513L4.06286 28.0631L5.98656 26.1366C7.83786 24.2825 7.91635 24.2155 8.07072 24.3552C8.15887 24.4352 8.28241 24.6 8.34524 24.7215ZM36.1376 26.2608L37.9371 28.0631L34.0623 28.9513C31.1015 29.6301 30.1475 29.8796 30.0181 30.0091C29.8887 30.1386 29.6394 31.0933 28.9612 34.0565L28.0735 37.9344L25.2154 35.0751L22.3573 32.2157L22.589 32.095C22.7163 32.0285 22.9868 31.8476 23.1899 31.6928C23.6783 31.3207 24.0169 31.266 24.694 31.4494C25.4624 31.6576 26.4697 31.5988 27.0968 31.3093C27.713 31.0247 28.3589 30.4288 28.6574 29.8691C29.1232 28.9958 29.3719 28.8295 30.4076 28.6996C31.2919 28.5886 31.9046 28.3006 32.4787 27.726C33.0043 27.2001 33.3281 26.5508 33.448 25.7825C33.4979 25.4621 33.5943 25.0927 33.6621 24.9615C33.7876 24.7186 34.0918 24.4585 34.2504 24.4585C34.2986 24.4585 35.1479 25.2696 36.1376 26.2608ZM7.02165 30.1262L10.9525 31.0393L11.8775 35.0488L12.8025 39.0583L12.3483 39.513L11.8941 39.9675L11.0065 36.0899C10.3283 33.127 10.079 32.1724 9.94962 32.0429C9.82024 31.9134 8.8666 31.6639 5.90705 30.9855L2.03383 30.0976L2.47474 29.6508C2.71726 29.4051 2.95503 29.2061 3.00321 29.2086C3.05139 29.2111 4.85967 29.624 7.02165 30.1262ZM39.5253 29.6508L39.9662 30.0976L36.093 30.9855C33.1334 31.6639 32.1798 31.9134 32.0504 32.0429C31.921 32.1724 31.6717 33.127 30.9935 36.0899L30.1059 39.9675L29.6517 39.513L29.1975 39.0583L30.1226 35.0486L31.0476 31.0388L34.9361 30.1309C37.0748 29.6317 38.883 29.2189 38.9544 29.2136C39.0259 29.2084 39.2827 29.4051 39.5253 29.6508Z" fill="url(#paint0_linear_83_12)"/>
<defs>
<linearGradient id="paint0_linear_83_12" x1="4.09091" y1="1.90909" x2="42" y2="42" gradientUnits="userSpaceOnUse">
<stop stop-color="#6C1ED7"/>
<stop offset="1" stop-color="#60B5FF"/>
</linearGradient>
</defs>
</svg>
