<svg width="37" height="37" viewBox="0 0 37 37" fill="none" xmlns="http://www.w3.org/2000/svg">
<path fill-rule="evenodd" clip-rule="evenodd" d="M10.5541 3.22856C6.04546 5.10731 2.73533 6.52858 2.62342 6.63369C2.3907 6.85231 2.36276 7.30315 2.56638 7.5538C2.65105 7.65806 3.92551 8.23091 5.98178 9.08906L9.26211 10.458L9.28218 14.0247L9.30225 17.5913L6.04044 17.5918C4.03396 17.592 2.66811 17.6229 2.49143 17.6719C1.94674 17.8232 1.9682 17.6438 1.9682 22.0386V25.9886L1.19798 26.0151C0.475918 26.0399 0.414325 26.055 0.213878 26.2556L0 26.4695V31.5208V36.5721L0.214032 36.786L0.428064 37H16.3841H32.3402L32.9542 36.8223C34.4314 36.3946 35.6129 35.4634 36.3511 34.1446C37.1132 32.7831 37.2132 30.9096 36.6023 29.4372C36.0697 28.1534 34.7801 26.8609 33.633 26.4612C33.3383 26.3586 33.326 26.3089 33.546 26.1115C33.7978 25.8853 34.3454 25.1516 34.5235 24.8014C34.6114 24.6286 34.7636 24.2466 34.8618 23.9525C35.0949 23.2542 35.1119 21.9613 34.8973 21.257C34.4733 19.8648 33.5636 18.7656 32.3402 18.1668C31.4737 17.7426 31.0433 17.664 29.3107 17.6137L27.7477 17.5682L27.7495 14.0106L27.7513 10.4529L30.3159 9.39358C31.7264 8.81101 32.939 8.31325 33.0105 8.28755C33.1298 8.24472 33.1426 8.39768 33.1649 10.1318C33.1889 12.0005 33.1914 12.0251 33.3726 12.2178C33.4734 12.325 33.6533 12.4341 33.7722 12.4603C34.0243 12.5156 34.4188 12.3384 34.5376 12.1164C34.5876 12.0231 34.6171 11.0201 34.6171 9.42051C34.6171 6.88866 34.6161 6.87184 34.4435 6.67544C34.3163 6.53082 32.1841 5.60954 26.4859 3.23697C22.2047 1.45454 18.6098 -0.0020814 18.4973 2.23265e-06C18.3847 0.00216304 14.8103 1.455 10.5541 3.22856ZM25.151 4.24615L30.2341 6.36281L24.2076 6.4014C18.2515 6.43952 18.1793 6.44184 18.0221 6.59896C17.9348 6.68639 17.8432 6.88125 17.8187 7.03205C17.7813 7.26256 17.8114 7.34791 18.0078 7.5677L18.2413 7.82908L24.1843 7.86766L30.1273 7.90625L24.3215 10.324L18.5158 12.7417L11.7814 9.9381C7.43269 8.12773 5.08266 7.112 5.14773 7.07094C5.20322 7.03591 8.23394 5.76404 11.8827 4.24445L18.5169 1.48155L19.2924 1.80551C19.719 1.98378 22.3553 3.08201 25.151 4.24615ZM14.56 12.6653C16.7364 13.5727 18.3892 14.2197 18.5242 14.2169C18.6516 14.2143 20.4315 13.5139 22.4796 12.6605C24.5277 11.8071 26.2209 11.1089 26.2423 11.1089C26.2637 11.1089 26.2812 12.6172 26.2812 14.4607C26.2812 17.5858 26.2721 17.8152 26.1462 17.8533C26.0719 17.8758 24.3439 18.3652 22.3062 18.9409L18.6014 19.9876L14.6457 18.8919L10.69 17.7962V14.4525C10.69 12.5506 10.7197 11.1089 10.7587 11.1089C10.7965 11.1089 12.5071 11.8093 14.56 12.6653ZM33.432 14.1535C33.2753 14.2988 33.2278 14.4161 33.2278 14.6586C33.2278 15.0845 33.4896 15.3543 33.8997 15.3509C34.56 15.3454 34.8537 14.652 34.3915 14.1898C34.1001 13.8984 33.7227 13.8841 33.432 14.1535ZM14.1334 20.2537C16.5011 20.9116 18.5065 21.4499 18.5898 21.4499C18.673 21.4499 19.6253 21.2008 20.7061 20.8963C22.1713 20.4836 22.7034 20.3628 22.7975 20.4216C23.0208 20.5609 23.4049 21.4108 23.5004 21.9772C23.7321 23.3507 23.082 24.7724 21.8915 25.4955C21.018 26.026 21.4687 26.003 11.9473 26.003H3.35752V24.6547V23.3063L8.43238 23.2849C13.905 23.2617 13.7367 23.2748 13.9263 22.8588C14.0666 22.5508 14.0216 22.2996 13.7833 22.0613L13.5577 21.8358H8.45762H3.35752V20.4467V19.0576H6.59292H9.82833L14.1334 20.2537ZM30.6807 19.1388C32.6962 19.4601 34.0083 21.4463 33.4984 23.4039C33.3329 24.0392 33.1118 24.4309 32.6392 24.9262C32.1781 25.4096 31.7054 25.6961 31.0635 25.8812C30.6946 25.9877 30.1545 26.0019 27.139 25.9845L23.6422 25.9644L23.9484 25.5786C25.0894 24.1404 25.32 22.0939 24.5266 20.4467C24.4142 20.2132 24.3201 19.988 24.3176 19.9462C24.3151 19.9043 24.9382 19.691 25.7024 19.4721L27.0917 19.074L28.6354 19.0664C29.4844 19.0622 30.4048 19.0948 30.6807 19.1388ZM18.5556 27.5881C19.9121 27.9078 21.1286 29.0599 21.5274 30.4022C21.6885 30.9447 21.6885 32.0969 21.5274 32.6394C21.1286 33.9817 19.9121 35.1338 18.5556 35.4535C18.1308 35.5536 16.8895 35.5702 9.74451 35.5712L1.42791 35.5723V34.7234V33.8745L9.35859 33.8702C15.2909 33.8669 17.3573 33.8426 17.5594 33.7738C18.0849 33.5946 18.2082 32.8813 17.7716 32.5453C17.6096 32.4206 17.0601 32.4116 9.51296 32.41L1.42791 32.4083V31.5208V30.6333H5.92598C10.8929 30.6333 10.6715 30.6554 10.8408 30.1426C10.9487 29.8155 10.8502 29.5337 10.5619 29.3447C10.3646 29.2155 10.0352 29.2041 5.88877 29.184L1.42791 29.1623V28.3158V27.4693L9.74451 27.4704C16.8895 27.4714 18.1308 27.488 18.5556 27.5881ZM32.4488 27.5881C33.8052 27.9078 35.0218 29.0599 35.4205 30.4022C35.5816 30.9447 35.5816 32.0969 35.4205 32.6394C35.0218 33.9817 33.8052 35.1338 32.4488 35.4535C32.0333 35.5514 31.1114 35.5702 26.6793 35.5712L21.4043 35.5723L21.7102 35.2058C22.2504 34.5585 22.627 33.9002 22.8553 33.2036C23.0546 32.5957 23.0781 32.4183 23.0781 31.5208C23.0781 30.6233 23.0546 30.446 22.8553 29.838C22.627 29.1414 22.2504 28.4831 21.7102 27.8359L21.4043 27.4693L26.6793 27.4704C31.1114 27.4714 32.0333 27.4902 32.4488 27.5881ZM13.1532 29.3432C12.9769 29.4785 12.8512 29.7428 12.8512 29.9782C12.8512 30.2814 13.2363 30.6333 13.568 30.6333C14.164 30.6333 14.476 29.8585 14.051 29.4337C13.841 29.2236 13.3707 29.1762 13.1532 29.3432Z" fill="url(#paint0_linear_83_11)"/>
<defs>
<linearGradient id="paint0_linear_83_11" x1="8.16883" y1="2.16234" x2="23.3052" y2="34.5974" gradientUnits="userSpaceOnUse">
<stop stop-color="#6B34DD"/>
<stop offset="1" stop-color="#629BF8"/>
</linearGradient>
</defs>
</svg>
