<svg width="1413" height="46" viewBox="0 0 1413 46" fill="none" xmlns="http://www.w3.org/2000/svg">
<path d="M1399.83 38.6775C1403.11 40.8782 1401.55 46 1397.6 46H-16C-18.2091 46 -20 44.2091 -20 42L-20 23L-20 4C-20 1.79086 -18.2091 0 -16 0L1399.13 0C1403.14 0 1404.66 5.24914 1401.26 7.38578L1381.65 19.7208C1379.2 21.2626 1379.15 24.8169 1381.55 26.4291L1399.83 38.6775Z" fill="url(#paint0_linear_102_16)"/>
<path d="M1380 39H-30C-31.1046 39 -32 38.1046 -32 37V23V9C-32 7.89543 -31.1046 7 -30 7H1381.99C1383.97 7 1384.74 9.57934 1383.09 10.6706L1368.63 20.1832C1366.25 21.7501 1366.23 25.2329 1368.58 26.8337L1381.12 35.3453C1382.75 36.452 1381.97 39 1380 39Z" stroke="white" stroke-width="2"/>
<defs>
<linearGradient id="paint0_linear_102_16" x1="92.5641" y1="30.3404" x2="1149.07" y2="26.356" gradientUnits="userSpaceOnUse">
<stop stop-color="#D8E9FF"/>
<stop offset="1" stop-color="#E0D8FF"/>
</linearGradient>
</defs>
</svg>
