<svg width="306" height="1147" viewBox="0 0 306 1147" fill="none" xmlns="http://www.w3.org/2000/svg">
<g clip-path="url(#clip0_5_467)">
<rect width="1147" height="30" transform="matrix(4.37114e-08 1 1 -4.37114e-08 153 0)" fill="#FAFAFA"/>
<path fill-rule="evenodd" clip-rule="evenodd" d="M183 645.002C197.405 645.269 209 657.029 209 671.497L209 735.265L216.981 739.849C218.319 740.618 218.319 742.549 216.981 743.318L209 747.902L209 811.505C209 825.973 197.405 837.733 183 838L183 834.999C195.748 834.733 206 824.316 206 811.505L206 749.625L206 746.475L206 746.165L213.977 741.583L206 737.002L206 736.527L206 733.542L206 671.497C206 658.686 195.748 648.269 183 648.003L183 645.002Z" fill="#DCF5E3"/>
<path fill-rule="evenodd" clip-rule="evenodd" d="M183 45.9993C197.405 46.2658 209 58.0261 209 72.4946L209 231.964L208.742 231.964L217.485 237.759C218.678 238.55 218.678 240.302 217.485 241.093L208.742 246.887L209 246.887L209 407.505C209 421.974 197.405 433.734 183 434.001L183 431C195.748 430.734 206 420.317 206 407.505L206 248.705L206 246.887L206 245.105L214.57 239.426L206 233.746L206 231.964L206 230.147L206 72.4946C206 59.683 195.748 49.2659 183 48.9999L183 45.9993Z" fill="#FFD8D8"/>
<line y1="-15" x2="388" y2="-15" transform="matrix(1.31134e-07 1 1 -1.31134e-07 183 46)" stroke="#FFD8D8" stroke-width="30"/>
<line y1="-15" x2="193" y2="-15" transform="matrix(1.31134e-07 1 1 -1.31134e-07 183 645)" stroke="#DCF5E3" stroke-width="30"/>
<line y1="-1.5" x2="1147" y2="-1.5" transform="matrix(4.37114e-08 1 1 -4.37114e-08 170 0)" stroke="#4B267E" stroke-width="3" stroke-dasharray="12 12"/>
<circle r="10.5" transform="matrix(4.37114e-08 1 1 -4.37114e-08 168.5 47.5)" fill="#4B267E"/>
<circle r="7.5" transform="matrix(4.37114e-08 1 1 -4.37114e-08 168.5 47.5)" fill="white"/>
<circle r="7.5" transform="matrix(4.37114e-08 1 1 -4.37114e-08 168.5 47.5)" fill="white"/>
<circle r="3.5" transform="matrix(4.37114e-08 1 1 -4.37114e-08 168.5 47.5)" fill="white"/>
<circle r="3.5" transform="matrix(4.37114e-08 1 1 -4.37114e-08 168.5 47.5)" fill="#4B267E"/>
<circle r="10.5" transform="matrix(4.37114e-08 1 1 -4.37114e-08 168.5 645.5)" fill="#4B267E"/>
<circle r="7.5" transform="matrix(4.37114e-08 1 1 -4.37114e-08 168.5 645.5)" fill="white"/>
<circle r="7.5" transform="matrix(4.37114e-08 1 1 -4.37114e-08 168.5 645.5)" fill="white"/>
<circle r="3.5" transform="matrix(4.37114e-08 1 1 -4.37114e-08 168.5 645.5)" fill="white"/>
<circle r="3.5" transform="matrix(4.37114e-08 1 1 -4.37114e-08 168.5 645.5)" fill="#4B267E"/>
<circle r="10.5" transform="matrix(4.37114e-08 1 1 -4.37114e-08 167.5 433.5)" fill="#4B267E"/>
<circle r="7.5" transform="matrix(4.37114e-08 1 1 -4.37114e-08 167.5 433.5)" fill="white"/>
<circle r="7.5" transform="matrix(4.37114e-08 1 1 -4.37114e-08 167.5 433.5)" fill="white"/>
<circle r="3.5" transform="matrix(4.37114e-08 1 1 -4.37114e-08 167.5 433.5)" fill="white"/>
<circle r="3.5" transform="matrix(4.37114e-08 1 1 -4.37114e-08 167.5 433.5)" fill="#4B267E"/>
<circle r="10.5" transform="matrix(4.37114e-08 1 1 -4.37114e-08 167.5 837.5)" fill="#4B267E"/>
<circle r="7.5" transform="matrix(4.37114e-08 1 1 -4.37114e-08 167.5 837.5)" fill="white"/>
<circle r="7.5" transform="matrix(4.37114e-08 1 1 -4.37114e-08 167.5 837.5)" fill="white"/>
<circle r="3.5" transform="matrix(4.37114e-08 1 1 -4.37114e-08 167.5 837.5)" fill="white"/>
<circle r="3.5" transform="matrix(4.37114e-08 1 1 -4.37114e-08 167.5 837.5)" fill="#4B267E"/>
<circle r="10.5" transform="matrix(4.37114e-08 1 1 -4.37114e-08 167.5 1027.5)" fill="#4B267E"/>
<circle r="7.5" transform="matrix(4.37114e-08 1 1 -4.37114e-08 167.5 1027.5)" fill="white"/>
<circle r="7.5" transform="matrix(4.37114e-08 1 1 -4.37114e-08 167.5 1027.5)" fill="white"/>
<circle r="3.5" transform="matrix(4.37114e-08 1 1 -4.37114e-08 167.5 1027.5)" fill="white"/>
<circle r="3.5" transform="matrix(4.37114e-08 1 1 -4.37114e-08 167.5 1027.5)" fill="#4B267E"/>
<path d="M37.3259 112.786C35.0086 112.786 33.0872 112.023 31.5619 110.498C30.0366 108.958 29.2739 107.059 29.2739 104.8C29.2739 102.541 30.0366 100.649 31.5619 99.124C33.0872 97.584 35.0086 96.814 37.3259 96.814C38.7192 96.814 40.0026 97.144 41.1759 97.804C42.3639 98.464 43.2879 99.3587 43.9479 100.488L41.7479 101.764C41.3372 101.001 40.7359 100.4 39.9439 99.96C39.1666 99.5053 38.2939 99.278 37.3259 99.278C35.6832 99.278 34.3486 99.7987 33.3219 100.84C32.3099 101.881 31.8039 103.201 31.8039 104.8C31.8039 106.399 32.3099 107.719 33.3219 108.76C34.3486 109.801 35.6832 110.322 37.3259 110.322C38.2939 110.322 39.1739 110.102 39.9659 109.662C40.7579 109.207 41.3519 108.599 41.7479 107.836L43.9479 109.09C43.3026 110.219 42.3859 111.121 41.1979 111.796C40.0246 112.456 38.7339 112.786 37.3259 112.786ZM54.4072 101.5L54.4072 103.788H50.8212L50.8212 112.5L48.4452 112.5L48.4452 103.788H44.8372L44.8372 101.5L54.4072 101.5ZM64.2972 101.5L66.6732 101.5L66.6732 112.5L64.2972 112.5V110.916C63.4026 112.163 62.1192 112.786 60.4472 112.786C58.9366 112.786 57.6459 112.229 56.5752 111.114C55.5046 109.985 54.9692 108.613 54.9692 107C54.9692 105.372 55.5046 104.001 56.5752 102.886C57.6459 101.771 58.9366 101.214 60.4472 101.214C62.1192 101.214 63.4026 101.83 64.2972 103.062L64.2972 101.5ZM58.3352 109.53C58.9952 110.19 59.8239 110.52 60.8212 110.52C61.8186 110.52 62.6472 110.19 63.3072 109.53C63.9672 108.855 64.2972 108.012 64.2972 107C64.2972 105.988 63.9672 105.152 63.3072 104.492C62.6472 103.817 61.8186 103.48 60.8212 103.48C59.8239 103.48 58.9952 103.817 58.3352 104.492C57.6752 105.152 57.3452 105.988 57.3452 107C57.3452 108.012 57.6752 108.855 58.3352 109.53ZM75.6686 101.214C77.1793 101.214 78.47 101.779 79.5406 102.908C80.6113 104.023 81.1466 105.387 81.1466 107C81.1466 108.628 80.6113 109.999 79.5406 111.114C78.47 112.229 77.1793 112.786 75.6686 112.786C73.9966 112.786 72.7133 112.17 71.8186 110.938L71.8186 116.9H69.4426L69.4426 101.5H71.8186L71.8186 103.084C72.7133 101.837 73.9966 101.214 75.6686 101.214ZM72.8086 109.53C73.4686 110.19 74.2973 110.52 75.2946 110.52C76.292 110.52 77.1206 110.19 77.7806 109.53C78.4406 108.855 78.7706 108.012 78.7706 107C78.7706 105.988 78.4406 105.152 77.7806 104.492C77.1206 103.817 76.292 103.48 75.2946 103.48C74.2973 103.48 73.4686 103.817 72.8086 104.492C72.1486 105.152 71.8186 105.988 71.8186 107C71.8186 108.012 72.1486 108.855 72.8086 109.53ZM91.2744 101.5V103.788L87.6884 103.788L87.6884 112.5H85.3124L85.3124 103.788L81.7044 103.788V101.5L91.2744 101.5ZM17.7548 137.786C16.1414 137.786 14.7701 137.229 13.6408 136.114C12.5114 134.999 11.9468 133.628 11.9468 132C11.9468 130.372 12.5114 129.001 13.6408 127.886C14.7701 126.771 16.1414 126.214 17.7548 126.214C19.3828 126.214 20.7541 126.771 21.8688 127.886C22.9981 129.001 23.5628 130.372 23.5628 132C23.5628 133.628 22.9981 134.999 21.8688 136.114C20.7541 137.229 19.3828 137.786 17.7548 137.786ZM15.3128 134.486C15.9728 135.146 16.7868 135.476 17.7548 135.476C18.7228 135.476 19.5368 135.146 20.1968 134.486C20.8568 133.826 21.1868 132.997 21.1868 132C21.1868 131.003 20.8568 130.174 20.1968 129.514C19.5368 128.854 18.7228 128.524 17.7548 128.524C16.7868 128.524 15.9728 128.854 15.3128 129.514C14.6528 130.174 14.3228 131.003 14.3228 132C14.3228 132.997 14.6528 133.826 15.3128 134.486ZM30.8152 137.786C29.1285 137.786 27.7499 137.243 26.6792 136.158C25.6232 135.058 25.0952 133.657 25.0952 131.956C25.0952 130.093 25.3739 128.656 25.9312 127.644C26.4885 126.617 27.6179 125.686 29.3192 124.85C29.5979 124.718 30.0085 124.527 30.5512 124.278C31.1085 124.029 31.4899 123.853 31.6952 123.75C31.9005 123.633 32.1572 123.471 32.4652 123.266C32.7732 123.046 33.0005 122.819 33.1472 122.584C33.2939 122.335 33.4112 122.041 33.4992 121.704L35.4352 122.826C35.3765 123.149 35.2812 123.449 35.1492 123.728C35.0172 123.992 34.8265 124.241 34.5772 124.476C34.3279 124.711 34.1079 124.901 33.9172 125.048C33.7412 125.195 33.4405 125.371 33.0152 125.576C32.5899 125.781 32.2745 125.928 32.0692 126.016C31.8785 126.104 31.5119 126.258 30.9692 126.478C30.0012 126.859 29.2899 127.255 28.8352 127.666C28.3952 128.062 28.0872 128.561 27.9112 129.162C28.7912 128.165 29.9865 127.666 31.4972 127.666C32.7879 127.666 33.9099 128.128 34.8632 129.052C35.8312 129.976 36.3152 131.171 36.3152 132.638C36.3152 134.134 35.8019 135.366 34.7752 136.334C33.7632 137.302 32.4432 137.786 30.8152 137.786ZM30.7932 135.564C31.7172 135.564 32.4725 135.293 33.0592 134.75C33.6459 134.193 33.9392 133.489 33.9392 132.638C33.9392 131.773 33.6459 131.061 33.0592 130.504C32.4872 129.947 31.7392 129.668 30.8152 129.668C29.9939 129.668 29.2532 129.932 28.5932 130.46C27.9332 130.973 27.6032 131.663 27.6032 132.528C27.6032 133.408 27.9112 134.134 28.5272 134.706C29.1432 135.278 29.8985 135.564 30.7932 135.564ZM45.1779 126.5H47.7079L43.4839 137.852C42.9706 139.245 42.2519 140.287 41.3279 140.976C40.4039 141.665 39.3333 141.973 38.1159 141.9V139.678C38.8639 139.722 39.4653 139.568 39.9199 139.216C40.3893 138.879 40.7633 138.329 41.0419 137.566L41.1079 137.412L36.4879 126.5L39.0179 126.5L42.3619 134.508L45.1779 126.5ZM55.8816 126.5H58.2576L58.2576 137.5H55.8816L55.8816 133.782C55.0016 134.105 54.0776 134.266 53.1096 134.266C51.7456 134.266 50.6676 133.929 49.8756 133.254C49.0836 132.579 48.6876 131.589 48.6876 130.284L48.6876 126.5L51.0636 126.5L51.0636 130.064C51.0636 131.384 51.8483 132.044 53.4176 132.044C54.3416 132.044 55.163 131.875 55.8816 131.538L55.8816 126.5ZM62.9015 133.012C63.0775 133.848 63.4808 134.493 64.1115 134.948C64.7422 135.388 65.5122 135.608 66.4215 135.608C67.6828 135.608 68.6288 135.153 69.2595 134.244L71.2175 135.388C70.1322 136.987 68.5262 137.786 66.3995 137.786C64.6102 137.786 63.1655 137.243 62.0655 136.158C60.9655 135.058 60.4155 133.672 60.4155 132C60.4155 130.357 60.9582 128.986 62.0435 127.886C63.1288 126.771 64.5222 126.214 66.2235 126.214C67.8368 126.214 69.1568 126.779 70.1835 127.908C71.2248 129.037 71.7455 130.409 71.7455 132.022C71.7455 132.271 71.7162 132.601 71.6575 133.012L62.9015 133.012ZM62.8795 131.076L69.3475 131.076C69.1862 130.181 68.8122 129.507 68.2255 129.052C67.6535 128.597 66.9788 128.37 66.2015 128.37C65.3215 128.37 64.5882 128.612 64.0015 129.096C63.4148 129.58 63.0408 130.24 62.8795 131.076ZM81.2502 126.5L83.6262 126.5L83.6262 137.5H81.2502V133.122H76.2122V137.5H73.8362L73.8362 126.5H76.2122L76.2122 130.878H81.2502L81.2502 126.5ZM94.3471 126.5H96.1731L96.1731 137.5H93.8411V130.504L88.2091 137.5L86.3831 137.5L86.3831 126.5L88.7151 126.5L88.7151 133.474L94.3471 126.5ZM107.444 126.5L107.444 137.5H105.112V133.804H103.792L100.998 137.5L98.2039 137.5L101.174 133.584C100.411 133.335 99.7953 132.895 99.3259 132.264C98.8713 131.633 98.6439 130.929 98.6439 130.152C98.6439 129.14 99.0033 128.282 99.7219 127.578C100.455 126.859 101.394 126.5 102.538 126.5L107.444 126.5ZM102.67 131.758H105.112L105.112 128.656H102.67C102.186 128.656 101.783 128.795 101.46 129.074C101.137 129.353 100.976 129.734 100.976 130.218C100.976 130.687 101.137 131.061 101.46 131.34C101.783 131.619 102.186 131.758 102.67 131.758Z" fill="black"/>
<rect x="29" y="15.5" width="62" height="62" rx="6" fill="#E0D8FF"/>
<path fill-rule="evenodd" clip-rule="evenodd" d="M48.9108 35.8071C37.8281 40.4783 38.1515 40.3244 38.0233 40.9892C37.9922 41.1502 37.9922 41.4136 38.0233 41.5746C38.142 42.1901 38.3401 42.3007 42.3136 43.9697L46.0114 45.5228L46.0534 50.0845L46.0954 54.646L46.3321 55.2999C47.2932 57.9557 50.3896 60.105 54.5677 61.0164C56.442 61.4252 57.2052 61.5 59.4999 61.5C61.7945 61.5 62.5578 61.4252 64.432 61.0164C68.6069 60.1056 71.7072 57.9537 72.6676 55.2999L72.9043 54.646L72.9293 50.0988L72.9541 45.5517L73.6016 45.2687L74.2489 44.9857L74.291 52.2007C74.3325 59.3282 74.3351 59.4185 74.5063 59.6414C74.8356 60.0703 75.1041 60.2041 75.6356 60.2041C76.1671 60.2041 76.4357 60.0703 76.7649 59.6414C76.9367 59.4177 76.9384 59.3491 76.9605 51.6304L76.9828 43.845L78.7131 43.1152C80.5744 42.3301 80.8696 42.1287 80.9774 41.5697C81.0079 41.4114 81.0075 41.1502 80.9765 40.9892C80.8476 40.3213 81.173 40.4765 70.173 35.8397C63.0913 32.8547 59.8462 31.5252 59.5839 31.5018C59.2361 31.4705 58.3804 31.8157 48.9108 35.8071ZM67.9184 37.7467C72.4845 39.6686 76.2205 41.2594 76.2208 41.2819C76.221 41.3044 75.9361 41.44 75.5878 41.5832L74.9544 41.8435L67.2481 40.9037C63.0097 40.3867 59.4155 39.9828 59.2609 40.0059C58.8806 40.0629 58.4168 40.4225 58.2635 40.7794C58.0018 41.3885 58.3399 42.2266 58.9437 42.4655C59.0878 42.5225 61.5694 42.8521 64.4582 43.1978C67.3471 43.5435 69.7755 43.8516 69.8546 43.8824C69.951 43.92 68.3191 44.6451 64.8938 46.0868C62.0865 47.2685 59.71 48.2556 59.6128 48.2803C59.4943 48.3104 57.0596 47.3245 52.2195 45.2863C42.968 41.3905 42.9135 41.3673 42.8468 41.2988C42.7878 41.2383 59.2835 34.2589 59.4952 34.2548C59.562 34.2535 63.3524 35.8249 67.9184 37.7467ZM54.2794 49.0051C58.7629 50.8955 59.3051 51.105 59.616 51.0679C59.8064 51.0452 62.1555 50.0999 64.8364 48.9673C67.5173 47.8346 69.8351 46.8571 69.987 46.7952L70.2633 46.6824L70.2391 50.5026L70.215 54.3228L69.9443 54.8574C68.7572 57.2019 64.3148 58.9372 59.4999 58.9372C54.686 58.9372 50.2422 57.2014 49.0554 54.8574L48.7847 54.3228L48.7605 50.4973L48.7364 46.6718L49.0126 46.7864C49.1647 46.8494 51.5347 47.8479 54.2794 49.0051Z" fill="#4B267E"/>
<line x1="91" y1="47" x2="159" y2="47" stroke="#4B267E" stroke-width="3"/>
<line x1="91" y1="432.5" x2="159" y2="432.5" stroke="#4B267E" stroke-width="3"/>
<line x1="91" y1="645.5" x2="159" y2="645.5" stroke="#4B267E" stroke-width="3"/>
<line x1="91" y1="836.5" x2="159" y2="836.5" stroke="#4B267E" stroke-width="3"/>
<line x1="91" y1="1028" x2="159" y2="1028" stroke="#4B267E" stroke-width="3"/>
<path d="M11.8933 502L10.8153 498.898H4.25929L3.18129 502H0.431289L6.01929 486.6H9.05529L14.6213 502H11.8933ZM5.09529 496.522H9.97929L7.53729 489.57L5.09529 496.522ZM23.8613 491L23.8613 493.288H20.2753V502H17.8993V493.288H14.2913V491H23.8613ZM33.9375 491V493.288H30.3515V502H27.9755V493.288H24.3675L24.3675 491H33.9375ZM36.9855 497.512C37.1615 498.348 37.5648 498.993 38.1955 499.448C38.8262 499.888 39.5962 500.108 40.5055 500.108C41.7668 500.108 42.7128 499.653 43.3435 498.744L45.3015 499.888C44.2162 501.487 42.6102 502.286 40.4835 502.286C38.6942 502.286 37.2495 501.743 36.1495 500.658C35.0495 499.558 34.4995 498.172 34.4995 496.5C34.4995 494.857 35.0422 493.486 36.1275 492.386C37.2128 491.271 38.6062 490.714 40.3075 490.714C41.9208 490.714 43.2408 491.279 44.2675 492.408C45.3088 493.537 45.8295 494.909 45.8295 496.522C45.8295 496.771 45.8002 497.101 45.7415 497.512H36.9855ZM36.9635 495.576H43.4315C43.2702 494.681 42.8962 494.007 42.3095 493.552C41.7375 493.097 41.0628 492.87 40.2855 492.87C39.4055 492.87 38.6722 493.112 38.0855 493.596C37.4988 494.08 37.1248 494.74 36.9635 495.576ZM53.0477 502.286C51.3904 502.286 50.0044 501.729 48.8897 500.614C47.7897 499.499 47.2397 498.128 47.2397 496.5C47.2397 494.857 47.7897 493.486 48.8897 492.386C50.0044 491.271 51.3904 490.714 53.0477 490.714C54.1184 490.714 55.0937 490.971 55.9737 491.484C56.8537 491.997 57.5137 492.687 57.9537 493.552L55.9077 494.74C55.6584 494.212 55.2771 493.801 54.7637 493.508C54.2651 493.2 53.6857 493.046 53.0257 493.046C52.0577 493.046 51.2437 493.376 50.5837 494.036C49.9384 494.696 49.6157 495.517 49.6157 496.5C49.6157 497.483 49.9384 498.304 50.5837 498.964C51.2437 499.624 52.0577 499.954 53.0257 499.954C53.6711 499.954 54.2504 499.8 54.7637 499.492C55.2917 499.184 55.6877 498.773 55.9517 498.26L57.9977 499.426C57.5284 500.306 56.8537 501.003 55.9737 501.516C55.0937 502.029 54.1184 502.286 53.0477 502.286ZM68.0117 491V493.288H64.4257V502H62.0497V493.288H58.4417V491H68.0117ZM77.9017 491H80.2777V502H77.9017V500.416C77.007 501.663 75.7237 502.286 74.0517 502.286C72.541 502.286 71.2504 501.729 70.1797 500.614C69.109 499.485 68.5737 498.113 68.5737 496.5C68.5737 494.872 69.109 493.501 70.1797 492.386C71.2504 491.271 72.541 490.714 74.0517 490.714C75.7237 490.714 77.007 491.33 77.9017 492.562V491ZM71.9397 499.03C72.5997 499.69 73.4284 500.02 74.4257 500.02C75.423 500.02 76.2517 499.69 76.9117 499.03C77.5717 498.355 77.9017 497.512 77.9017 496.5C77.9017 495.488 77.5717 494.652 76.9117 493.992C76.2517 493.317 75.423 492.98 74.4257 492.98C73.4284 492.98 72.5997 493.317 71.9397 493.992C71.2797 494.652 70.9497 495.488 70.9497 496.5C70.9497 497.512 71.2797 498.355 71.9397 499.03ZM92.5071 499.756H94.3111V504.948H91.9791V502H83.0471V491H85.4231V499.756H90.1311V491H92.5071V499.756ZM104.203 491H106.029V502H103.697V495.004L98.0645 502H96.2385V491H98.5705V497.974L104.203 491ZM117.299 491V502H114.967V498.304H113.647L110.853 502H108.059L111.029 498.084C110.267 497.835 109.651 497.395 109.181 496.764C108.727 496.133 108.499 495.429 108.499 494.652C108.499 493.64 108.859 492.782 109.577 492.078C110.311 491.359 111.249 491 112.393 491H117.299ZM112.525 496.258H114.967V493.156H112.525C112.041 493.156 111.638 493.295 111.315 493.574C110.993 493.853 110.831 494.234 110.831 494.718C110.831 495.187 110.993 495.561 111.315 495.84C111.638 496.119 112.041 496.258 112.525 496.258Z" fill="black"/>
<rect x="29" y="403" width="62" height="62" rx="6" fill="#D8E9FF"/>
<path fill-rule="evenodd" clip-rule="evenodd" d="M60.2775 415.086C61.1849 415.308 62.1157 416.051 62.4781 416.843L62.6461 417.211H63.3919C63.8021 417.211 64.334 417.247 64.5737 417.291C65.5207 417.467 66.4758 418.171 66.8741 418.988L67.0898 419.43L68.867 419.436C70.9946 419.442 71.4334 419.496 72.1225 419.838C73.1018 420.324 73.7944 421.288 73.9448 422.377C73.9893 422.699 74.0088 428.07 73.9963 436.591L73.9762 450.288L73.8173 450.704C73.3695 451.877 72.4164 452.711 71.282 452.923C70.7353 453.026 48.2647 453.026 47.718 452.923C46.5836 452.711 45.6305 451.877 45.1827 450.704L45.0238 450.288L45.0037 436.591C44.9912 428.07 45.0107 422.699 45.0552 422.377C45.2056 421.288 45.8982 420.324 46.8775 419.838C47.5666 419.496 48.0054 419.442 50.133 419.436L51.9102 419.43L52.1259 418.988C52.5242 418.171 53.4793 417.467 54.4263 417.291C54.666 417.247 55.1979 417.211 55.6081 417.211H56.3539L56.5219 416.843C57.1292 415.516 58.813 414.728 60.2775 415.086ZM59.0187 417.359C58.6639 417.531 58.39 417.955 58.3881 418.334C58.3864 418.679 58.1075 419.135 57.7981 419.3C57.5742 419.42 57.3628 419.438 56.1992 419.438C54.947 419.438 54.8372 419.449 54.5398 419.607C54.0692 419.856 53.9465 420.14 53.9465 420.978V421.665L59.5 421.665H65.0535V420.978C65.0535 420.14 64.9308 419.856 64.4602 419.607C64.1628 419.449 64.053 419.438 62.8008 419.438C61.6372 419.438 61.4258 419.42 61.2019 419.3C60.8925 419.135 60.6136 418.679 60.6119 418.334C60.6101 417.959 60.3374 417.535 59.9869 417.361C59.6077 417.172 59.4043 417.172 59.0187 417.359ZM67.275 422.506L67.2379 423.31L66.9261 423.601L66.6142 423.893H59.5L52.3858 423.893L52.0739 423.601L51.7621 423.31L51.725 422.506L51.688 421.703H49.8739C48.1825 421.703 48.0423 421.713 47.8031 421.854C47.6621 421.937 47.4788 422.121 47.3959 422.262C47.2458 422.518 47.2452 422.573 47.2452 436.261L47.2452 450.002L47.4586 450.283C47.8565 450.806 46.9769 450.771 59.5 450.771C72.0231 450.771 71.1435 450.806 71.5414 450.283L71.7548 450.002L71.7743 436.421C71.7876 427.13 71.7693 422.748 71.7162 422.551C71.6736 422.392 71.5648 422.176 71.4746 422.072C71.1661 421.715 70.8735 421.669 69.0151 421.687L67.312 421.703L67.275 422.506ZM52.2063 427.424C52.3285 427.487 53.0198 428.129 53.7426 428.851L55.0566 430.165L55.8529 429.376C56.2909 428.942 56.722 428.55 56.8109 428.504C57.0396 428.388 57.544 428.402 57.7948 428.532C58.2142 428.75 58.445 429.248 58.3543 429.74C58.3113 429.974 58.0893 430.234 56.958 431.376C54.931 433.421 55.1588 433.444 52.6631 430.958C51.6519 429.951 50.7772 429.037 50.7194 428.927C50.6616 428.817 50.6143 428.56 50.6143 428.357C50.6143 428.067 50.6559 427.938 50.8083 427.757C51.178 427.316 51.7384 427.183 52.2063 427.424ZM67.8303 428.559C68.2262 428.807 68.3376 428.991 68.3667 429.446C68.4009 429.98 68.2218 430.299 67.7732 430.504C67.4854 430.635 67.2667 430.646 65.0697 430.648C62.4467 430.65 62.355 430.637 61.9986 430.212C61.7202 429.88 61.669 429.522 61.8411 429.107C61.9178 428.923 62.0746 428.701 62.1895 428.615C62.3913 428.464 62.4876 428.458 65.0033 428.439C67.4408 428.421 67.6225 428.428 67.8303 428.559ZM52.0953 434.073C52.1971 434.113 52.8973 434.762 53.6513 435.516L55.0222 436.887L55.7616 436.139C56.8002 435.088 57.1255 434.945 57.7691 435.257C57.9979 435.368 58.126 435.497 58.2368 435.726C58.4266 436.12 58.4293 436.369 58.2472 436.722C58.0664 437.073 55.7555 439.374 55.4781 439.48C55.1877 439.59 54.7904 439.579 54.5536 439.453C54.3133 439.325 50.8129 435.804 50.6962 435.573C50.6512 435.484 50.6143 435.263 50.6143 435.083C50.6143 434.328 51.3924 433.797 52.0953 434.073ZM67.7945 436.356C68.5604 436.764 68.5909 437.841 67.8495 438.299C67.6182 438.442 67.5006 438.447 65.0165 438.428C62.4586 438.409 62.4218 438.406 62.19 438.24C61.8924 438.027 61.6851 437.512 61.7525 437.152C61.8136 436.825 62.1208 436.452 62.4375 436.319C62.625 436.241 63.2242 436.218 65.1078 436.218C67.3293 436.218 67.5584 436.23 67.7945 436.356ZM57.6118 441.898C57.985 442.03 58.2924 442.369 58.3579 442.719C58.4507 443.215 58.3035 443.473 57.4312 444.344L56.6169 445.158L57.4604 446.022C58.3835 446.967 58.4887 447.175 58.3239 447.727C58.2205 448.073 57.8148 448.445 57.4701 448.51C57.0046 448.597 56.7043 448.425 55.8349 447.57L55.0201 446.77L54.1686 447.611C53.4324 448.338 53.2751 448.458 53.0073 448.503C52.5953 448.571 52.0834 448.349 51.8711 448.01C51.7491 447.815 51.7227 447.674 51.7444 447.333L51.7721 446.902L52.6158 446.053L53.4597 445.205L52.6702 444.402C51.8351 443.552 51.7247 443.374 51.7256 442.877C51.7263 442.376 52.0645 441.977 52.5878 441.858C53.0739 441.748 53.3322 441.893 54.2242 442.774L55.0573 443.598L55.9342 442.729C56.4865 442.182 56.8678 441.861 56.9647 441.861C57.0492 441.861 57.1628 441.846 57.217 441.827C57.2713 441.808 57.4489 441.84 57.6118 441.898ZM67.8939 444.229C68.5786 444.682 68.5492 445.762 67.8416 446.15C67.6333 446.265 67.3329 446.279 65.0478 446.279H62.4873L62.2076 446.065C61.5628 445.571 61.5781 444.708 62.2397 444.255C62.4814 444.09 62.5088 444.088 65.083 444.089C67.5045 444.089 67.6967 444.099 67.8939 444.229Z" fill="#4B267E"/>
<path d="M11.8933 905L10.8153 901.898H4.25929L3.18129 905H0.431289L6.01929 889.6H9.05529L14.6213 905H11.8933ZM5.09529 899.522H9.97929L7.53729 892.57L5.09529 899.522ZM23.8613 894L23.8613 896.288H20.2753V905H17.8993V896.288H14.2913V894H23.8613ZM33.9375 894V896.288H30.3515V905H27.9755V896.288H24.3675L24.3675 894H33.9375ZM36.9855 900.512C37.1615 901.348 37.5648 901.993 38.1955 902.448C38.8262 902.888 39.5962 903.108 40.5055 903.108C41.7668 903.108 42.7128 902.653 43.3435 901.744L45.3015 902.888C44.2162 904.487 42.6102 905.286 40.4835 905.286C38.6942 905.286 37.2495 904.743 36.1495 903.658C35.0495 902.558 34.4995 901.172 34.4995 899.5C34.4995 897.857 35.0422 896.486 36.1275 895.386C37.2128 894.271 38.6062 893.714 40.3075 893.714C41.9208 893.714 43.2408 894.279 44.2675 895.408C45.3088 896.537 45.8295 897.909 45.8295 899.522C45.8295 899.771 45.8002 900.101 45.7415 900.512H36.9855ZM36.9635 898.576H43.4315C43.2702 897.681 42.8962 897.007 42.3095 896.552C41.7375 896.097 41.0628 895.87 40.2855 895.87C39.4055 895.87 38.6722 896.112 38.0855 896.596C37.4988 897.08 37.1248 897.74 36.9635 898.576ZM53.0477 905.286C51.3904 905.286 50.0044 904.729 48.8897 903.614C47.7897 902.499 47.2397 901.128 47.2397 899.5C47.2397 897.857 47.7897 896.486 48.8897 895.386C50.0044 894.271 51.3904 893.714 53.0477 893.714C54.1184 893.714 55.0937 893.971 55.9737 894.484C56.8537 894.997 57.5137 895.687 57.9537 896.552L55.9077 897.74C55.6584 897.212 55.2771 896.801 54.7637 896.508C54.2651 896.2 53.6857 896.046 53.0257 896.046C52.0577 896.046 51.2437 896.376 50.5837 897.036C49.9384 897.696 49.6157 898.517 49.6157 899.5C49.6157 900.483 49.9384 901.304 50.5837 901.964C51.2437 902.624 52.0577 902.954 53.0257 902.954C53.6711 902.954 54.2504 902.8 54.7637 902.492C55.2917 902.184 55.6877 901.773 55.9517 901.26L57.9977 902.426C57.5284 903.306 56.8537 904.003 55.9737 904.516C55.0937 905.029 54.1184 905.286 53.0477 905.286ZM68.0117 894V896.288H64.4257V905H62.0497V896.288H58.4417V894H68.0117ZM77.9017 894H80.2777V905H77.9017V903.416C77.007 904.663 75.7237 905.286 74.0517 905.286C72.541 905.286 71.2504 904.729 70.1797 903.614C69.109 902.485 68.5737 901.113 68.5737 899.5C68.5737 897.872 69.109 896.501 70.1797 895.386C71.2504 894.271 72.541 893.714 74.0517 893.714C75.7237 893.714 77.007 894.33 77.9017 895.562V894ZM71.9397 902.03C72.5997 902.69 73.4284 903.02 74.4257 903.02C75.423 903.02 76.2517 902.69 76.9117 902.03C77.5717 901.355 77.9017 900.512 77.9017 899.5C77.9017 898.488 77.5717 897.652 76.9117 896.992C76.2517 896.317 75.423 895.98 74.4257 895.98C73.4284 895.98 72.5997 896.317 71.9397 896.992C71.2797 897.652 70.9497 898.488 70.9497 899.5C70.9497 900.512 71.2797 901.355 71.9397 902.03ZM92.5071 902.756H94.3111V907.948H91.9791V905H83.0471V894H85.4231V902.756H90.1311V894H92.5071V902.756ZM104.203 894H106.029V905H103.697V898.004L98.0645 905H96.2385V894H98.5705V900.974L104.203 894ZM117.299 894V905H114.967V901.304H113.647L110.853 905H108.059L111.029 901.084C110.267 900.835 109.651 900.395 109.181 899.764C108.727 899.133 108.499 898.429 108.499 897.652C108.499 896.64 108.859 895.782 109.577 895.078C110.311 894.359 111.249 894 112.393 894H117.299ZM112.525 899.258H114.967V896.156H112.525C112.041 896.156 111.638 896.295 111.315 896.574C110.993 896.853 110.831 897.234 110.831 897.718C110.831 898.187 110.993 898.561 111.315 898.84C111.638 899.119 112.041 899.258 112.525 899.258Z" fill="black"/>
<rect x="29" y="806" width="62" height="62" rx="6" fill="#D8E9FF"/>
<path fill-rule="evenodd" clip-rule="evenodd" d="M60.2775 818.086C61.1849 818.308 62.1157 819.051 62.4781 819.843L62.6461 820.211H63.3919C63.8021 820.211 64.334 820.247 64.5737 820.291C65.5207 820.467 66.4758 821.171 66.8741 821.988L67.0898 822.43L68.867 822.436C70.9946 822.442 71.4334 822.496 72.1225 822.838C73.1018 823.324 73.7944 824.288 73.9448 825.377C73.9893 825.699 74.0088 831.07 73.9963 839.591L73.9762 853.288L73.8173 853.704C73.3695 854.877 72.4164 855.711 71.282 855.923C70.7353 856.026 48.2647 856.026 47.718 855.923C46.5836 855.711 45.6305 854.877 45.1827 853.704L45.0238 853.288L45.0037 839.591C44.9912 831.07 45.0107 825.699 45.0552 825.377C45.2056 824.288 45.8982 823.324 46.8775 822.838C47.5666 822.496 48.0054 822.442 50.133 822.436L51.9102 822.43L52.1259 821.988C52.5242 821.171 53.4793 820.467 54.4263 820.291C54.666 820.247 55.1979 820.211 55.6081 820.211H56.3539L56.5219 819.843C57.1292 818.516 58.813 817.728 60.2775 818.086ZM59.0187 820.359C58.6639 820.531 58.39 820.955 58.3881 821.334C58.3864 821.679 58.1075 822.135 57.7981 822.3C57.5742 822.42 57.3628 822.438 56.1992 822.438C54.947 822.438 54.8372 822.449 54.5398 822.607C54.0692 822.856 53.9465 823.14 53.9465 823.978V824.665H59.5H65.0535V823.978C65.0535 823.14 64.9308 822.856 64.4602 822.607C64.1628 822.449 64.053 822.438 62.8008 822.438C61.6372 822.438 61.4258 822.42 61.2019 822.3C60.8925 822.135 60.6136 821.679 60.6119 821.334C60.6101 820.959 60.3374 820.535 59.9869 820.361C59.6077 820.172 59.4043 820.172 59.0187 820.359ZM67.275 825.506L67.2379 826.31L66.9261 826.601L66.6142 826.893H59.5H52.3858L52.0739 826.601L51.7621 826.31L51.725 825.506L51.688 824.703H49.8739C48.1825 824.703 48.0423 824.713 47.8031 824.854C47.6621 824.937 47.4788 825.121 47.3959 825.262C47.2458 825.518 47.2452 825.573 47.2452 839.261L47.2452 853.002L47.4586 853.283C47.8565 853.806 46.9769 853.771 59.5 853.771C72.0231 853.771 71.1435 853.806 71.5414 853.283L71.7548 853.002L71.7743 839.421C71.7876 830.13 71.7693 825.748 71.7162 825.551C71.6736 825.392 71.5648 825.176 71.4746 825.072C71.1661 824.715 70.8735 824.669 69.0151 824.687L67.312 824.703L67.275 825.506ZM52.2063 830.424C52.3285 830.487 53.0198 831.129 53.7426 831.851L55.0566 833.165L55.8529 832.376C56.2909 831.942 56.722 831.55 56.8109 831.504C57.0396 831.388 57.544 831.402 57.7948 831.532C58.2142 831.75 58.445 832.248 58.3543 832.74C58.3113 832.974 58.0893 833.234 56.958 834.376C54.931 836.421 55.1588 836.444 52.6631 833.958C51.6519 832.951 50.7772 832.037 50.7194 831.927C50.6616 831.817 50.6143 831.56 50.6143 831.357C50.6143 831.067 50.6559 830.938 50.8083 830.757C51.178 830.316 51.7384 830.183 52.2063 830.424ZM67.8303 831.559C68.2262 831.807 68.3376 831.991 68.3667 832.446C68.4009 832.98 68.2218 833.299 67.7732 833.504C67.4854 833.635 67.2667 833.646 65.0697 833.648C62.4467 833.65 62.355 833.637 61.9986 833.212C61.7202 832.88 61.669 832.522 61.8411 832.107C61.9178 831.923 62.0746 831.701 62.1895 831.615C62.3913 831.464 62.4876 831.458 65.0033 831.439C67.4408 831.421 67.6225 831.428 67.8303 831.559ZM52.0953 837.073C52.1971 837.113 52.8973 837.762 53.6513 838.516L55.0222 839.887L55.7616 839.139C56.8002 838.088 57.1255 837.945 57.7691 838.257C57.9979 838.368 58.126 838.497 58.2368 838.726C58.4266 839.12 58.4293 839.369 58.2472 839.722C58.0664 840.073 55.7555 842.374 55.4781 842.48C55.1877 842.59 54.7904 842.579 54.5536 842.453C54.3133 842.325 50.8129 838.804 50.6962 838.573C50.6512 838.484 50.6143 838.263 50.6143 838.083C50.6143 837.328 51.3924 836.797 52.0953 837.073ZM67.7945 839.356C68.5604 839.764 68.5909 840.841 67.8495 841.299C67.6182 841.442 67.5006 841.447 65.0165 841.428C62.4586 841.409 62.4218 841.406 62.19 841.24C61.8924 841.027 61.6851 840.512 61.7525 840.152C61.8136 839.825 62.1208 839.452 62.4375 839.319C62.625 839.241 63.2242 839.218 65.1078 839.218C67.3293 839.218 67.5584 839.23 67.7945 839.356ZM57.6118 844.898C57.985 845.03 58.2924 845.369 58.3579 845.719C58.4507 846.215 58.3035 846.473 57.4312 847.344L56.6169 848.158L57.4604 849.022C58.3835 849.967 58.4887 850.175 58.3239 850.727C58.2205 851.073 57.8148 851.445 57.4701 851.51C57.0046 851.597 56.7043 851.425 55.8349 850.57L55.0201 849.77L54.1686 850.611C53.4324 851.338 53.2751 851.458 53.0073 851.503C52.5953 851.571 52.0834 851.349 51.8711 851.01C51.7491 850.815 51.7227 850.674 51.7444 850.333L51.7721 849.902L52.6158 849.053L53.4597 848.205L52.6702 847.402C51.8351 846.552 51.7247 846.374 51.7256 845.877C51.7263 845.376 52.0645 844.977 52.5878 844.858C53.0739 844.748 53.3322 844.893 54.2242 845.774L55.0573 846.598L55.9342 845.729C56.4865 845.182 56.8678 844.861 56.9647 844.861C57.0492 844.861 57.1628 844.846 57.217 844.827C57.2713 844.808 57.4489 844.84 57.6118 844.898ZM67.8939 847.229C68.5786 847.682 68.5492 848.762 67.8416 849.15C67.6333 849.265 67.3329 849.279 65.0478 849.279H62.4873L62.2076 849.065C61.5628 848.571 61.5781 847.708 62.2397 847.255C62.4814 847.09 62.5088 847.088 65.083 847.089C67.5045 847.089 67.6967 847.099 67.8939 847.229Z" fill="#4B267E"/>
<path d="M22.2147 697.6L22.2147 713H19.6847L19.6847 700.02H13.4147L13.4147 713H10.8847L10.8847 697.6H22.2147ZM31.3727 701.714C32.8834 701.714 34.1741 702.279 35.2447 703.408C36.3154 704.523 36.8507 705.887 36.8507 707.5C36.8507 709.128 36.3154 710.499 35.2447 711.614C34.1741 712.729 32.8834 713.286 31.3727 713.286C29.7007 713.286 28.4174 712.67 27.5227 711.438L27.5227 717.4H25.1467L25.1467 702H27.5227L27.5227 703.584C28.4174 702.337 29.7007 701.714 31.3727 701.714ZM28.5127 710.03C29.1727 710.69 30.0014 711.02 30.9987 711.02C31.9961 711.02 32.8247 710.69 33.4847 710.03C34.1447 709.355 34.4747 708.512 34.4747 707.5C34.4747 706.488 34.1447 705.652 33.4847 704.992C32.8247 704.317 31.9961 703.98 30.9987 703.98C30.0014 703.98 29.1727 704.317 28.5127 704.992C27.8527 705.652 27.5227 706.488 27.5227 707.5C27.5227 708.512 27.8527 709.355 28.5127 710.03ZM47.7162 702H50.0922L50.0922 713H47.7162V711.416C46.8215 712.663 45.5382 713.286 43.8662 713.286C42.3555 713.286 41.0648 712.729 39.9942 711.614C38.9235 710.485 38.3882 709.113 38.3882 707.5C38.3882 705.872 38.9235 704.501 39.9942 703.386C41.0648 702.271 42.3555 701.714 43.8662 701.714C45.5382 701.714 46.8215 702.33 47.7162 703.562V702ZM41.7542 710.03C42.4142 710.69 43.2428 711.02 44.2402 711.02C45.2375 711.02 46.0662 710.69 46.7262 710.03C47.3862 709.355 47.7162 708.512 47.7162 707.5C47.7162 706.488 47.3862 705.652 46.7262 704.992C46.0662 704.317 45.2375 703.98 44.2402 703.98C43.2428 703.98 42.4142 704.317 41.7542 704.992C41.0942 705.652 40.7642 706.488 40.7642 707.5C40.7642 708.512 41.0942 709.355 41.7542 710.03ZM62.5856 713H59.7476L55.2376 707.918L55.2376 713H52.8616L52.8616 702H55.2376L55.2376 706.862L59.5056 702H62.4096L57.5696 707.39L62.5856 713ZM72.5879 702V704.288H69.0019V713H66.6259V704.288H63.0179V702H72.5879ZM82.1596 702H83.9856L83.9856 713H81.6536L81.6536 706.004L76.0216 713H74.1956L74.1956 702H76.5276L76.5276 708.974L82.1596 702ZM96.4664 713H93.6284L89.1184 707.918L89.1184 713H86.7424L86.7424 702H89.1184L89.1184 706.862L93.3864 702H96.2904L91.4504 707.39L96.4664 713ZM105.896 702L108.272 702L108.272 713L105.896 713L105.896 711.416C105.001 712.663 103.718 713.286 102.046 713.286C100.535 713.286 99.2445 712.729 98.1739 711.614C97.1032 710.485 96.5679 709.113 96.5679 707.5C96.5679 705.872 97.1032 704.501 98.1739 703.386C99.2445 702.271 100.535 701.714 102.046 701.714C103.718 701.714 105.001 702.33 105.896 703.562L105.896 702ZM99.9339 710.03C100.594 710.69 101.423 711.02 102.42 711.02C103.417 711.02 104.246 710.69 104.906 710.03C105.566 709.355 105.896 708.512 105.896 707.5C105.896 706.488 105.566 705.652 104.906 704.992C104.246 704.317 103.417 703.98 102.42 703.98C101.423 703.98 100.594 704.317 99.9339 704.992C99.2739 705.652 98.9439 706.488 98.9439 707.5C98.9439 708.512 99.2739 709.355 99.9339 710.03Z" fill="black"/>
<rect x="29" y="614" width="62" height="62" rx="6" fill="#E0D8FF"/>
<path fill-rule="evenodd" clip-rule="evenodd" d="M58.1476 628.107C57.6187 628.249 57.1583 628.519 56.7372 628.934C56.1115 629.552 55.8164 630.297 55.8164 631.259V631.835L55.2354 632.054C54.9158 632.174 54.432 632.373 54.1602 632.496L53.6661 632.72L53.2969 632.359C52.3714 631.454 51.2735 631.129 50.1397 631.424C49.462 631.6 49.0748 631.878 47.9759 632.977C46.8769 634.076 46.599 634.463 46.4224 635.141C46.1274 636.274 46.4524 637.373 47.3557 638.296L47.7148 638.663L47.4245 639.325C47.2649 639.689 47.0667 640.174 46.984 640.402L46.8338 640.817H46.2571C45.2953 640.817 44.5556 641.11 43.9244 641.742C43.1513 642.515 43 643.048 43 645.001C43 646.957 43.145 647.465 43.933 648.263C44.5503 648.889 45.2952 649.184 46.2572 649.184H46.8339L47.0522 649.765C47.1723 650.085 47.3715 650.569 47.4947 650.84L47.7188 651.334L47.3577 651.704C47.1591 651.907 46.9031 652.222 46.7889 652.405C46.1908 653.361 46.169 654.624 46.7333 655.622C47.014 656.118 48.8825 657.986 49.3787 658.267C50.3219 658.8 51.4983 658.812 52.456 658.296C52.6403 658.197 52.9898 657.929 53.2327 657.7L53.6743 657.285L54.3303 657.573C54.6912 657.731 55.1731 657.929 55.4014 658.013L55.8164 658.165L55.8164 658.742C55.8164 659.705 56.1114 660.45 56.7372 661.067C57.5359 661.855 58.0432 662 60 662C61.9526 662 62.4862 661.849 63.2592 661.076C63.8907 660.444 64.1836 659.705 64.1836 658.742V658.165L64.5986 658.013C64.8269 657.929 65.3088 657.731 65.6697 657.573L66.3257 657.285L66.7673 657.7C67.0102 657.929 67.3597 658.197 67.544 658.296C68.4802 658.8 69.6439 658.8 70.5868 658.296C71.0321 658.058 72.9734 656.12 73.2619 655.625C73.7999 654.703 73.813 653.505 73.2957 652.544C73.1964 652.36 72.9285 652.011 72.7002 651.768L72.2852 651.326L72.5728 650.67C72.7309 650.309 72.9288 649.827 73.0125 649.599L73.1646 649.184L73.7376 649.183C74.7213 649.182 75.4412 648.898 76.067 648.263C76.855 647.465 77 646.957 77 645.001C77 643.044 76.855 642.537 76.067 641.738C75.4412 641.104 74.7213 640.819 73.7376 640.818L73.1646 640.817L73.0125 640.402C72.9288 640.174 72.7309 639.692 72.5728 639.331L72.2852 638.675L72.7002 638.234C72.9285 637.991 73.1964 637.641 73.2957 637.457C73.8112 636.5 73.8003 635.325 73.2672 634.38C72.9905 633.89 71.0492 631.953 70.5868 631.705C69.5881 631.172 68.34 631.205 67.4043 631.79C67.2217 631.904 66.9061 632.16 66.7031 632.359L66.3339 632.72L65.8398 632.496C65.568 632.373 65.0843 632.174 64.7646 632.054L64.1836 631.835V631.259C64.1836 630.297 63.8905 629.557 63.2592 628.926C62.8419 628.509 62.3904 628.251 61.8134 628.101C61.2864 627.963 58.6644 627.968 58.1476 628.107ZM61.5737 630.133C61.7654 630.226 61.9163 630.366 62.0263 630.554C62.1811 630.818 62.1914 630.894 62.1914 631.774C62.1914 632.82 62.2741 633.159 62.5808 633.369C62.6771 633.435 63.1443 633.616 63.6191 633.771C64.0939 633.927 64.9008 634.261 65.4121 634.514C65.9234 634.767 66.41 634.974 66.4933 634.974C66.8112 634.974 67.1492 634.751 67.7969 634.114C68.4869 633.436 68.6798 633.314 69.0645 633.314C69.4659 633.314 69.6496 633.441 70.582 634.363C71.5227 635.293 71.6875 635.527 71.6875 635.93C71.6875 636.322 71.5684 636.512 70.8874 637.204C70.2472 637.855 70.0273 638.19 70.0273 638.513C70.0273 638.6 70.2355 639.09 70.49 639.604C70.7444 640.117 71.0786 640.921 71.2325 641.391C71.3865 641.861 71.5664 642.324 71.6324 642.42C71.8422 642.727 72.1812 642.809 73.2269 642.809C74.1074 642.809 74.1836 642.82 74.4477 642.975C74.9456 643.266 75.0078 643.491 75.0078 645.001C75.0078 646.51 74.9456 646.735 74.4477 647.027C74.1836 647.182 74.1074 647.192 73.2269 647.192C72.1812 647.192 71.8422 647.275 71.6324 647.581C71.5664 647.678 71.3865 648.141 71.2325 648.611C71.0786 649.08 70.7444 649.885 70.49 650.398C70.2355 650.911 70.0273 651.402 70.0273 651.488C70.0273 651.812 70.2472 652.146 70.8874 652.797C71.5657 653.487 71.6875 653.68 71.6875 654.065C71.6875 654.463 71.5609 654.646 70.6425 655.572C69.7024 656.521 69.4682 656.688 69.0753 656.688C68.6788 656.688 68.4912 656.57 67.7969 655.888C67.1423 655.244 66.8113 655.028 66.482 655.028C66.3924 655.028 65.9058 655.235 65.4008 655.488C64.8957 655.741 64.0939 656.075 63.6191 656.23C63.1443 656.386 62.6771 656.567 62.5808 656.633C62.2741 656.842 62.1914 657.181 62.1914 658.227C62.1914 659.108 62.1811 659.184 62.0263 659.448C61.7346 659.946 61.5094 660.008 60 660.008C58.4906 660.008 58.2654 659.946 57.9737 659.448C57.8189 659.184 57.8086 659.108 57.8086 658.227C57.8086 657.181 57.7258 656.842 57.4192 656.633C57.3229 656.567 56.8557 656.385 56.3809 656.228C55.9061 656.071 55.1017 655.737 54.5935 655.485C54.0852 655.233 53.5986 655.028 53.5122 655.028C53.1889 655.028 52.8543 655.248 52.2031 655.888C51.5105 656.569 51.3208 656.688 50.9291 656.688C50.5256 656.688 50.2921 656.523 49.3617 655.582C48.4395 654.65 48.3125 654.466 48.3125 654.065C48.3125 653.68 48.4343 653.487 49.1126 652.797C49.7528 652.146 49.9727 651.812 49.9727 651.488C49.9727 651.402 49.7645 650.911 49.51 650.398C49.2556 649.885 48.9214 649.08 48.7674 648.611C48.6135 648.141 48.4336 647.678 48.3676 647.581C48.1578 647.275 47.8188 647.192 46.7731 647.192C45.8926 647.192 45.8164 647.182 45.5523 647.027C45.0544 646.735 44.9922 646.51 44.9922 645.001C44.9922 643.491 45.0544 643.266 45.5523 642.975C45.8164 642.82 45.8926 642.809 46.7731 642.809C47.8188 642.809 48.1578 642.727 48.3676 642.42C48.4336 642.324 48.6147 641.857 48.7702 641.382C48.9256 640.907 49.2598 640.103 49.5127 639.594C49.7657 639.086 49.9727 638.6 49.9727 638.513C49.9727 638.19 49.7527 637.855 49.1126 637.204C48.4316 636.512 48.3125 636.322 48.3125 635.93C48.3125 635.527 48.4773 635.293 49.418 634.363C50.3504 633.441 50.5341 633.314 50.9355 633.314C51.3202 633.314 51.5131 633.436 52.2031 634.114C52.8543 634.754 53.1889 634.974 53.5122 634.974C53.5986 634.974 54.0893 634.766 54.6026 634.511C55.116 634.257 55.9203 633.923 56.39 633.769C56.8598 633.615 57.3229 633.435 57.4192 633.369C57.7259 633.159 57.8086 632.82 57.8086 631.774C57.8086 630.895 57.8191 630.817 57.9728 630.555C58.08 630.372 58.2358 630.226 58.4211 630.134C58.6808 630.006 58.815 629.994 59.9956 629.994C61.1703 629.994 61.3121 630.006 61.5737 630.133ZM58.5059 637.761C55.7404 638.36 53.5806 640.407 52.8437 643.128C52.6847 643.715 52.6691 643.882 52.6691 645.001C52.6691 646.119 52.6847 646.287 52.8437 646.874C53.5393 649.442 55.5584 651.461 58.1269 652.157C58.7138 652.316 58.8813 652.331 60 652.331C61.1187 652.331 61.2862 652.316 61.8731 652.157C64.4436 651.461 66.4602 649.444 67.1563 646.874C67.3153 646.287 67.3309 646.119 67.3309 645.001C67.3309 643.882 67.3153 643.715 67.1563 643.128C66.4601 640.557 64.4294 638.523 61.8911 637.854C60.9721 637.611 59.3968 637.568 58.5059 637.761ZM61.2435 639.754C63.6998 640.343 65.378 642.472 65.378 645.001C65.378 648.015 63.0139 650.378 60 650.378C58.5153 650.378 57.2414 649.854 56.1877 648.81C54.3895 647.026 54.0922 644.179 55.4828 642.057C56.2474 640.89 57.5017 640.016 58.8328 639.724C59.463 639.586 60.6003 639.6 61.2435 639.754Z" fill="#4B267E"/>
<path d="M29.3654 1081.1C30.8174 1081.1 32.0274 1081.58 32.9954 1082.55C33.9781 1083.52 34.4694 1084.72 34.4694 1086.16C34.4694 1087.58 33.9781 1088.79 32.9954 1089.77C32.0274 1090.74 30.8174 1091.22 29.3654 1091.22L26.2194 1091.22L26.2194 1096.5L23.6894 1096.5L23.6894 1081.1L29.3654 1081.1ZM29.3654 1088.84C30.1134 1088.84 30.7294 1088.59 31.2134 1088.1C31.6974 1087.58 31.9394 1086.94 31.9394 1086.16C31.9394 1085.38 31.6974 1084.74 31.2134 1084.25C30.7294 1083.73 30.1134 1083.48 29.3654 1083.48L26.2194 1083.48L26.2194 1088.84L29.3654 1088.84ZM44.4505 1085.5L46.8265 1085.5L46.8265 1096.5L44.4505 1096.5L44.4505 1094.92C43.5559 1096.16 42.2725 1096.79 40.6005 1096.79C39.0899 1096.79 37.7992 1096.23 36.7285 1095.11C35.6579 1093.98 35.1225 1092.61 35.1225 1091C35.1225 1089.37 35.6579 1088 36.7285 1086.89C37.7992 1085.77 39.0899 1085.21 40.6005 1085.21C42.2725 1085.21 43.5559 1085.83 44.4505 1087.06L44.4505 1085.5ZM38.4885 1093.53C39.1485 1094.19 39.9772 1094.52 40.9745 1094.52C41.9719 1094.52 42.8005 1094.19 43.4605 1093.53C44.1205 1092.86 44.4505 1092.01 44.4505 1091C44.4505 1089.99 44.1205 1089.15 43.4605 1088.49C42.8005 1087.82 41.9719 1087.48 40.9745 1087.48C39.9772 1087.48 39.1485 1087.82 38.4885 1088.49C37.8285 1089.15 37.4985 1089.99 37.4985 1091C37.4985 1092.01 37.8285 1092.86 38.4885 1093.53ZM54.7 1096.79C53.0133 1096.79 51.6346 1096.24 50.564 1095.16C49.508 1094.06 48.98 1092.66 48.98 1090.96C48.98 1089.09 49.2586 1087.66 49.816 1086.64C50.3733 1085.62 51.5026 1084.69 53.204 1083.85C53.4826 1083.72 53.8933 1083.53 54.436 1083.28C54.9933 1083.03 55.3746 1082.85 55.58 1082.75C55.7853 1082.63 56.042 1082.47 56.35 1082.27C56.658 1082.05 56.8853 1081.82 57.032 1081.58C57.1786 1081.33 57.296 1081.04 57.384 1080.7L59.32 1081.83C59.2613 1082.15 59.166 1082.45 59.034 1082.73C58.902 1082.99 58.7113 1083.24 58.462 1083.48C58.2126 1083.71 57.9926 1083.9 57.802 1084.05C57.626 1084.19 57.3253 1084.37 56.9 1084.58C56.4746 1084.78 56.1593 1084.93 55.954 1085.02C55.7633 1085.1 55.3966 1085.26 54.854 1085.48C53.886 1085.86 53.1746 1086.26 52.72 1086.67C52.28 1087.06 51.972 1087.56 51.796 1088.16C52.676 1087.16 53.8713 1086.67 55.382 1086.67C56.6726 1086.67 57.7946 1087.13 58.748 1088.05C59.716 1088.98 60.2 1090.17 60.2 1091.64C60.2 1093.13 59.6866 1094.37 58.66 1095.33C57.648 1096.3 56.328 1096.79 54.7 1096.79ZM54.678 1094.56C55.602 1094.56 56.3573 1094.29 56.944 1093.75C57.5306 1093.19 57.824 1092.49 57.824 1091.64C57.824 1090.77 57.5306 1090.06 56.944 1089.5C56.372 1088.95 55.624 1088.67 54.7 1088.67C53.8786 1088.67 53.138 1088.93 52.478 1089.46C51.818 1089.97 51.488 1090.66 51.488 1091.53C51.488 1092.41 51.796 1093.13 52.412 1093.71C53.028 1094.28 53.7833 1094.56 54.678 1094.56ZM67.2704 1096.79C65.657 1096.79 64.2857 1096.23 63.1564 1095.11C62.027 1094 61.4624 1092.63 61.4624 1091C61.4624 1089.37 62.027 1088 63.1564 1086.89C64.2857 1085.77 65.657 1085.21 67.2704 1085.21C68.8984 1085.21 70.2697 1085.77 71.3844 1086.89C72.5137 1088 73.0784 1089.37 73.0784 1091C73.0784 1092.63 72.5137 1094 71.3844 1095.11C70.2697 1096.23 68.8984 1096.79 67.2704 1096.79ZM64.8284 1093.49C65.4884 1094.15 66.3024 1094.48 67.2704 1094.48C68.2384 1094.48 69.0524 1094.15 69.7124 1093.49C70.3724 1092.83 70.7024 1092 70.7024 1091C70.7024 1090 70.3724 1089.17 69.7124 1088.51C69.0524 1087.85 68.2384 1087.52 67.2704 1087.52C66.3024 1087.52 65.4884 1087.85 64.8284 1088.51C64.1684 1089.17 63.8384 1090 63.8384 1091C63.8384 1092 64.1684 1092.83 64.8284 1093.49ZM83.2011 1085.5L83.2011 1087.79L79.6151 1087.79L79.6151 1096.5L77.2391 1096.5L77.2391 1087.79L73.6311 1087.79L73.6311 1085.5L83.2011 1085.5ZM93.0912 1085.5L95.4672 1085.5L95.4672 1096.5L93.0912 1096.5L93.0912 1094.92C92.1965 1096.16 90.9132 1096.79 89.2412 1096.79C87.7305 1096.79 86.4398 1096.23 85.3692 1095.11C84.2985 1093.98 83.7632 1092.61 83.7632 1091C83.7632 1089.37 84.2985 1088 85.3692 1086.89C86.4398 1085.77 87.7305 1085.21 89.2412 1085.21C90.9132 1085.21 92.1965 1085.83 93.0912 1087.06L93.0912 1085.5ZM87.1292 1093.53C87.7892 1094.19 88.6178 1094.52 89.6152 1094.52C90.6125 1094.52 91.4412 1094.19 92.1012 1093.53C92.7612 1092.86 93.0912 1092.01 93.0912 1091C93.0912 1089.99 92.7612 1089.15 92.1012 1088.49C91.4412 1087.82 90.6125 1087.48 89.6152 1087.48C88.6178 1087.48 87.7892 1087.82 87.1292 1088.49C86.4692 1089.15 86.1392 1089.99 86.1392 1091C86.1392 1092.01 86.4692 1092.86 87.1292 1093.53Z" fill="black"/>
<rect x="29" y="997.5" width="62" height="62" rx="6" fill="#E0D8FF"/>
<g clip-path="url(#clip1_5_467)">
<path d="M65.1065 1044.63C62.9798 1047 61.6444 1047.05 59.1714 1045.13C57.935 1045.4 56.8716 1045.88 55.8577 1045.8C54.5965 1045.73 53.7804 1044.82 53.3106 1043.62C53.1869 1043.28 52.7912 1042.87 52.4697 1042.83C51.2827 1042.66 50.5656 1042.01 49.9473 1041.1C49.7248 1040.76 49.2796 1040.45 48.884 1040.38C47.3013 1040.09 46.2626 1039.13 45.9659 1037.54C45.8917 1037.23 45.7928 1036.82 45.5455 1036.63C42.9489 1034.76 42.751 1033.58 44.8531 1030.94C42.8252 1029.02 40.7727 1027.07 38.7201 1025.13C37.9783 1024.43 37.2611 1023.71 36.5439 1022.99C35.9999 1022.46 35.901 1021.88 36.4945 1021.33C39.6104 1018.33 42.751 1015.33 45.8917 1012.33C46.4605 1011.8 47.054 1011.85 47.6228 1012.4C48.6367 1013.41 49.6011 1014.44 50.6892 1015.35C51.1096 1015.71 51.8268 1015.95 52.3708 1015.9C56.8221 1015.52 61.1745 1015.88 65.2549 1017.75C65.8979 1018.07 66.2194 1017.83 66.615 1017.44C68.6181 1015.42 70.6212 1013.41 72.6243 1011.41C73.8608 1010.19 74.0339 1010.19 75.2704 1011.39C77.8917 1013.93 80.513 1016.48 83.1344 1019.03C84.3461 1020.2 84.3461 1020.47 83.1344 1021.64C79.8453 1024.86 76.5316 1028.08 73.1189 1031.39C73.8608 1032.14 74.5532 1032.84 75.2456 1033.56C76.952 1035.31 76.8531 1036.99 74.9983 1038.62C74.7263 1038.86 74.5779 1039.34 74.6027 1039.7C74.7263 1041.91 73.7619 1043.04 71.4867 1043.33C71.2395 1043.35 70.918 1043.45 70.7696 1043.64C68.7665 1046.14 67.7279 1046.33 65.1065 1044.63ZM46.9551 1014.17C44.0617 1017.03 41.3662 1019.7 38.7943 1022.27C41.2178 1024.65 43.7155 1027.12 46.2626 1029.62C46.3863 1029.54 46.5099 1029.45 46.6336 1029.35C48.9582 1027.36 50.615 1027.58 52.2966 1030.07C52.445 1030.31 52.8407 1030.48 53.1622 1030.53C54.8685 1030.79 55.8824 1031.75 56.1544 1033.41C56.2039 1033.72 56.377 1034.13 56.6243 1034.25C58.1328 1035.02 58.8747 1036.2 58.7016 1037.9C59.5918 1038.26 60.4079 1038.6 61.2487 1038.91C61.7186 1039.08 62.3121 1039.08 62.6583 1039.39C64.0184 1040.62 65.3044 1041.91 66.5903 1043.21C67.2085 1043.83 67.901 1044.15 68.6181 1043.45C69.3106 1042.78 68.9149 1042.13 68.3461 1041.58C67.3075 1040.54 66.2688 1039.51 65.2302 1038.5C64.7603 1038.02 64.3894 1037.42 65.0323 1036.99C65.3786 1036.77 66.2441 1036.92 66.615 1037.21C67.9752 1038.36 69.1869 1039.68 70.5223 1040.86C70.8685 1041.17 71.5609 1041.38 72.0061 1041.29C72.8716 1041.1 72.9705 1039.99 72.2286 1039.22C71.2642 1038.24 70.1761 1037.35 69.2858 1036.32C68.9891 1035.96 68.7912 1035.14 69.0138 1034.8C69.4095 1034.18 70.0524 1034.4 70.5718 1034.9C71.1158 1035.45 71.7093 1035.96 72.2534 1036.49C72.8221 1037.06 73.4898 1037.4 74.1823 1036.77C74.8747 1036.15 74.5779 1035.45 74.0092 1034.88C70.1761 1031.15 66.3183 1027.43 62.4852 1023.69C62.0153 1023.23 61.6444 1023.23 61.1004 1023.54C59.8391 1024.24 58.5532 1024.86 57.2673 1025.51C55.2889 1026.49 53.36 1026.04 52.3461 1024.33C51.3322 1022.63 51.9257 1020.83 53.8546 1019.63C54.7696 1019.07 55.6599 1018.47 56.5501 1017.9C56.5007 1017.78 56.4512 1017.63 56.4017 1017.51C54.9427 1017.66 53.4837 1017.75 52.0493 1017.97C51.258 1018.09 50.6398 1017.99 50.071 1017.37C49.0076 1016.26 47.9442 1015.21 46.9551 1014.17ZM71.4867 1029.88C74.9241 1026.59 78.2626 1023.42 81.4527 1020.35C78.9798 1017.92 76.4821 1015.45 73.935 1012.95C73.7371 1013.12 73.5146 1013.29 73.3167 1013.48C71.3136 1015.47 69.2611 1017.46 67.3075 1019.51C66.5408 1020.3 65.8731 1020.39 64.9582 1019.79C64.241 1019.34 63.4249 1019.03 62.6336 1018.71C60.8778 1018.07 59.2209 1018.04 57.6877 1019.34C56.7974 1020.08 55.7588 1020.71 54.7449 1021.31C53.8546 1021.84 53.5331 1022.53 53.9783 1023.42C54.4728 1024.36 55.3384 1024.33 56.2039 1023.9C57.7124 1023.16 59.2951 1022.53 60.6552 1021.6C61.8422 1020.8 62.5099 1021.09 63.3755 1021.96C66.071 1024.65 68.8407 1027.31 71.4867 1029.88ZM54.3739 1033.6C54.0277 1033.22 53.7804 1032.72 53.4095 1032.57C53.0385 1032.45 52.3956 1032.57 52.0988 1032.84C50.8376 1033.96 49.6506 1035.19 48.4141 1036.39C47.8206 1036.97 47.7217 1037.59 48.3399 1038.17C48.9829 1038.74 49.6011 1038.55 50.1699 1037.97C51.3322 1036.85 52.4945 1035.72 53.6568 1034.56C53.9041 1034.32 54.0772 1034.01 54.3739 1033.6ZM56.7232 1036.94C56.5501 1036.75 56.3276 1036.32 55.9813 1036.15C55.6846 1036.01 55.0911 1036.05 54.8685 1036.27C53.8051 1037.21 52.7912 1038.17 51.8515 1039.22C51.258 1039.9 51.8515 1040.88 52.7665 1040.93C53.5578 1040.98 56.7727 1037.93 56.7232 1036.94ZM50.5161 1030.91C50.343 1030.72 50.1204 1030.22 49.7742 1030.12C49.3786 1030 48.7603 1030.1 48.4388 1030.34C47.4744 1031.13 46.5841 1032.02 45.7433 1032.96C45.496 1033.22 45.3971 1033.82 45.5208 1034.13C45.6691 1034.47 46.139 1034.78 46.5347 1034.88C47.1776 1035.04 50.5408 1031.8 50.5161 1030.91ZM59.5918 1040.9C59.2951 1040.59 59.0725 1040.11 58.7263 1040.02C58.3306 1039.9 57.7124 1039.99 57.3909 1040.23C56.7232 1040.74 56.0555 1041.31 55.5857 1042.01C55.3384 1042.39 55.3136 1043.23 55.5857 1043.55C55.833 1043.83 56.7727 1043.88 57.1436 1043.64C57.9102 1043.14 58.5285 1042.42 59.1714 1041.75C59.3446 1041.55 59.4187 1041.26 59.5918 1040.9ZM61.7433 1041C61.2982 1041.82 61.0014 1042.37 60.7294 1042.95C60.6305 1043.14 60.4574 1043.5 60.5316 1043.57C60.9272 1043.93 61.3724 1044.41 61.867 1044.48C62.2626 1044.53 62.9303 1044.17 63.1282 1043.81C63.326 1043.47 63.1529 1042.83 62.9303 1042.42C62.6583 1041.91 62.1637 1041.5 61.7433 1041Z" fill="#4B267E"/>
</g>
<path d="M239.254 231.326C237.994 232.586 236.452 233.216 234.628 233.216C232.804 233.216 231.262 232.586 230.002 231.326C228.742 230.054 228.112 228.512 228.112 226.7C228.112 224.888 228.742 223.352 230.002 222.092C231.262 220.82 232.804 220.184 234.628 220.184C236.452 220.184 237.994 220.82 239.254 222.092C240.514 223.352 241.144 224.888 241.144 226.7C241.144 228.512 240.514 230.054 239.254 231.326ZM230.884 230.462C231.892 231.482 233.14 231.992 234.628 231.992C236.116 231.992 237.364 231.482 238.372 230.462C239.38 229.43 239.884 228.176 239.884 226.7C239.884 225.224 239.38 223.976 238.372 222.956C237.364 221.924 236.116 221.408 234.628 221.408C233.14 221.408 231.892 221.924 230.884 222.956C229.876 223.976 229.372 225.224 229.372 226.7C229.372 228.176 229.876 229.43 230.884 230.462ZM247.114 233.216C245.818 233.216 244.738 232.79 243.874 231.938C243.01 231.074 242.578 229.958 242.578 228.59C242.578 227.054 242.806 225.878 243.262 225.062C243.718 224.234 244.642 223.484 246.034 222.812C246.298 222.68 246.646 222.524 247.078 222.344C247.522 222.164 247.852 222.02 248.068 221.912C248.296 221.804 248.542 221.666 248.806 221.498C249.07 221.318 249.268 221.12 249.4 220.904C249.532 220.688 249.616 220.43 249.652 220.13L250.588 220.67C250.54 220.958 250.444 221.228 250.3 221.48C250.156 221.732 250.006 221.936 249.85 222.092C249.706 222.248 249.472 222.422 249.148 222.614C248.836 222.794 248.59 222.926 248.41 223.01C248.242 223.082 247.942 223.208 247.51 223.388C247.09 223.568 246.808 223.688 246.664 223.748C245.824 224.108 245.206 224.486 244.81 224.882C244.414 225.266 244.132 225.77 243.964 226.394C244.372 225.854 244.888 225.458 245.512 225.206C246.148 224.942 246.766 224.81 247.366 224.81C248.566 224.81 249.556 225.206 250.336 225.998C251.128 226.778 251.524 227.78 251.524 229.004C251.524 230.216 251.104 231.224 250.264 232.028C249.436 232.82 248.386 233.216 247.114 233.216ZM247.114 232.028C248.05 232.028 248.818 231.746 249.418 231.182C250.03 230.606 250.336 229.88 250.336 229.004C250.336 228.116 250.048 227.39 249.472 226.826C248.908 226.25 248.152 225.962 247.204 225.962C246.352 225.962 245.578 226.232 244.882 226.772C244.186 227.3 243.838 228.008 243.838 228.896C243.838 229.808 244.15 230.558 244.774 231.146C245.41 231.734 246.19 232.028 247.114 232.028ZM259.46 224H260.72L256.868 233.828C256.52 234.716 256.022 235.412 255.374 235.916C254.738 236.432 254.024 236.66 253.232 236.6V235.484C254.312 235.604 255.134 234.98 255.698 233.612L255.932 233.054L251.9 224H253.16L256.544 231.542L259.46 224ZM267.988 224H269.176V233H267.988V229.58C267.292 229.94 266.434 230.12 265.414 230.12C264.238 230.12 263.338 229.85 262.714 229.31C262.102 228.758 261.796 227.948 261.796 226.88V224H262.984V226.88C262.984 227.636 263.182 228.182 263.578 228.518C263.974 228.842 264.574 229.004 265.378 229.004C266.314 229.004 267.184 228.83 267.988 228.482V224ZM275.858 223.784C277.19 223.784 278.264 224.258 279.08 225.206C279.908 226.142 280.322 227.252 280.322 228.536C280.322 228.668 280.31 228.854 280.286 229.094H272.384C272.504 230.006 272.888 230.732 273.536 231.272C274.196 231.8 275.006 232.064 275.966 232.064C276.65 232.064 277.238 231.926 277.73 231.65C278.234 231.362 278.612 230.99 278.864 230.534L279.908 231.146C279.512 231.782 278.972 232.286 278.288 232.658C277.604 233.03 276.824 233.216 275.948 233.216C274.532 233.216 273.38 232.772 272.492 231.884C271.604 230.996 271.16 229.868 271.16 228.5C271.16 227.156 271.598 226.034 272.474 225.134C273.35 224.234 274.478 223.784 275.858 223.784ZM275.858 224.936C274.922 224.936 274.136 225.218 273.5 225.782C272.876 226.334 272.504 227.054 272.384 227.942H279.098C278.978 226.994 278.612 226.256 278 225.728C277.388 225.2 276.674 224.936 275.858 224.936ZM288.584 224H289.772V233H288.584V229.076H283.4V233H282.212V224H283.4V227.924H288.584V224ZM298.836 224H299.844V233H298.656V226.07L293.292 233H292.284V224H293.472V230.93L298.836 224ZM306.515 223.784C307.847 223.784 308.921 224.258 309.737 225.206C310.565 226.142 310.979 227.252 310.979 228.536C310.979 228.668 310.967 228.854 310.943 229.094H303.041C303.161 230.006 303.545 230.732 304.193 231.272C304.853 231.8 305.663 232.064 306.623 232.064C307.307 232.064 307.895 231.926 308.387 231.65C308.891 231.362 309.269 230.99 309.521 230.534L310.565 231.146C310.169 231.782 309.629 232.286 308.945 232.658C308.261 233.03 307.481 233.216 306.605 233.216C305.189 233.216 304.037 232.772 303.149 231.884C302.261 230.996 301.817 229.868 301.817 228.5C301.817 227.156 302.255 226.034 303.131 225.134C304.007 224.234 305.135 223.784 306.515 223.784ZM306.515 224.936C305.579 224.936 304.793 225.218 304.157 225.782C303.533 226.334 303.161 227.054 303.041 227.942H309.755C309.635 226.994 309.269 226.256 308.657 225.728C308.045 225.2 307.331 224.936 306.515 224.936ZM232.056 247.9C233.292 247.9 234.306 248.29 235.098 249.07C235.89 249.838 236.286 250.834 236.286 252.058C236.286 253.282 235.89 254.284 235.098 255.064C234.306 255.832 233.292 256.216 232.056 256.216C230.82 256.216 229.806 255.832 229.014 255.064C228.222 254.284 227.826 253.282 227.826 252.058C227.826 251.11 228.084 250.27 228.6 249.538L232.722 243.4H234.144L231.048 248.008C231.372 247.936 231.708 247.9 232.056 247.9ZM229.896 254.182C230.448 254.722 231.168 254.992 232.056 254.992C232.944 254.992 233.658 254.722 234.198 254.182C234.75 253.642 235.026 252.934 235.026 252.058C235.026 251.182 234.75 250.474 234.198 249.934C233.658 249.394 232.944 249.124 232.056 249.124C231.168 249.124 230.448 249.394 229.896 249.934C229.356 250.474 229.086 251.182 229.086 252.058C229.086 252.934 229.356 253.642 229.896 254.182ZM251.411 247V256H250.223V248.818L247.073 253.93H246.929L243.779 248.818V256H242.591V247H243.959L247.001 251.932L250.043 247H251.411ZM258.087 246.784C259.419 246.784 260.493 247.258 261.309 248.206C262.137 249.142 262.551 250.252 262.551 251.536C262.551 251.668 262.539 251.854 262.515 252.094H254.613C254.733 253.006 255.117 253.732 255.765 254.272C256.425 254.8 257.235 255.064 258.195 255.064C258.879 255.064 259.467 254.926 259.959 254.65C260.463 254.362 260.841 253.99 261.093 253.534L262.137 254.146C261.741 254.782 261.201 255.286 260.517 255.658C259.833 256.03 259.053 256.216 258.177 256.216C256.761 256.216 255.609 255.772 254.721 254.884C253.833 253.996 253.389 252.868 253.389 251.5C253.389 250.156 253.827 249.034 254.703 248.134C255.579 247.234 256.707 246.784 258.087 246.784ZM258.087 247.936C257.151 247.936 256.365 248.218 255.729 248.782C255.105 249.334 254.733 250.054 254.613 250.942H261.327C261.207 249.994 260.841 249.256 260.229 248.728C259.617 248.2 258.903 247.936 258.087 247.936ZM268.635 256.216C267.279 256.216 266.151 255.766 265.251 254.866C264.351 253.954 263.901 252.832 263.901 251.5C263.901 250.168 264.351 249.052 265.251 248.152C266.151 247.24 267.279 246.784 268.635 246.784C269.523 246.784 270.321 247 271.029 247.432C271.737 247.852 272.253 248.422 272.577 249.142L271.605 249.7C271.365 249.16 270.975 248.734 270.435 248.422C269.907 248.098 269.307 247.936 268.635 247.936C267.639 247.936 266.799 248.284 266.115 248.98C265.431 249.664 265.089 250.504 265.089 251.5C265.089 252.496 265.431 253.342 266.115 254.038C266.799 254.722 267.639 255.064 268.635 255.064C269.307 255.064 269.907 254.908 270.435 254.596C270.963 254.272 271.377 253.84 271.677 253.3L272.667 253.876C272.295 254.596 271.749 255.166 271.029 255.586C270.309 256.006 269.511 256.216 268.635 256.216ZM280.677 247V256H279.489V252.544H277.941L275.169 256H273.657L276.501 252.508C275.781 252.4 275.187 252.1 274.719 251.608C274.251 251.116 274.017 250.51 274.017 249.79C274.017 248.974 274.305 248.308 274.881 247.792C275.469 247.264 276.183 247 277.023 247H280.677ZM277.023 251.428H279.489V248.152H277.023C276.519 248.152 276.087 248.302 275.727 248.602C275.379 248.902 275.205 249.298 275.205 249.79C275.205 250.282 275.379 250.678 275.727 250.978C276.087 251.278 276.519 251.428 277.023 251.428ZM290.577 254.848H292.017V258.412H290.829V256H283.197V247H284.385V254.848H289.389V247H290.577V254.848ZM297.62 246.784C298.952 246.784 300.026 247.258 300.842 248.206C301.67 249.142 302.084 250.252 302.084 251.536C302.084 251.668 302.072 251.854 302.048 252.094H294.146C294.266 253.006 294.65 253.732 295.298 254.272C295.958 254.8 296.768 255.064 297.728 255.064C298.412 255.064 299 254.926 299.492 254.65C299.996 254.362 300.374 253.99 300.626 253.534L301.67 254.146C301.274 254.782 300.734 255.286 300.05 255.658C299.366 256.03 298.586 256.216 297.71 256.216C296.294 256.216 295.142 255.772 294.254 254.884C293.366 253.996 292.922 252.868 292.922 251.5C292.922 250.156 293.36 249.034 294.236 248.134C295.112 247.234 296.24 246.784 297.62 246.784ZM297.62 247.936C296.684 247.936 295.898 248.218 295.262 248.782C294.638 249.334 294.266 250.054 294.146 250.942H300.86C300.74 249.994 300.374 249.256 299.762 248.728C299.15 248.2 298.436 247.936 297.62 247.936ZM309.698 251.374C310.682 251.734 311.174 252.436 311.174 253.48C311.174 254.212 310.928 254.818 310.436 255.298C309.956 255.766 309.26 256 308.348 256H303.974V247H307.988C308.864 247 309.542 247.228 310.022 247.684C310.502 248.128 310.742 248.704 310.742 249.412C310.742 250.312 310.394 250.966 309.698 251.374ZM307.988 248.152H305.162V250.888H307.988C309.032 250.888 309.554 250.42 309.554 249.484C309.554 249.064 309.416 248.74 309.14 248.512C308.876 248.272 308.492 248.152 307.988 248.152ZM308.348 254.848C308.876 254.848 309.278 254.722 309.554 254.47C309.842 254.218 309.986 253.864 309.986 253.408C309.986 252.988 309.842 252.658 309.554 252.418C309.278 252.166 308.876 252.04 308.348 252.04H305.162V254.848H308.348Z" fill="black"/>
<path d="M234.887 718.4V731H233.627V719.588H227.147V731H225.887V718.4H234.887ZM242.414 721.784C243.698 721.784 244.79 722.24 245.69 723.152C246.602 724.064 247.058 725.18 247.058 726.5C247.058 727.82 246.602 728.936 245.69 729.848C244.79 730.76 243.698 731.216 242.414 731.216C240.818 731.216 239.606 730.556 238.778 729.236V734.6H237.59V722H238.778V723.764C239.606 722.444 240.818 721.784 242.414 721.784ZM239.804 729.038C240.488 729.722 241.328 730.064 242.324 730.064C243.32 730.064 244.16 729.722 244.844 729.038C245.528 728.342 245.87 727.496 245.87 726.5C245.87 725.504 245.528 724.664 244.844 723.98C244.16 723.284 243.32 722.936 242.324 722.936C241.328 722.936 240.488 723.284 239.804 723.98C239.12 724.664 238.778 725.504 238.778 726.5C238.778 727.496 239.12 728.342 239.804 729.038ZM256.773 722H257.961V731H256.773V729.236C255.945 730.556 254.733 731.216 253.137 731.216C251.853 731.216 250.755 730.76 249.843 729.848C248.943 728.936 248.493 727.82 248.493 726.5C248.493 725.18 248.943 724.064 249.843 723.152C250.755 722.24 251.853 721.784 253.137 721.784C254.733 721.784 255.945 722.444 256.773 723.764V722ZM250.707 729.038C251.391 729.722 252.231 730.064 253.227 730.064C254.223 730.064 255.063 729.722 255.747 729.038C256.431 728.342 256.773 727.496 256.773 726.5C256.773 725.504 256.431 724.664 255.747 723.98C255.063 723.284 254.223 722.936 253.227 722.936C252.231 722.936 251.391 723.284 250.707 723.98C250.023 724.664 249.681 725.504 249.681 726.5C249.681 727.496 250.023 728.342 250.707 729.038ZM267.749 731H266.165L261.665 726.662V731H260.477V722H261.665V725.978L265.949 722H267.569L262.925 726.32L267.749 731ZM275.851 722V723.152H272.665V731H271.477V723.152H268.291V722H275.851ZM283.851 722H284.859V731H283.671V724.07L278.307 731H277.299V722H278.487V728.93L283.851 722ZM294.643 731H293.059L288.559 726.662V731H287.371V722H288.559V725.978L292.843 722H294.463L289.819 726.32L294.643 731ZM303.109 722H304.297V731H303.109V729.236C302.281 730.556 301.069 731.216 299.473 731.216C298.189 731.216 297.091 730.76 296.179 729.848C295.279 728.936 294.829 727.82 294.829 726.5C294.829 725.18 295.279 724.064 296.179 723.152C297.091 722.24 298.189 721.784 299.473 721.784C301.069 721.784 302.281 722.444 303.109 723.764V722ZM297.043 729.038C297.727 729.722 298.567 730.064 299.563 730.064C300.559 730.064 301.399 729.722 302.083 729.038C302.767 728.342 303.109 727.496 303.109 726.5C303.109 725.504 302.767 724.664 302.083 723.98C301.399 723.284 300.559 722.936 299.563 722.936C298.567 722.936 297.727 723.284 297.043 723.98C296.359 724.664 296.017 725.504 296.017 726.5C296.017 727.496 296.359 728.342 297.043 729.038ZM227.584 754V752.866L232.12 748.294C233.416 746.998 234.064 745.888 234.064 744.964C234.064 744.16 233.812 743.536 233.308 743.092C232.816 742.636 232.222 742.408 231.526 742.408C230.23 742.408 229.288 743.002 228.7 744.19L227.638 743.56C228.034 742.78 228.574 742.192 229.258 741.796C229.942 741.388 230.698 741.184 231.526 741.184C232.534 741.184 233.416 741.526 234.172 742.21C234.94 742.882 235.324 743.8 235.324 744.964C235.324 745.696 235.12 746.398 234.712 747.07C234.304 747.742 233.728 748.45 232.984 749.194L229.384 752.776H235.594V754H227.584ZM250.901 745V754H249.713V746.818L246.563 751.93H246.419L243.269 746.818V754H242.081V745H243.449L246.491 749.932L249.533 745H250.901ZM257.577 744.784C258.909 744.784 259.983 745.258 260.799 746.206C261.627 747.142 262.041 748.252 262.041 749.536C262.041 749.668 262.029 749.854 262.005 750.094H254.103C254.223 751.006 254.607 751.732 255.255 752.272C255.915 752.8 256.725 753.064 257.685 753.064C258.369 753.064 258.957 752.926 259.449 752.65C259.953 752.362 260.331 751.99 260.583 751.534L261.627 752.146C261.231 752.782 260.691 753.286 260.007 753.658C259.323 754.03 258.543 754.216 257.667 754.216C256.251 754.216 255.099 753.772 254.211 752.884C253.323 751.996 252.879 750.868 252.879 749.5C252.879 748.156 253.317 747.034 254.193 746.134C255.069 745.234 256.197 744.784 257.577 744.784ZM257.577 745.936C256.641 745.936 255.855 746.218 255.219 746.782C254.595 747.334 254.223 748.054 254.103 748.942H260.817C260.697 747.994 260.331 747.256 259.719 746.728C259.107 746.2 258.393 745.936 257.577 745.936ZM268.125 754.216C266.769 754.216 265.641 753.766 264.741 752.866C263.841 751.954 263.391 750.832 263.391 749.5C263.391 748.168 263.841 747.052 264.741 746.152C265.641 745.24 266.769 744.784 268.125 744.784C269.013 744.784 269.811 745 270.519 745.432C271.227 745.852 271.743 746.422 272.067 747.142L271.095 747.7C270.855 747.16 270.465 746.734 269.925 746.422C269.397 746.098 268.797 745.936 268.125 745.936C267.129 745.936 266.289 746.284 265.605 746.98C264.921 747.664 264.579 748.504 264.579 749.5C264.579 750.496 264.921 751.342 265.605 752.038C266.289 752.722 267.129 753.064 268.125 753.064C268.797 753.064 269.397 752.908 269.925 752.596C270.453 752.272 270.867 751.84 271.167 751.3L272.157 751.876C271.785 752.596 271.239 753.166 270.519 753.586C269.799 754.006 269.001 754.216 268.125 754.216ZM280.167 745V754H278.979V750.544H277.431L274.659 754H273.147L275.991 750.508C275.271 750.4 274.677 750.1 274.209 749.608C273.741 749.116 273.507 748.51 273.507 747.79C273.507 746.974 273.795 746.308 274.371 745.792C274.959 745.264 275.673 745 276.513 745H280.167ZM276.513 749.428H278.979V746.152H276.513C276.009 746.152 275.577 746.302 275.217 746.602C274.869 746.902 274.695 747.298 274.695 747.79C274.695 748.282 274.869 748.678 275.217 748.978C275.577 749.278 276.009 749.428 276.513 749.428ZM290.067 752.848H291.507V756.412H290.319V754H282.687V745H283.875V752.848H288.879V745H290.067V752.848ZM300.692 745H301.88V754H300.692V752.236C299.864 753.556 298.652 754.216 297.056 754.216C295.772 754.216 294.674 753.76 293.762 752.848C292.862 751.936 292.412 750.82 292.412 749.5C292.412 748.18 292.862 747.064 293.762 746.152C294.674 745.24 295.772 744.784 297.056 744.784C298.652 744.784 299.864 745.444 300.692 746.764V745ZM294.626 752.038C295.31 752.722 296.15 753.064 297.146 753.064C298.142 753.064 298.982 752.722 299.666 752.038C300.35 751.342 300.692 750.496 300.692 749.5C300.692 748.504 300.35 747.664 299.666 746.98C298.982 746.284 298.142 745.936 297.146 745.936C296.15 745.936 295.31 746.284 294.626 746.98C293.942 747.664 293.6 748.504 293.6 749.5C293.6 750.496 293.942 751.342 294.626 752.038Z" fill="black"/>
</g>
<defs>
<clipPath id="clip0_5_467">
<rect width="306" height="1147" fill="white"/>
</clipPath>
<clipPath id="clip1_5_467">
<rect width="48" height="36" fill="white" transform="translate(36.0752 1010.5)"/>
</clipPath>
</defs>
</svg>
