<svg width="1147" height="350" viewBox="0 0 1147 350" fill="none" xmlns="http://www.w3.org/2000/svg">
<g clip-path="url(#clip0_3_236)">
<rect y="255" width="1147" height="30" fill="#FAFAFA"/>
<path fill-rule="evenodd" clip-rule="evenodd" d="M645.002 285C645.269 299.405 657.029 311 671.497 311H735.265L739.849 318.981C740.618 320.319 742.549 320.319 743.318 318.981L747.902 311H811.505C825.973 311 837.733 299.405 838 285H834.999C834.733 297.748 824.316 308 811.505 308H749.625H746.475H746.165L741.583 315.977L737.002 308H736.527H733.542H671.497C658.686 308 648.269 297.748 648.003 285H645.002Z" fill="#DCF5E3"/>
<path fill-rule="evenodd" clip-rule="evenodd" d="M45.9993 285C46.2658 299.405 58.0262 311 72.4947 311H231.964V310.742L237.759 319.485C238.55 320.678 240.302 320.678 241.093 319.485L246.888 310.742V311H407.505C421.974 311 433.734 299.405 434.001 285H431C430.734 297.748 420.317 308 407.505 308H248.705H246.888H245.106L239.426 316.57L233.746 308H231.964H230.147H72.4947C59.6831 308 49.266 297.748 48.9999 285H45.9993Z" fill="#FFD8D8"/>
<line x1="46" y1="270" x2="434" y2="270" stroke="#FFD8D8" stroke-width="30"/>
<line x1="645" y1="270" x2="838" y2="270" stroke="#DCF5E3" stroke-width="30"/>
<line y1="270.5" x2="1147" y2="270.5" stroke="#4B267E" stroke-width="3" stroke-dasharray="12 12"/>
<circle cx="47.5" cy="270.5" r="10.5" fill="#4B267E"/>
<circle cx="47.5" cy="270.5" r="7.5" fill="white"/>
<circle cx="47.5" cy="270.5" r="7.5" fill="white"/>
<circle cx="47.5" cy="270.5" r="3.5" fill="white"/>
<circle cx="47.5" cy="270.5" r="3.5" fill="#4B267E"/>
<circle cx="645.5" cy="270.5" r="10.5" fill="#4B267E"/>
<circle cx="645.5" cy="270.5" r="7.5" fill="white"/>
<circle cx="645.5" cy="270.5" r="7.5" fill="white"/>
<circle cx="645.5" cy="270.5" r="3.5" fill="white"/>
<circle cx="645.5" cy="270.5" r="3.5" fill="#4B267E"/>
<circle cx="433.5" cy="269.5" r="10.5" fill="#4B267E"/>
<circle cx="433.5" cy="269.5" r="7.5" fill="white"/>
<circle cx="433.5" cy="269.5" r="7.5" fill="white"/>
<circle cx="433.5" cy="269.5" r="3.5" fill="white"/>
<circle cx="433.5" cy="269.5" r="3.5" fill="#4B267E"/>
<circle cx="837.5" cy="269.5" r="10.5" fill="#4B267E"/>
<circle cx="837.5" cy="269.5" r="7.5" fill="white"/>
<circle cx="837.5" cy="269.5" r="7.5" fill="white"/>
<circle cx="837.5" cy="269.5" r="3.5" fill="white"/>
<circle cx="837.5" cy="269.5" r="3.5" fill="#4B267E"/>
<circle cx="1027.5" cy="269.5" r="10.5" fill="#4B267E"/>
<circle cx="1027.5" cy="269.5" r="7.5" fill="white"/>
<circle cx="1027.5" cy="269.5" r="7.5" fill="white"/>
<circle cx="1027.5" cy="269.5" r="3.5" fill="white"/>
<circle cx="1027.5" cy="269.5" r="3.5" fill="#4B267E"/>
<path d="M97.822 88.286C95.5047 88.286 93.5833 87.5233 92.058 85.998C90.5327 84.458 89.77 82.5587 89.77 80.3C89.77 78.0413 90.5327 76.1493 92.058 74.624C93.5833 73.084 95.5047 72.314 97.822 72.314C99.2153 72.314 100.499 72.644 101.672 73.304C102.86 73.964 103.784 74.8587 104.444 75.988L102.244 77.264C101.833 76.5013 101.232 75.9 100.44 75.46C99.6627 75.0053 98.79 74.778 97.822 74.778C96.1793 74.778 94.8447 75.2987 93.818 76.34C92.806 77.3813 92.3 78.7013 92.3 80.3C92.3 81.8987 92.806 83.2187 93.818 84.26C94.8447 85.3013 96.1793 85.822 97.822 85.822C98.79 85.822 99.67 85.602 100.462 85.162C101.254 84.7073 101.848 84.0987 102.244 83.336L104.444 84.59C103.799 85.7193 102.882 86.6213 101.694 87.296C100.521 87.956 99.23 88.286 97.822 88.286ZM114.903 77V79.288H111.317V88H108.941V79.288H105.333V77H114.903ZM124.793 77H127.169V88H124.793V86.416C123.899 87.6627 122.615 88.286 120.943 88.286C119.433 88.286 118.142 87.7287 117.071 86.614C116.001 85.4847 115.465 84.1133 115.465 82.5C115.465 80.872 116.001 79.5007 117.071 78.386C118.142 77.2713 119.433 76.714 120.943 76.714C122.615 76.714 123.899 77.33 124.793 78.562V77ZM118.831 85.03C119.491 85.69 120.32 86.02 121.317 86.02C122.315 86.02 123.143 85.69 123.803 85.03C124.463 84.3553 124.793 83.512 124.793 82.5C124.793 81.488 124.463 80.652 123.803 79.992C123.143 79.3173 122.315 78.98 121.317 78.98C120.32 78.98 119.491 79.3173 118.831 79.992C118.171 80.652 117.841 81.488 117.841 82.5C117.841 83.512 118.171 84.3553 118.831 85.03ZM136.165 76.714C137.675 76.714 138.966 77.2787 140.037 78.408C141.107 79.5227 141.643 80.8867 141.643 82.5C141.643 84.128 141.107 85.4993 140.037 86.614C138.966 87.7287 137.675 88.286 136.165 88.286C134.493 88.286 133.209 87.67 132.315 86.438V92.4H129.939V77H132.315V78.584C133.209 77.3373 134.493 76.714 136.165 76.714ZM133.305 85.03C133.965 85.69 134.793 86.02 135.791 86.02C136.788 86.02 137.617 85.69 138.277 85.03C138.937 84.3553 139.267 83.512 139.267 82.5C139.267 81.488 138.937 80.652 138.277 79.992C137.617 79.3173 136.788 78.98 135.791 78.98C134.793 78.98 133.965 79.3173 133.305 79.992C132.645 80.652 132.315 81.488 132.315 82.5C132.315 83.512 132.645 84.3553 133.305 85.03ZM151.77 77V79.288H148.184V88H145.808V79.288H142.2V77H151.77ZM164.07 88.286C162.457 88.286 161.086 87.7287 159.956 86.614C158.827 85.4993 158.262 84.128 158.262 82.5C158.262 80.872 158.827 79.5007 159.956 78.386C161.086 77.2713 162.457 76.714 164.07 76.714C165.698 76.714 167.07 77.2713 168.184 78.386C169.314 79.5007 169.878 80.872 169.878 82.5C169.878 84.128 169.314 85.4993 168.184 86.614C167.07 87.7287 165.698 88.286 164.07 88.286ZM161.628 84.986C162.288 85.646 163.102 85.976 164.07 85.976C165.038 85.976 165.852 85.646 166.512 84.986C167.172 84.326 167.502 83.4973 167.502 82.5C167.502 81.5027 167.172 80.674 166.512 80.014C165.852 79.354 165.038 79.024 164.07 79.024C163.102 79.024 162.288 79.354 161.628 80.014C160.968 80.674 160.638 81.5027 160.638 82.5C160.638 83.4973 160.968 84.326 161.628 84.986ZM177.131 88.286C175.444 88.286 174.065 87.7433 172.995 86.658C171.939 85.558 171.411 84.1573 171.411 82.456C171.411 80.5933 171.689 79.156 172.247 78.144C172.804 77.1173 173.933 76.186 175.635 75.35C175.913 75.218 176.324 75.0273 176.867 74.778C177.424 74.5287 177.805 74.3527 178.011 74.25C178.216 74.1327 178.473 73.9713 178.781 73.766C179.089 73.546 179.316 73.3187 179.463 73.084C179.609 72.8347 179.727 72.5413 179.815 72.204L181.751 73.326C181.692 73.6487 181.597 73.9493 181.465 74.228C181.333 74.492 181.142 74.7413 180.893 74.976C180.643 75.2107 180.423 75.4013 180.233 75.548C180.057 75.6947 179.756 75.8707 179.331 76.076C178.905 76.2813 178.59 76.428 178.385 76.516C178.194 76.604 177.827 76.758 177.285 76.978C176.317 77.3593 175.605 77.7553 175.151 78.166C174.711 78.562 174.403 79.0607 174.227 79.662C175.107 78.6647 176.302 78.166 177.813 78.166C179.103 78.166 180.225 78.628 181.179 79.552C182.147 80.476 182.631 81.6713 182.631 83.138C182.631 84.634 182.117 85.866 181.091 86.834C180.079 87.802 178.759 88.286 177.131 88.286ZM177.109 86.064C178.033 86.064 178.788 85.7927 179.375 85.25C179.961 84.6927 180.255 83.9887 180.255 83.138C180.255 82.2727 179.961 81.5613 179.375 81.004C178.803 80.4467 178.055 80.168 177.131 80.168C176.309 80.168 175.569 80.432 174.909 80.96C174.249 81.4733 173.919 82.1627 173.919 83.028C173.919 83.908 174.227 84.634 174.843 85.206C175.459 85.778 176.214 86.064 177.109 86.064ZM191.493 77H194.023L189.799 88.352C189.286 89.7453 188.567 90.7867 187.643 91.476C186.719 92.1653 185.649 92.4733 184.431 92.4V90.178C185.179 90.222 185.781 90.068 186.235 89.716C186.705 89.3787 187.079 88.8287 187.357 88.066L187.423 87.912L182.803 77H185.333L188.677 85.008L191.493 77ZM202.197 77H204.573V88H202.197V84.282C201.317 84.6047 200.393 84.766 199.425 84.766C198.061 84.766 196.983 84.4287 196.191 83.754C195.399 83.0793 195.003 82.0893 195.003 80.784V77H197.379V80.564C197.379 81.884 198.164 82.544 199.733 82.544C200.657 82.544 201.478 82.3753 202.197 82.038V77ZM209.217 83.512C209.393 84.348 209.796 84.9933 210.427 85.448C211.058 85.888 211.828 86.108 212.737 86.108C213.998 86.108 214.944 85.6533 215.575 84.744L217.533 85.888C216.448 87.4867 214.842 88.286 212.715 88.286C210.926 88.286 209.481 87.7433 208.381 86.658C207.281 85.558 206.731 84.172 206.731 82.5C206.731 80.8573 207.274 79.486 208.359 78.386C209.444 77.2713 210.838 76.714 212.539 76.714C214.152 76.714 215.472 77.2787 216.499 78.408C217.54 79.5373 218.061 80.9087 218.061 82.522C218.061 82.7713 218.032 83.1013 217.973 83.512H209.217ZM209.195 81.576H215.663C215.502 80.6813 215.128 80.0067 214.541 79.552C213.969 79.0973 213.294 78.87 212.517 78.87C211.637 78.87 210.904 79.112 210.317 79.596C209.73 80.08 209.356 80.74 209.195 81.576ZM227.566 77H229.942V88H227.566V83.622H222.528V88H220.152V77H222.528V81.378H227.566V77ZM240.663 77H242.489V88H240.157V81.004L234.525 88H232.699V77H235.031V83.974L240.663 77ZM253.759 77V88H251.427V84.304H250.107L247.313 88H244.519L247.489 84.084C246.727 83.8347 246.111 83.3947 245.641 82.764C245.187 82.1333 244.959 81.4293 244.959 80.652C244.959 79.64 245.319 78.782 246.037 78.078C246.771 77.3593 247.709 77 248.853 77H253.759ZM248.985 82.258H251.427V79.156H248.985C248.501 79.156 248.098 79.2953 247.775 79.574C247.453 79.8527 247.291 80.234 247.291 80.718C247.291 81.1873 247.453 81.5613 247.775 81.84C248.098 82.1187 248.501 82.258 248.985 82.258Z" fill="black"/>
<rect x="17" y="49" width="62" height="62" rx="6" fill="#E0D8FF"/>
<path fill-rule="evenodd" clip-rule="evenodd" d="M36.9108 69.3071C25.8281 73.9783 26.1515 73.8244 26.0233 74.4892C25.9922 74.6502 25.9922 74.9136 26.0233 75.0746C26.142 75.6901 26.3401 75.8007 30.3136 77.4697L34.0114 79.0228L34.0534 83.5845L34.0954 88.146L34.3321 88.7999C35.2932 91.4557 38.3896 93.605 42.5677 94.5164C44.442 94.9252 45.2052 95 47.4999 95C49.7945 95 50.5578 94.9252 52.432 94.5164C56.6069 93.6056 59.7072 91.4537 60.6676 88.7999L60.9043 88.146L60.9293 83.5988L60.9541 79.0517L61.6016 78.7687L62.2489 78.4857L62.291 85.7007C62.3325 92.8282 62.3351 92.9185 62.5063 93.1414C62.8356 93.5703 63.1041 93.7041 63.6356 93.7041C64.1671 93.7041 64.4357 93.5703 64.7649 93.1414C64.9367 92.9177 64.9384 92.8491 64.9605 85.1304L64.9828 77.345L66.7131 76.6152C68.5744 75.8301 68.8696 75.6287 68.9774 75.0697C69.0079 74.9114 69.0075 74.6502 68.9765 74.4892C68.8476 73.8213 69.173 73.9765 58.173 69.3397C51.0913 66.3547 47.8462 65.0252 47.5839 65.0018C47.2361 64.9705 46.3804 65.3157 36.9108 69.3071ZM55.9184 71.2467C60.4845 73.1686 64.2205 74.7594 64.2208 74.7819C64.221 74.8044 63.9361 74.94 63.5878 75.0832L62.9544 75.3435L55.2481 74.4037C51.0097 73.8867 47.4155 73.4828 47.2609 73.5059C46.8806 73.5629 46.4168 73.9225 46.2635 74.2794C46.0018 74.8885 46.3399 75.7266 46.9437 75.9655C47.0878 76.0225 49.5694 76.3521 52.4582 76.6978C55.3471 77.0435 57.7755 77.3516 57.8546 77.3824C57.951 77.42 56.3191 78.1451 52.8938 79.5868C50.0865 80.7685 47.71 81.7556 47.6128 81.7803C47.4943 81.8104 45.0596 80.8245 40.2195 78.7863C30.968 74.8905 30.9135 74.8673 30.8468 74.7988C30.7878 74.7383 47.2835 67.7589 47.4952 67.7548C47.562 67.7535 51.3524 69.3249 55.9184 71.2467ZM42.2794 82.5051C46.7629 84.3955 47.3051 84.605 47.616 84.5679C47.8064 84.5452 50.1555 83.5999 52.8364 82.4673C55.5173 81.3346 57.8351 80.3571 57.987 80.2952L58.2633 80.1824L58.2391 84.0026L58.215 87.8228L57.9443 88.3574C56.7572 90.7019 52.3148 92.4372 47.4999 92.4372C42.686 92.4372 38.2422 90.7014 37.0554 88.3574L36.7847 87.8228L36.7605 83.9973L36.7364 80.1718L37.0126 80.2864C37.1647 80.3494 39.5347 81.3479 42.2794 82.5051Z" fill="#4B267E"/>
<line x1="645.5" y1="261" x2="645.5" y2="62" stroke="#4B267E" stroke-width="3"/>
<line x1="433.5" y1="260" x2="433.5" y2="183" stroke="#4B267E" stroke-width="3"/>
<line x1="47.5" y1="261" x2="47.5" y2="111" stroke="#4B267E" stroke-width="3"/>
<line x1="837.5" y1="260" x2="837.5" y2="184" stroke="#4B267E" stroke-width="3"/>
<line x1="1027.5" y1="260" x2="1027.5" y2="111" stroke="#4B267E" stroke-width="3"/>
<path d="M487.893 159L486.815 155.898H480.259L479.181 159H476.431L482.019 143.6H485.055L490.621 159H487.893ZM481.095 153.522H485.979L483.537 146.57L481.095 153.522ZM499.861 148V150.288H496.275V159H493.899V150.288H490.291V148H499.861ZM509.937 148V150.288H506.351V159H503.975V150.288H500.367V148H509.937ZM512.985 154.512C513.161 155.348 513.565 155.993 514.195 156.448C514.826 156.888 515.596 157.108 516.505 157.108C517.767 157.108 518.713 156.653 519.343 155.744L521.301 156.888C520.216 158.487 518.61 159.286 516.483 159.286C514.694 159.286 513.249 158.743 512.149 157.658C511.049 156.558 510.499 155.172 510.499 153.5C510.499 151.857 511.042 150.486 512.127 149.386C513.213 148.271 514.606 147.714 516.307 147.714C517.921 147.714 519.241 148.279 520.267 149.408C521.309 150.537 521.829 151.909 521.829 153.522C521.829 153.771 521.8 154.101 521.741 154.512H512.985ZM512.963 152.576H519.431C519.27 151.681 518.896 151.007 518.309 150.552C517.737 150.097 517.063 149.87 516.285 149.87C515.405 149.87 514.672 150.112 514.085 150.596C513.499 151.08 513.125 151.74 512.963 152.576ZM529.048 159.286C527.39 159.286 526.004 158.729 524.89 157.614C523.79 156.499 523.24 155.128 523.24 153.5C523.24 151.857 523.79 150.486 524.89 149.386C526.004 148.271 527.39 147.714 529.048 147.714C530.118 147.714 531.094 147.971 531.974 148.484C532.854 148.997 533.514 149.687 533.954 150.552L531.908 151.74C531.658 151.212 531.277 150.801 530.764 150.508C530.265 150.2 529.686 150.046 529.026 150.046C528.058 150.046 527.244 150.376 526.584 151.036C525.938 151.696 525.616 152.517 525.616 153.5C525.616 154.483 525.938 155.304 526.584 155.964C527.244 156.624 528.058 156.954 529.026 156.954C529.671 156.954 530.25 156.8 530.764 156.492C531.292 156.184 531.688 155.773 531.952 155.26L533.998 156.426C533.528 157.306 532.854 158.003 531.974 158.516C531.094 159.029 530.118 159.286 529.048 159.286ZM544.012 148V150.288H540.426V159H538.05V150.288H534.442V148H544.012ZM553.902 148H556.278V159H553.902V157.416C553.007 158.663 551.724 159.286 550.052 159.286C548.541 159.286 547.25 158.729 546.18 157.614C545.109 156.485 544.574 155.113 544.574 153.5C544.574 151.872 545.109 150.501 546.18 149.386C547.25 148.271 548.541 147.714 550.052 147.714C551.724 147.714 553.007 148.33 553.902 149.562V148ZM547.94 156.03C548.6 156.69 549.428 157.02 550.426 157.02C551.423 157.02 552.252 156.69 552.912 156.03C553.572 155.355 553.902 154.512 553.902 153.5C553.902 152.488 553.572 151.652 552.912 150.992C552.252 150.317 551.423 149.98 550.426 149.98C549.428 149.98 548.6 150.317 547.94 150.992C547.28 151.652 546.95 152.488 546.95 153.5C546.95 154.512 547.28 155.355 547.94 156.03ZM568.507 156.756H570.311V161.948H567.979V159H559.047V148H561.423V156.756H566.131V148H568.507V156.756ZM580.203 148H582.029V159H579.697V152.004L574.065 159H572.239V148H574.571V154.974L580.203 148ZM593.299 148V159H590.967V155.304H589.647L586.853 159H584.059L587.029 155.084C586.267 154.835 585.651 154.395 585.181 153.764C584.727 153.133 584.499 152.429 584.499 151.652C584.499 150.64 584.859 149.782 585.577 149.078C586.311 148.359 587.249 148 588.393 148H593.299ZM588.525 153.258H590.967V150.156H588.525C588.041 150.156 587.638 150.295 587.315 150.574C586.993 150.853 586.831 151.234 586.831 151.718C586.831 152.187 586.993 152.561 587.315 152.84C587.638 153.119 588.041 153.258 588.525 153.258Z" fill="black"/>
<rect x="404" y="121" width="62" height="62" rx="6" fill="#D8E9FF"/>
<path fill-rule="evenodd" clip-rule="evenodd" d="M435.277 133.086C436.185 133.308 437.116 134.051 437.478 134.843L437.646 135.211H438.392C438.802 135.211 439.334 135.247 439.574 135.291C440.521 135.467 441.476 136.171 441.874 136.988L442.09 137.43L443.867 137.436C445.995 137.442 446.433 137.496 447.123 137.838C448.102 138.324 448.794 139.288 448.945 140.377C448.989 140.699 449.009 146.07 448.996 154.591L448.976 168.288L448.817 168.704C448.37 169.877 447.416 170.711 446.282 170.923C445.735 171.026 423.265 171.026 422.718 170.923C421.584 170.711 420.63 169.877 420.183 168.704L420.024 168.288L420.004 154.591C419.991 146.07 420.011 140.699 420.055 140.377C420.206 139.288 420.898 138.324 421.877 137.838C422.567 137.496 423.005 137.442 425.133 137.436L426.91 137.43L427.126 136.988C427.524 136.171 428.479 135.467 429.426 135.291C429.666 135.247 430.198 135.211 430.608 135.211H431.354L431.522 134.843C432.129 133.516 433.813 132.728 435.277 133.086ZM434.019 135.359C433.664 135.531 433.39 135.955 433.388 136.334C433.386 136.679 433.108 137.135 432.798 137.3C432.574 137.42 432.363 137.438 431.199 137.438C429.947 137.438 429.837 137.449 429.54 137.607C429.069 137.856 428.946 138.14 428.946 138.978V139.665H434.5H440.054V138.978C440.054 138.14 439.931 137.856 439.46 137.607C439.163 137.449 439.053 137.438 437.801 137.438C436.637 137.438 436.426 137.42 436.202 137.3C435.892 137.135 435.614 136.679 435.612 136.334C435.61 135.959 435.337 135.535 434.987 135.361C434.608 135.172 434.404 135.172 434.019 135.359ZM442.275 140.506L442.238 141.31L441.926 141.601L441.614 141.893H434.5H427.386L427.074 141.601L426.762 141.31L426.725 140.506L426.688 139.703H424.874C423.183 139.703 423.042 139.713 422.803 139.854C422.662 139.937 422.479 140.121 422.396 140.262C422.246 140.518 422.245 140.573 422.245 154.261V168.002L422.459 168.283C422.857 168.806 421.977 168.771 434.5 168.771C447.023 168.771 446.143 168.806 446.541 168.283L446.755 168.002L446.774 154.421C446.788 145.13 446.769 140.748 446.716 140.551C446.674 140.392 446.565 140.176 446.475 140.072C446.166 139.715 445.874 139.669 444.015 139.687L442.312 139.703L442.275 140.506ZM427.206 145.424C427.329 145.487 428.02 146.129 428.743 146.851L430.057 148.165L430.853 147.376C431.291 146.942 431.722 146.55 431.811 146.504C432.04 146.388 432.544 146.402 432.795 146.532C433.214 146.75 433.445 147.248 433.354 147.74C433.311 147.974 433.089 148.234 431.958 149.376C429.931 151.421 430.159 151.444 427.663 148.958C426.652 147.951 425.777 147.037 425.719 146.927C425.662 146.817 425.614 146.56 425.614 146.357C425.614 146.067 425.656 145.938 425.808 145.757C426.178 145.316 426.738 145.183 427.206 145.424ZM442.83 146.559C443.226 146.807 443.338 146.991 443.367 147.446C443.401 147.98 443.222 148.299 442.773 148.504C442.485 148.635 442.267 148.646 440.07 148.648C437.447 148.65 437.355 148.637 436.999 148.212C436.72 147.88 436.669 147.522 436.841 147.107C436.918 146.923 437.075 146.701 437.19 146.615C437.391 146.464 437.488 146.458 440.003 146.439C442.441 146.421 442.622 146.428 442.83 146.559ZM427.095 152.073C427.197 152.113 427.897 152.762 428.651 153.516L430.022 154.887L430.762 154.139C431.8 153.088 432.126 152.945 432.769 153.257C432.998 153.368 433.126 153.497 433.237 153.726C433.427 154.12 433.429 154.369 433.247 154.722C433.066 155.073 430.756 157.374 430.478 157.48C430.188 157.59 429.79 157.579 429.554 157.453C429.313 157.325 425.813 153.804 425.696 153.573C425.651 153.484 425.614 153.263 425.614 153.083C425.614 152.328 426.392 151.797 427.095 152.073ZM442.794 154.356C443.56 154.764 443.591 155.841 442.849 156.299C442.618 156.442 442.501 156.447 440.017 156.428C437.459 156.409 437.422 156.406 437.19 156.24C436.892 156.027 436.685 155.512 436.753 155.152C436.814 154.825 437.121 154.452 437.438 154.319C437.625 154.241 438.224 154.218 440.108 154.218C442.329 154.218 442.558 154.23 442.794 154.356ZM432.612 159.898C432.985 160.03 433.292 160.369 433.358 160.719C433.451 161.215 433.303 161.473 432.431 162.344L431.617 163.158L432.46 164.022C433.384 164.967 433.489 165.175 433.324 165.727C433.22 166.073 432.815 166.445 432.47 166.51C432.005 166.597 431.704 166.425 430.835 165.57L430.02 164.77L429.169 165.611C428.432 166.338 428.275 166.458 428.007 166.503C427.595 166.571 427.083 166.349 426.871 166.01C426.749 165.815 426.723 165.674 426.744 165.333L426.772 164.902L427.616 164.053L428.46 163.205L427.67 162.402C426.835 161.552 426.725 161.374 426.726 160.877C426.726 160.376 427.064 159.977 427.588 159.858C428.074 159.748 428.332 159.893 429.224 160.774L430.057 161.598L430.934 160.729C431.486 160.182 431.868 159.861 431.965 159.861C432.049 159.861 432.163 159.846 432.217 159.827C432.271 159.808 432.449 159.84 432.612 159.898ZM442.894 162.229C443.579 162.682 443.549 163.762 442.842 164.15C442.633 164.265 442.333 164.279 440.048 164.279H437.487L437.208 164.065C436.563 163.571 436.578 162.708 437.24 162.255C437.481 162.09 437.509 162.088 440.083 162.089C442.505 162.089 442.697 162.099 442.894 162.229Z" fill="#4B267E"/>
<path d="M890.893 161L889.815 157.898H883.259L882.181 161H879.431L885.019 145.6H888.055L893.621 161H890.893ZM884.095 155.522H888.979L886.537 148.57L884.095 155.522ZM902.861 150V152.288H899.275V161H896.899V152.288H893.291V150H902.861ZM912.937 150V152.288H909.351V161H906.975V152.288H903.367V150H912.937ZM915.985 156.512C916.161 157.348 916.565 157.993 917.195 158.448C917.826 158.888 918.596 159.108 919.505 159.108C920.767 159.108 921.713 158.653 922.343 157.744L924.301 158.888C923.216 160.487 921.61 161.286 919.483 161.286C917.694 161.286 916.249 160.743 915.149 159.658C914.049 158.558 913.499 157.172 913.499 155.5C913.499 153.857 914.042 152.486 915.127 151.386C916.213 150.271 917.606 149.714 919.307 149.714C920.921 149.714 922.241 150.279 923.267 151.408C924.309 152.537 924.829 153.909 924.829 155.522C924.829 155.771 924.8 156.101 924.741 156.512H915.985ZM915.963 154.576H922.431C922.27 153.681 921.896 153.007 921.309 152.552C920.737 152.097 920.063 151.87 919.285 151.87C918.405 151.87 917.672 152.112 917.085 152.596C916.499 153.08 916.125 153.74 915.963 154.576ZM932.048 161.286C930.39 161.286 929.004 160.729 927.89 159.614C926.79 158.499 926.24 157.128 926.24 155.5C926.24 153.857 926.79 152.486 927.89 151.386C929.004 150.271 930.39 149.714 932.048 149.714C933.118 149.714 934.094 149.971 934.974 150.484C935.854 150.997 936.514 151.687 936.954 152.552L934.908 153.74C934.658 153.212 934.277 152.801 933.764 152.508C933.265 152.2 932.686 152.046 932.026 152.046C931.058 152.046 930.244 152.376 929.584 153.036C928.938 153.696 928.616 154.517 928.616 155.5C928.616 156.483 928.938 157.304 929.584 157.964C930.244 158.624 931.058 158.954 932.026 158.954C932.671 158.954 933.25 158.8 933.764 158.492C934.292 158.184 934.688 157.773 934.952 157.26L936.998 158.426C936.528 159.306 935.854 160.003 934.974 160.516C934.094 161.029 933.118 161.286 932.048 161.286ZM947.012 150V152.288H943.426V161H941.05V152.288H937.442V150H947.012ZM956.902 150H959.278V161H956.902V159.416C956.007 160.663 954.724 161.286 953.052 161.286C951.541 161.286 950.25 160.729 949.18 159.614C948.109 158.485 947.574 157.113 947.574 155.5C947.574 153.872 948.109 152.501 949.18 151.386C950.25 150.271 951.541 149.714 953.052 149.714C954.724 149.714 956.007 150.33 956.902 151.562V150ZM950.94 158.03C951.6 158.69 952.428 159.02 953.426 159.02C954.423 159.02 955.252 158.69 955.912 158.03C956.572 157.355 956.902 156.512 956.902 155.5C956.902 154.488 956.572 153.652 955.912 152.992C955.252 152.317 954.423 151.98 953.426 151.98C952.428 151.98 951.6 152.317 950.94 152.992C950.28 153.652 949.95 154.488 949.95 155.5C949.95 156.512 950.28 157.355 950.94 158.03ZM971.507 158.756H973.311V163.948H970.979V161H962.047V150H964.423V158.756H969.131V150H971.507V158.756ZM983.203 150H985.029V161H982.697V154.004L977.065 161H975.239V150H977.571V156.974L983.203 150ZM996.299 150V161H993.967V157.304H992.647L989.853 161H987.059L990.029 157.084C989.267 156.835 988.651 156.395 988.181 155.764C987.727 155.133 987.499 154.429 987.499 153.652C987.499 152.64 987.859 151.782 988.577 151.078C989.311 150.359 990.249 150 991.393 150H996.299ZM991.525 155.258H993.967V152.156H991.525C991.041 152.156 990.638 152.295 990.315 152.574C989.993 152.853 989.831 153.234 989.831 153.718C989.831 154.187 989.993 154.561 990.315 154.84C990.638 155.119 991.041 155.258 991.525 155.258Z" fill="black"/>
<rect x="807" y="122" width="62" height="62" rx="6" fill="#D8E9FF"/>
<path fill-rule="evenodd" clip-rule="evenodd" d="M838.277 134.086C839.185 134.308 840.116 135.051 840.478 135.843L840.646 136.211H841.392C841.802 136.211 842.334 136.247 842.574 136.291C843.521 136.467 844.476 137.171 844.874 137.988L845.09 138.43L846.867 138.436C848.995 138.442 849.433 138.496 850.123 138.838C851.102 139.324 851.794 140.288 851.945 141.377C851.989 141.699 852.009 147.07 851.996 155.591L851.976 169.288L851.817 169.704C851.37 170.877 850.416 171.711 849.282 171.923C848.735 172.026 826.265 172.026 825.718 171.923C824.584 171.711 823.63 170.877 823.183 169.704L823.024 169.288L823.004 155.591C822.991 147.07 823.011 141.699 823.055 141.377C823.206 140.288 823.898 139.324 824.877 138.838C825.567 138.496 826.005 138.442 828.133 138.436L829.91 138.43L830.126 137.988C830.524 137.171 831.479 136.467 832.426 136.291C832.666 136.247 833.198 136.211 833.608 136.211H834.354L834.522 135.843C835.129 134.516 836.813 133.728 838.277 134.086ZM837.019 136.359C836.664 136.531 836.39 136.955 836.388 137.334C836.386 137.679 836.108 138.135 835.798 138.3C835.574 138.42 835.363 138.438 834.199 138.438C832.947 138.438 832.837 138.449 832.54 138.607C832.069 138.856 831.946 139.14 831.946 139.978V140.665H837.5H843.054V139.978C843.054 139.14 842.931 138.856 842.46 138.607C842.163 138.449 842.053 138.438 840.801 138.438C839.637 138.438 839.426 138.42 839.202 138.3C838.892 138.135 838.614 137.679 838.612 137.334C838.61 136.959 838.337 136.535 837.987 136.361C837.608 136.172 837.404 136.172 837.019 136.359ZM845.275 141.506L845.238 142.31L844.926 142.601L844.614 142.893H837.5H830.386L830.074 142.601L829.762 142.31L829.725 141.506L829.688 140.703H827.874C826.183 140.703 826.042 140.713 825.803 140.854C825.662 140.937 825.479 141.121 825.396 141.262C825.246 141.518 825.245 141.573 825.245 155.261V169.002L825.459 169.283C825.857 169.806 824.977 169.771 837.5 169.771C850.023 169.771 849.143 169.806 849.541 169.283L849.755 169.002L849.774 155.421C849.788 146.13 849.769 141.748 849.716 141.551C849.674 141.392 849.565 141.176 849.475 141.072C849.166 140.715 848.874 140.669 847.015 140.687L845.312 140.703L845.275 141.506ZM830.206 146.424C830.329 146.487 831.02 147.129 831.743 147.851L833.057 149.165L833.853 148.376C834.291 147.942 834.722 147.55 834.811 147.504C835.04 147.388 835.544 147.402 835.795 147.532C836.214 147.75 836.445 148.248 836.354 148.74C836.311 148.974 836.089 149.234 834.958 150.376C832.931 152.421 833.159 152.444 830.663 149.958C829.652 148.951 828.777 148.037 828.719 147.927C828.662 147.817 828.614 147.56 828.614 147.357C828.614 147.067 828.656 146.938 828.808 146.757C829.178 146.316 829.738 146.183 830.206 146.424ZM845.83 147.559C846.226 147.807 846.338 147.991 846.367 148.446C846.401 148.98 846.222 149.299 845.773 149.504C845.485 149.635 845.267 149.646 843.07 149.648C840.447 149.65 840.355 149.637 839.999 149.212C839.72 148.88 839.669 148.522 839.841 148.107C839.918 147.923 840.075 147.701 840.19 147.615C840.391 147.464 840.488 147.458 843.003 147.439C845.441 147.421 845.622 147.428 845.83 147.559ZM830.095 153.073C830.197 153.113 830.897 153.762 831.651 154.516L833.022 155.887L833.762 155.139C834.8 154.088 835.126 153.945 835.769 154.257C835.998 154.368 836.126 154.497 836.237 154.726C836.427 155.12 836.429 155.369 836.247 155.722C836.066 156.073 833.756 158.374 833.478 158.48C833.188 158.59 832.79 158.579 832.554 158.453C832.313 158.325 828.813 154.804 828.696 154.573C828.651 154.484 828.614 154.263 828.614 154.083C828.614 153.328 829.392 152.797 830.095 153.073ZM845.794 155.356C846.56 155.764 846.591 156.841 845.849 157.299C845.618 157.442 845.501 157.447 843.017 157.428C840.459 157.409 840.422 157.406 840.19 157.24C839.892 157.027 839.685 156.512 839.753 156.152C839.814 155.825 840.121 155.452 840.438 155.319C840.625 155.241 841.224 155.218 843.108 155.218C845.329 155.218 845.558 155.23 845.794 155.356ZM835.612 160.898C835.985 161.03 836.292 161.369 836.358 161.719C836.451 162.215 836.303 162.473 835.431 163.344L834.617 164.158L835.46 165.022C836.384 165.967 836.489 166.175 836.324 166.727C836.22 167.073 835.815 167.445 835.47 167.51C835.005 167.597 834.704 167.425 833.835 166.57L833.02 165.77L832.169 166.611C831.432 167.338 831.275 167.458 831.007 167.503C830.595 167.571 830.083 167.349 829.871 167.01C829.749 166.815 829.723 166.674 829.744 166.333L829.772 165.902L830.616 165.053L831.46 164.205L830.67 163.402C829.835 162.552 829.725 162.374 829.726 161.877C829.726 161.376 830.064 160.977 830.588 160.858C831.074 160.748 831.332 160.893 832.224 161.774L833.057 162.598L833.934 161.729C834.486 161.182 834.868 160.861 834.965 160.861C835.049 160.861 835.163 160.846 835.217 160.827C835.271 160.808 835.449 160.84 835.612 160.898ZM845.894 163.229C846.579 163.682 846.549 164.762 845.842 165.15C845.633 165.265 845.333 165.279 843.048 165.279H840.487L840.208 165.065C839.563 164.571 839.578 163.708 840.24 163.255C840.481 163.09 840.509 163.088 843.083 163.089C845.505 163.089 845.697 163.099 845.894 163.229Z" fill="#4B267E"/>
<path d="M699.215 22.6V38H696.685V25.02H690.415V38H687.885V22.6H699.215ZM708.373 26.714C709.883 26.714 711.174 27.2787 712.245 28.408C713.315 29.5227 713.851 30.8867 713.851 32.5C713.851 34.128 713.315 35.4993 712.245 36.614C711.174 37.7287 709.883 38.286 708.373 38.286C706.701 38.286 705.417 37.67 704.523 36.438V42.4H702.147V27H704.523V28.584C705.417 27.3373 706.701 26.714 708.373 26.714ZM705.513 35.03C706.173 35.69 707.001 36.02 707.999 36.02C708.996 36.02 709.825 35.69 710.485 35.03C711.145 34.3553 711.475 33.512 711.475 32.5C711.475 31.488 711.145 30.652 710.485 29.992C709.825 29.3173 708.996 28.98 707.999 28.98C707.001 28.98 706.173 29.3173 705.513 29.992C704.853 30.652 704.523 31.488 704.523 32.5C704.523 33.512 704.853 34.3553 705.513 35.03ZM724.716 27H727.092V38H724.716V36.416C723.821 37.6627 722.538 38.286 720.866 38.286C719.355 38.286 718.065 37.7287 716.994 36.614C715.923 35.4847 715.388 34.1133 715.388 32.5C715.388 30.872 715.923 29.5007 716.994 28.386C718.065 27.2713 719.355 26.714 720.866 26.714C722.538 26.714 723.821 27.33 724.716 28.562V27ZM718.754 35.03C719.414 35.69 720.243 36.02 721.24 36.02C722.237 36.02 723.066 35.69 723.726 35.03C724.386 34.3553 724.716 33.512 724.716 32.5C724.716 31.488 724.386 30.652 723.726 29.992C723.066 29.3173 722.237 28.98 721.24 28.98C720.243 28.98 719.414 29.3173 718.754 29.992C718.094 30.652 717.764 31.488 717.764 32.5C717.764 33.512 718.094 34.3553 718.754 35.03ZM739.586 38H736.748L732.238 32.918V38H729.862V27H732.238V31.862L736.506 27H739.41L734.57 32.39L739.586 38ZM749.588 27V29.288H746.002V38H743.626V29.288H740.018V27H749.588ZM759.16 27H760.986V38H758.654V31.004L753.022 38H751.196V27H753.528V33.974L759.16 27ZM773.466 38H770.628L766.118 32.918V38H763.742V27H766.118V31.862L770.386 27H773.29L768.45 32.39L773.466 38ZM782.896 27H785.272V38H782.896V36.416C782.001 37.6627 780.718 38.286 779.046 38.286C777.535 38.286 776.245 37.7287 775.174 36.614C774.103 35.4847 773.568 34.1133 773.568 32.5C773.568 30.872 774.103 29.5007 775.174 28.386C776.245 27.2713 777.535 26.714 779.046 26.714C780.718 26.714 782.001 27.33 782.896 28.562V27ZM776.934 35.03C777.594 35.69 778.423 36.02 779.42 36.02C780.417 36.02 781.246 35.69 781.906 35.03C782.566 34.3553 782.896 33.512 782.896 32.5C782.896 31.488 782.566 30.652 781.906 29.992C781.246 29.3173 780.417 28.98 779.42 28.98C778.423 28.98 777.594 29.3173 776.934 29.992C776.274 30.652 775.944 31.488 775.944 32.5C775.944 33.512 776.274 34.3553 776.934 35.03Z" fill="black"/>
<rect x="614" width="62" height="62" rx="6" fill="#E0D8FF"/>
<path fill-rule="evenodd" clip-rule="evenodd" d="M643.148 14.1066C642.619 14.2488 642.158 14.5191 641.737 14.9345C641.112 15.5517 640.816 16.2966 640.816 17.2585V17.8353L640.235 18.0536C639.916 18.1736 639.432 18.3728 639.16 18.496L638.666 18.7201L638.297 18.359C637.371 17.4537 636.273 17.1285 635.14 17.4238C634.462 17.6003 634.075 17.8782 632.976 18.9772C631.877 20.0761 631.599 20.4632 631.422 21.1409C631.127 22.2736 631.452 23.3726 632.356 24.296L632.715 24.6631L632.425 25.3252C632.265 25.6894 632.067 26.1741 631.984 26.4023L631.834 26.8174H631.257C630.295 26.8174 629.556 27.1105 628.924 27.7417C628.151 28.5147 628 29.0482 628 31.0008C628 32.9575 628.145 33.4648 628.933 34.2634C629.55 34.8891 630.295 35.1842 631.257 35.1842H631.834L632.052 35.7652C632.172 36.0848 632.371 36.5685 632.495 36.8403L632.719 37.3344L632.358 37.7036C632.159 37.9066 631.903 38.2221 631.789 38.4047C631.191 39.3607 631.169 40.6242 631.733 41.6216C632.014 42.1177 633.883 43.9862 634.379 44.2669C635.322 44.8005 636.498 44.8115 637.456 44.2958C637.64 44.1966 637.99 43.9287 638.233 43.7004L638.674 43.2854L639.33 43.573C639.691 43.7311 640.173 43.929 640.401 44.0127L640.816 44.1648V44.7423C640.816 45.705 641.111 46.4497 641.737 47.067C642.536 47.855 643.043 48 645 48C646.953 48 647.486 47.8487 648.259 47.0757C648.891 46.4442 649.184 45.7048 649.184 44.7423V44.1648L649.599 44.0127C649.827 43.929 650.309 43.7311 650.67 43.573L651.326 43.2854L651.767 43.7004C652.01 43.9287 652.36 44.1966 652.544 44.2958C653.48 44.8 654.644 44.8001 655.587 44.2962C656.032 44.0582 657.973 42.1199 658.262 41.6253C658.8 40.7027 658.813 39.5052 658.296 38.5444C658.196 38.3602 657.928 38.0107 657.7 37.7678L657.285 37.3261L657.573 36.6702C657.731 36.3094 657.929 35.8275 658.013 35.5992L658.165 35.1842L658.738 35.1834C659.721 35.182 660.441 34.8977 661.067 34.2634C661.855 33.4648 662 32.9575 662 31.0008C662 29.0441 661.855 28.5367 661.067 27.7381C660.441 27.1038 659.721 26.8195 658.738 26.8182L658.165 26.8174L658.013 26.4023C657.929 26.1741 657.731 25.6922 657.573 25.3313L657.285 24.6754L657.7 24.2337C657.928 23.9908 658.196 23.6414 658.296 23.4571C658.811 22.4998 658.8 21.3245 658.267 20.3799C657.991 19.8895 656.049 17.9525 655.587 17.7054C654.588 17.1716 653.34 17.2049 652.404 17.7902C652.222 17.9044 651.906 18.1604 651.703 18.359L651.334 18.7201L650.84 18.496C650.568 18.3728 650.084 18.1736 649.765 18.0536L649.184 17.8353V17.2585C649.184 16.2967 648.891 15.5572 648.259 14.9259C647.842 14.5086 647.39 14.2509 646.813 14.1006C646.286 13.9633 643.664 13.9677 643.148 14.1066ZM646.574 16.1328C646.765 16.2256 646.916 16.3659 647.026 16.5537C647.181 16.8178 647.191 16.894 647.191 17.7744C647.191 18.8201 647.274 19.1591 647.581 19.3689C647.677 19.4348 648.144 19.6159 648.619 19.7712C649.094 19.9266 649.901 20.2608 650.412 20.514C650.923 20.7671 651.41 20.9741 651.493 20.9741C651.811 20.9737 652.149 20.7506 652.797 20.1138C653.487 19.4356 653.68 19.3138 654.064 19.3138C654.466 19.3138 654.65 19.4408 655.582 20.3629C656.523 21.2933 656.688 21.5268 656.688 21.9303C656.688 22.3219 656.568 22.5116 655.887 23.2042C655.247 23.8554 655.027 24.19 655.027 24.5133C655.027 24.5997 655.236 25.0903 655.49 25.6036C655.744 26.1169 656.079 26.9212 656.233 27.3909C656.387 27.8607 656.566 28.3238 656.632 28.4201C656.842 28.7267 657.181 28.8095 658.227 28.8095C659.107 28.8095 659.184 28.8197 659.448 28.9745C659.946 29.2662 660.008 29.4914 660.008 31.0008C660.008 32.5101 659.946 32.7353 659.448 33.027C659.184 33.1818 659.107 33.1921 658.227 33.1921C657.181 33.1921 656.842 33.2748 656.632 33.5815C656.566 33.6777 656.387 34.1408 656.233 34.6106C656.079 35.0803 655.744 35.8846 655.49 36.3979C655.236 36.9112 655.027 37.4018 655.027 37.4882C655.027 37.8115 655.247 38.1462 655.887 38.7973C656.566 39.4872 656.688 39.6801 656.688 40.0648C656.688 40.4629 656.561 40.6455 655.643 41.5724C654.702 42.5211 654.468 42.6877 654.075 42.6877C653.679 42.6877 653.491 42.5703 652.797 41.8877C652.142 41.2442 651.811 41.0277 651.482 41.0277C651.392 41.0277 650.906 41.2347 650.401 41.4878C649.896 41.7409 649.094 42.075 648.619 42.2304C648.144 42.3857 647.677 42.5667 647.581 42.6326C647.274 42.8425 647.191 43.1814 647.191 44.2271C647.191 45.1075 647.181 45.1838 647.026 45.4479C646.735 45.9457 646.509 46.0079 645 46.0079C643.491 46.0079 643.265 45.9457 642.974 45.4479C642.819 45.1838 642.809 45.1075 642.809 44.2271C642.809 43.1814 642.726 42.8424 642.419 42.6328C642.323 42.5669 641.856 42.3846 641.381 42.2277C640.906 42.0708 640.102 41.7366 639.593 41.485C639.085 41.2334 638.599 41.0277 638.512 41.0277C638.189 41.0277 637.854 41.2475 637.203 41.8877C636.51 42.5686 636.321 42.6877 635.929 42.6877C635.526 42.6877 635.292 42.523 634.362 41.5823C633.44 40.65 633.312 40.4662 633.312 40.0648C633.312 39.6801 633.434 39.4872 634.113 38.7973C634.753 38.1462 634.973 37.8115 634.973 37.4882C634.973 37.4018 634.764 36.9112 634.51 36.3979C634.256 35.8846 633.921 35.0803 633.767 34.6106C633.613 34.1408 633.434 33.6777 633.368 33.5815C633.158 33.2748 632.819 33.1921 631.773 33.1921C630.893 33.1921 630.816 33.1818 630.552 33.027C630.054 32.7353 629.992 32.5101 629.992 31.0008C629.992 29.4914 630.054 29.2662 630.552 28.9745C630.816 28.8197 630.893 28.8095 631.773 28.8095C632.819 28.8095 633.158 28.7267 633.368 28.4201C633.434 28.3238 633.615 27.8566 633.77 27.3818C633.926 26.907 634.26 26.1027 634.513 25.5944C634.766 25.0861 634.973 24.5996 634.973 24.5132C634.973 24.19 634.753 23.8553 634.113 23.2042C633.432 22.5116 633.312 22.3219 633.312 21.9303C633.312 21.5268 633.477 21.2933 634.418 20.3629C635.35 19.4408 635.534 19.3138 635.936 19.3138C636.32 19.3138 636.513 19.4356 637.203 20.1138C637.854 20.754 638.189 20.9739 638.512 20.9739C638.599 20.9739 639.089 20.7657 639.603 20.5112C640.116 20.2568 640.92 19.9227 641.39 19.7687C641.86 19.6147 642.323 19.4348 642.419 19.3689C642.726 19.1591 642.809 18.8201 642.809 17.7744C642.809 16.8953 642.819 16.8174 642.973 16.5551C643.08 16.3723 643.236 16.226 643.421 16.1343C643.681 16.0057 643.815 15.9938 644.996 15.9937C646.17 15.9936 646.312 16.0061 646.574 16.1328ZM643.506 23.7611C640.74 24.3597 638.581 26.4068 637.844 29.1278C637.685 29.7147 637.669 29.8821 637.669 31.0008C637.669 32.1194 637.685 32.2869 637.844 32.8737C638.539 35.4421 640.558 37.4612 643.127 38.1568C643.714 38.3157 643.881 38.3313 645 38.3313C646.119 38.3313 646.286 38.3157 646.873 38.1568C649.444 37.4607 651.46 35.4441 652.156 32.8737C652.315 32.2869 652.331 32.1194 652.331 31.0008C652.331 29.8821 652.315 29.7147 652.156 29.1278C651.46 26.5572 649.429 24.5231 646.891 23.8537C645.972 23.6114 644.397 23.5683 643.506 23.7611ZM646.244 25.754C648.7 26.3428 650.378 28.4725 650.378 31.0008C650.378 34.0145 648.014 36.3785 645 36.3785C643.515 36.3785 642.241 35.8542 641.188 34.8095C639.39 33.0265 639.092 30.1786 640.483 28.0565C641.247 26.8897 642.502 26.0163 643.833 25.724C644.463 25.5856 645.6 25.5998 646.244 25.754Z" fill="#4B267E"/>
<path d="M1077.37 73.6C1078.82 73.6 1080.03 74.084 1081 75.052C1081.98 76.02 1082.47 77.2227 1082.47 78.66C1082.47 80.0827 1081.98 81.2853 1081 82.268C1080.03 83.236 1078.82 83.72 1077.37 83.72H1074.22V89H1071.69V73.6H1077.37ZM1077.37 81.344C1078.11 81.344 1078.73 81.0947 1079.21 80.596C1079.7 80.0827 1079.94 79.4373 1079.94 78.66C1079.94 77.8827 1079.7 77.2447 1079.21 76.746C1078.73 76.2327 1078.11 75.976 1077.37 75.976H1074.22V81.344H1077.37ZM1092.45 78H1094.83V89H1092.45V87.416C1091.56 88.6627 1090.27 89.286 1088.6 89.286C1087.09 89.286 1085.8 88.7287 1084.73 87.614C1083.66 86.4847 1083.12 85.1133 1083.12 83.5C1083.12 81.872 1083.66 80.5007 1084.73 79.386C1085.8 78.2713 1087.09 77.714 1088.6 77.714C1090.27 77.714 1091.56 78.33 1092.45 79.562V78ZM1086.49 86.03C1087.15 86.69 1087.98 87.02 1088.97 87.02C1089.97 87.02 1090.8 86.69 1091.46 86.03C1092.12 85.3553 1092.45 84.512 1092.45 83.5C1092.45 82.488 1092.12 81.652 1091.46 80.992C1090.8 80.3173 1089.97 79.98 1088.97 79.98C1087.98 79.98 1087.15 80.3173 1086.49 80.992C1085.83 81.652 1085.5 82.488 1085.5 83.5C1085.5 84.512 1085.83 85.3553 1086.49 86.03ZM1102.7 89.286C1101.01 89.286 1099.63 88.7433 1098.56 87.658C1097.51 86.558 1096.98 85.1573 1096.98 83.456C1096.98 81.5933 1097.26 80.156 1097.82 79.144C1098.37 78.1173 1099.5 77.186 1101.2 76.35C1101.48 76.218 1101.89 76.0273 1102.44 75.778C1102.99 75.5287 1103.37 75.3527 1103.58 75.25C1103.79 75.1327 1104.04 74.9713 1104.35 74.766C1104.66 74.546 1104.89 74.3187 1105.03 74.084C1105.18 73.8347 1105.3 73.5413 1105.38 73.204L1107.32 74.326C1107.26 74.6487 1107.17 74.9493 1107.03 75.228C1106.9 75.492 1106.71 75.7413 1106.46 75.976C1106.21 76.2107 1105.99 76.4013 1105.8 76.548C1105.63 76.6947 1105.33 76.8707 1104.9 77.076C1104.47 77.2813 1104.16 77.428 1103.95 77.516C1103.76 77.604 1103.4 77.758 1102.85 77.978C1101.89 78.3593 1101.17 78.7553 1100.72 79.166C1100.28 79.562 1099.97 80.0607 1099.8 80.662C1100.68 79.6647 1101.87 79.166 1103.38 79.166C1104.67 79.166 1105.79 79.628 1106.75 80.552C1107.72 81.476 1108.2 82.6713 1108.2 84.138C1108.2 85.634 1107.69 86.866 1106.66 87.834C1105.65 88.802 1104.33 89.286 1102.7 89.286ZM1102.68 87.064C1103.6 87.064 1104.36 86.7927 1104.94 86.25C1105.53 85.6927 1105.82 84.9887 1105.82 84.138C1105.82 83.2727 1105.53 82.5613 1104.94 82.004C1104.37 81.4467 1103.62 81.168 1102.7 81.168C1101.88 81.168 1101.14 81.432 1100.48 81.96C1099.82 82.4733 1099.49 83.1627 1099.49 84.028C1099.49 84.908 1099.8 85.634 1100.41 86.206C1101.03 86.778 1101.78 87.064 1102.68 87.064ZM1115.27 89.286C1113.66 89.286 1112.29 88.7287 1111.16 87.614C1110.03 86.4993 1109.46 85.128 1109.46 83.5C1109.46 81.872 1110.03 80.5007 1111.16 79.386C1112.29 78.2713 1113.66 77.714 1115.27 77.714C1116.9 77.714 1118.27 78.2713 1119.38 79.386C1120.51 80.5007 1121.08 81.872 1121.08 83.5C1121.08 85.128 1120.51 86.4993 1119.38 87.614C1118.27 88.7287 1116.9 89.286 1115.27 89.286ZM1112.83 85.986C1113.49 86.646 1114.3 86.976 1115.27 86.976C1116.24 86.976 1117.05 86.646 1117.71 85.986C1118.37 85.326 1118.7 84.4973 1118.7 83.5C1118.7 82.5027 1118.37 81.674 1117.71 81.014C1117.05 80.354 1116.24 80.024 1115.27 80.024C1114.3 80.024 1113.49 80.354 1112.83 81.014C1112.17 81.674 1111.84 82.5027 1111.84 83.5C1111.84 84.4973 1112.17 85.326 1112.83 85.986ZM1131.2 78V80.288H1127.62V89H1125.24V80.288H1121.63V78H1131.2ZM1141.09 78H1143.47V89H1141.09V87.416C1140.2 88.6627 1138.91 89.286 1137.24 89.286C1135.73 89.286 1134.44 88.7287 1133.37 87.614C1132.3 86.4847 1131.76 85.1133 1131.76 83.5C1131.76 81.872 1132.3 80.5007 1133.37 79.386C1134.44 78.2713 1135.73 77.714 1137.24 77.714C1138.91 77.714 1140.2 78.33 1141.09 79.562V78ZM1135.13 86.03C1135.79 86.69 1136.62 87.02 1137.62 87.02C1138.61 87.02 1139.44 86.69 1140.1 86.03C1140.76 85.3553 1141.09 84.512 1141.09 83.5C1141.09 82.488 1140.76 81.652 1140.1 80.992C1139.44 80.3173 1138.61 79.98 1137.62 79.98C1136.62 79.98 1135.79 80.3173 1135.13 80.992C1134.47 81.652 1134.14 82.488 1134.14 83.5C1134.14 84.512 1134.47 85.3553 1135.13 86.03Z" fill="black"/>
<rect x="998" y="49" width="62" height="62" rx="6" fill="#E0D8FF"/>
<g clip-path="url(#clip1_3_236)">
<path d="M1034.11 96.127C1031.98 98.5046 1030.64 98.5526 1028.17 96.6314C1026.93 96.8955 1025.87 97.3759 1024.86 97.3038C1023.6 97.2318 1022.78 96.3191 1022.31 95.1183C1022.19 94.7821 1021.79 94.3739 1021.47 94.3258C1020.28 94.1577 1019.57 93.5093 1018.95 92.5967C1018.72 92.2604 1018.28 91.9482 1017.88 91.8762C1016.3 91.588 1015.26 90.6274 1014.97 89.0423C1014.89 88.7301 1014.79 88.3218 1014.55 88.1297C1011.95 86.2564 1011.75 85.0797 1013.85 82.4379C1011.83 80.5166 1009.77 78.5713 1007.72 76.626C1006.98 75.9296 1006.26 75.2091 1005.54 74.4886C1005 73.9602 1004.9 73.3839 1005.49 72.8315C1008.61 69.8295 1011.75 66.8275 1014.89 63.8255C1015.46 63.2971 1016.05 63.3452 1016.62 63.8975C1017.64 64.9062 1018.6 65.9389 1019.69 66.8515C1020.11 67.2117 1020.83 67.4519 1021.37 67.4039C1025.82 67.0196 1030.17 67.3799 1034.25 69.2531C1034.9 69.5653 1035.22 69.3252 1035.62 68.9409C1037.62 66.9236 1039.62 64.9062 1041.62 62.9129C1042.86 61.6881 1043.03 61.6881 1044.27 62.8889C1046.89 65.4346 1049.51 67.9803 1052.13 70.526C1053.35 71.7027 1053.35 71.9669 1052.13 73.1437C1048.85 76.3618 1045.53 79.58 1042.12 82.8942C1042.86 83.6387 1043.55 84.3352 1044.25 85.0556C1045.95 86.8088 1045.85 88.4899 1044 90.123C1043.73 90.3632 1043.58 90.8435 1043.6 91.2037C1043.73 93.4132 1042.76 94.542 1040.49 94.8302C1040.24 94.8542 1039.92 94.9502 1039.77 95.1424C1037.77 97.64 1036.73 97.8322 1034.11 96.127ZM1015.96 65.6747C1013.06 68.5326 1010.37 71.1984 1007.79 73.7681C1010.22 76.1457 1012.72 78.6193 1015.26 81.117C1015.39 81.045 1015.51 80.9489 1015.63 80.8528C1017.96 78.8595 1019.62 79.0757 1021.3 81.5733C1021.45 81.8135 1021.84 81.9816 1022.16 82.0296C1023.87 82.2938 1024.88 83.2544 1025.15 84.9115C1025.2 85.2238 1025.38 85.632 1025.62 85.7521C1027.13 86.5206 1027.87 87.6974 1027.7 89.4025C1028.59 89.7628 1029.41 90.099 1030.25 90.4112C1030.72 90.5793 1031.31 90.5793 1031.66 90.8915C1033.02 92.1163 1034.3 93.4132 1035.59 94.7101C1036.21 95.3345 1036.9 95.6467 1037.62 94.9502C1038.31 94.2778 1037.91 93.6294 1037.35 93.077C1036.31 92.0443 1035.27 91.0116 1034.23 90.0029C1033.76 89.5226 1033.39 88.9222 1034.03 88.4899C1034.38 88.2738 1035.24 88.4179 1035.62 88.7061C1036.98 89.8588 1038.19 91.1797 1039.52 92.3565C1039.87 92.6687 1040.56 92.8849 1041.01 92.7888C1041.87 92.5967 1041.97 91.4919 1041.23 90.7234C1040.26 89.7388 1039.18 88.8502 1038.29 87.8175C1037.99 87.4572 1037.79 86.6407 1038.01 86.3045C1038.41 85.6801 1039.05 85.8962 1039.57 86.4005C1040.12 86.9529 1040.71 87.4572 1041.25 87.9856C1041.82 88.562 1042.49 88.8982 1043.18 88.2738C1043.87 87.6494 1043.58 86.9529 1043.01 86.3765C1039.18 82.654 1035.32 78.9316 1031.49 75.1851C1031.02 74.7288 1030.64 74.7288 1030.1 75.041C1028.84 75.7374 1027.55 76.3618 1026.27 77.0103C1024.29 77.9949 1022.36 77.5386 1021.35 75.8335C1020.33 74.1284 1020.93 72.3272 1022.85 71.1264C1023.77 70.574 1024.66 69.9736 1025.55 69.3972C1025.5 69.2771 1025.45 69.133 1025.4 69.0129C1023.94 69.157 1022.48 69.2531 1021.05 69.4692C1020.26 69.5893 1019.64 69.4933 1019.07 68.8688C1018.01 67.7641 1016.94 66.7074 1015.96 65.6747ZM1040.49 81.3812C1043.92 78.091 1047.26 74.9209 1050.45 71.8468C1047.98 69.4212 1045.48 66.9476 1042.93 64.4499C1042.74 64.618 1042.51 64.7861 1042.32 64.9783C1040.31 66.9716 1038.26 68.9649 1036.31 71.0063C1035.54 71.7988 1034.87 71.8949 1033.96 71.2945C1033.24 70.8382 1032.42 70.526 1031.63 70.2137C1029.88 69.5653 1028.22 69.5413 1026.69 70.8382C1025.8 71.5827 1024.76 72.2071 1023.74 72.8075C1022.85 73.3358 1022.53 74.0323 1022.98 74.9209C1023.47 75.8575 1024.34 75.8335 1025.2 75.4012C1026.71 74.6567 1028.3 74.0323 1029.66 73.0957C1030.84 72.3031 1031.51 72.5913 1032.38 73.4559C1035.07 76.1457 1037.84 78.8115 1040.49 81.3812ZM1023.37 85.1037C1023.03 84.7194 1022.78 84.2151 1022.41 84.071C1022.04 83.9509 1021.4 84.071 1021.1 84.3352C1019.84 85.4639 1018.65 86.6887 1017.41 87.8895C1016.82 88.4659 1016.72 89.0903 1017.34 89.6667C1017.98 90.2431 1018.6 90.051 1019.17 89.4746C1020.33 88.3458 1021.49 87.2171 1022.66 86.0643C1022.9 85.8242 1023.08 85.5119 1023.37 85.1037ZM1025.72 88.4419C1025.55 88.2498 1025.33 87.8175 1024.98 87.6494C1024.68 87.5053 1024.09 87.5533 1023.87 87.7694C1022.81 88.7061 1021.79 89.6667 1020.85 90.7234C1020.26 91.3959 1020.85 92.3805 1021.77 92.4286C1022.56 92.4766 1025.77 89.4266 1025.72 88.4419ZM1019.52 82.4139C1019.34 82.2218 1019.12 81.7174 1018.77 81.6213C1018.38 81.5013 1017.76 81.5973 1017.44 81.8375C1016.47 82.63 1015.58 83.5186 1014.74 84.4552C1014.5 84.7194 1014.4 85.3198 1014.52 85.632C1014.67 85.9682 1015.14 86.2805 1015.53 86.3765C1016.18 86.5446 1019.54 83.3025 1019.52 82.4139ZM1028.59 92.4045C1028.3 92.0923 1028.07 91.612 1027.73 91.5159C1027.33 91.3959 1026.71 91.4919 1026.39 91.7321C1025.72 92.2364 1025.06 92.8128 1024.59 93.5093C1024.34 93.8935 1024.31 94.7341 1024.59 95.0463C1024.83 95.3345 1025.77 95.3825 1026.14 95.1424C1026.91 94.638 1027.53 93.9176 1028.17 93.2451C1028.34 93.053 1028.42 92.7648 1028.59 92.4045ZM1030.74 92.5006C1030.3 93.3171 1030 93.8695 1029.73 94.4459C1029.63 94.638 1029.46 94.9983 1029.53 95.0703C1029.93 95.4306 1030.37 95.9109 1030.87 95.9829C1031.26 96.031 1031.93 95.6707 1032.13 95.3105C1032.33 94.9743 1032.15 94.3258 1031.93 93.9175C1031.66 93.4132 1031.16 93.0049 1030.74 92.5006Z" fill="#4B267E"/>
</g>
<path d="M165.29 343.326C164.03 344.586 162.488 345.216 160.664 345.216C158.84 345.216 157.298 344.586 156.038 343.326C154.778 342.054 154.148 340.512 154.148 338.7C154.148 336.888 154.778 335.352 156.038 334.092C157.298 332.82 158.84 332.184 160.664 332.184C162.488 332.184 164.03 332.82 165.29 334.092C166.55 335.352 167.18 336.888 167.18 338.7C167.18 340.512 166.55 342.054 165.29 343.326ZM156.92 342.462C157.928 343.482 159.176 343.992 160.664 343.992C162.152 343.992 163.4 343.482 164.408 342.462C165.416 341.43 165.92 340.176 165.92 338.7C165.92 337.224 165.416 335.976 164.408 334.956C163.4 333.924 162.152 333.408 160.664 333.408C159.176 333.408 157.928 333.924 156.92 334.956C155.912 335.976 155.408 337.224 155.408 338.7C155.408 340.176 155.912 341.43 156.92 342.462ZM173.151 345.216C171.855 345.216 170.775 344.79 169.911 343.938C169.047 343.074 168.615 341.958 168.615 340.59C168.615 339.054 168.843 337.878 169.299 337.062C169.755 336.234 170.679 335.484 172.071 334.812C172.335 334.68 172.683 334.524 173.115 334.344C173.559 334.164 173.889 334.02 174.105 333.912C174.333 333.804 174.579 333.666 174.843 333.498C175.107 333.318 175.305 333.12 175.437 332.904C175.569 332.688 175.653 332.43 175.689 332.13L176.625 332.67C176.577 332.958 176.481 333.228 176.337 333.48C176.193 333.732 176.043 333.936 175.887 334.092C175.743 334.248 175.509 334.422 175.185 334.614C174.873 334.794 174.627 334.926 174.447 335.01C174.279 335.082 173.979 335.208 173.547 335.388C173.127 335.568 172.845 335.688 172.701 335.748C171.861 336.108 171.243 336.486 170.847 336.882C170.451 337.266 170.169 337.77 170.001 338.394C170.409 337.854 170.925 337.458 171.549 337.206C172.185 336.942 172.803 336.81 173.403 336.81C174.603 336.81 175.593 337.206 176.373 337.998C177.165 338.778 177.561 339.78 177.561 341.004C177.561 342.216 177.141 343.224 176.301 344.028C175.473 344.82 174.423 345.216 173.151 345.216ZM173.151 344.028C174.087 344.028 174.855 343.746 175.455 343.182C176.067 342.606 176.373 341.88 176.373 341.004C176.373 340.116 176.085 339.39 175.509 338.826C174.945 338.25 174.189 337.962 173.241 337.962C172.389 337.962 171.615 338.232 170.919 338.772C170.223 339.3 169.875 340.008 169.875 340.896C169.875 341.808 170.187 342.558 170.811 343.146C171.447 343.734 172.227 344.028 173.151 344.028ZM185.496 336H186.756L182.904 345.828C182.556 346.716 182.058 347.412 181.41 347.916C180.774 348.432 180.06 348.66 179.268 348.6V347.484C180.348 347.604 181.17 346.98 181.734 345.612L181.968 345.054L177.936 336H179.196L182.58 343.542L185.496 336ZM194.024 336H195.212V345H194.024V341.58C193.328 341.94 192.47 342.12 191.45 342.12C190.274 342.12 189.374 341.85 188.75 341.31C188.138 340.758 187.832 339.948 187.832 338.88V336H189.02V338.88C189.02 339.636 189.218 340.182 189.614 340.518C190.01 340.842 190.61 341.004 191.414 341.004C192.35 341.004 193.22 340.83 194.024 340.482V336ZM201.895 335.784C203.227 335.784 204.301 336.258 205.117 337.206C205.945 338.142 206.359 339.252 206.359 340.536C206.359 340.668 206.347 340.854 206.323 341.094H198.421C198.541 342.006 198.925 342.732 199.573 343.272C200.233 343.8 201.043 344.064 202.003 344.064C202.687 344.064 203.275 343.926 203.767 343.65C204.271 343.362 204.649 342.99 204.901 342.534L205.945 343.146C205.549 343.782 205.009 344.286 204.325 344.658C203.641 345.03 202.861 345.216 201.985 345.216C200.569 345.216 199.417 344.772 198.529 343.884C197.641 342.996 197.197 341.868 197.197 340.5C197.197 339.156 197.635 338.034 198.511 337.134C199.387 336.234 200.515 335.784 201.895 335.784ZM201.895 336.936C200.959 336.936 200.173 337.218 199.537 337.782C198.913 338.334 198.541 339.054 198.421 339.942H205.135C205.015 338.994 204.649 338.256 204.037 337.728C203.425 337.2 202.711 336.936 201.895 336.936ZM214.62 336H215.808V345H214.62V341.076H209.436V345H208.248V336H209.436V339.924H214.62V336ZM224.873 336H225.881V345H224.693V338.07L219.329 345H218.321V336H219.509V342.93L224.873 336ZM232.551 335.784C233.883 335.784 234.957 336.258 235.773 337.206C236.601 338.142 237.015 339.252 237.015 340.536C237.015 340.668 237.003 340.854 236.979 341.094H229.077C229.197 342.006 229.581 342.732 230.229 343.272C230.889 343.8 231.699 344.064 232.659 344.064C233.343 344.064 233.931 343.926 234.423 343.65C234.927 343.362 235.305 342.99 235.557 342.534L236.601 343.146C236.205 343.782 235.665 344.286 234.981 344.658C234.297 345.03 233.517 345.216 232.641 345.216C231.225 345.216 230.073 344.772 229.185 343.884C228.297 342.996 227.853 341.868 227.853 340.5C227.853 339.156 228.291 338.034 229.167 337.134C230.043 336.234 231.171 335.784 232.551 335.784ZM232.551 336.936C231.615 336.936 230.829 337.218 230.193 337.782C229.569 338.334 229.197 339.054 229.077 339.942H235.791C235.671 338.994 235.305 338.256 234.693 337.728C234.081 337.2 233.367 336.936 232.551 336.936ZM246.915 336.9C248.151 336.9 249.165 337.29 249.957 338.07C250.749 338.838 251.145 339.834 251.145 341.058C251.145 342.282 250.749 343.284 249.957 344.064C249.165 344.832 248.151 345.216 246.915 345.216C245.679 345.216 244.665 344.832 243.873 344.064C243.081 343.284 242.685 342.282 242.685 341.058C242.685 340.11 242.943 339.27 243.459 338.538L247.581 332.4H249.003L245.907 337.008C246.231 336.936 246.567 336.9 246.915 336.9ZM244.755 343.182C245.307 343.722 246.027 343.992 246.915 343.992C247.803 343.992 248.517 343.722 249.057 343.182C249.609 342.642 249.885 341.934 249.885 341.058C249.885 340.182 249.609 339.474 249.057 338.934C248.517 338.394 247.803 338.124 246.915 338.124C246.027 338.124 245.307 338.394 244.755 338.934C244.215 339.474 243.945 340.182 243.945 341.058C243.945 341.934 244.215 342.642 244.755 343.182ZM266.269 336V345H265.081V337.818L261.931 342.93H261.787L258.637 337.818V345H257.449V336H258.817L261.859 340.932L264.901 336H266.269ZM272.945 335.784C274.277 335.784 275.351 336.258 276.167 337.206C276.995 338.142 277.409 339.252 277.409 340.536C277.409 340.668 277.397 340.854 277.373 341.094H269.471C269.591 342.006 269.975 342.732 270.623 343.272C271.283 343.8 272.093 344.064 273.053 344.064C273.737 344.064 274.325 343.926 274.817 343.65C275.321 343.362 275.699 342.99 275.951 342.534L276.995 343.146C276.599 343.782 276.059 344.286 275.375 344.658C274.691 345.03 273.911 345.216 273.035 345.216C271.619 345.216 270.467 344.772 269.579 343.884C268.691 342.996 268.247 341.868 268.247 340.5C268.247 339.156 268.685 338.034 269.561 337.134C270.437 336.234 271.565 335.784 272.945 335.784ZM272.945 336.936C272.009 336.936 271.223 337.218 270.587 337.782C269.963 338.334 269.591 339.054 269.471 339.942H276.185C276.065 338.994 275.699 338.256 275.087 337.728C274.475 337.2 273.761 336.936 272.945 336.936ZM283.493 345.216C282.137 345.216 281.009 344.766 280.109 343.866C279.209 342.954 278.759 341.832 278.759 340.5C278.759 339.168 279.209 338.052 280.109 337.152C281.009 336.24 282.137 335.784 283.493 335.784C284.381 335.784 285.179 336 285.887 336.432C286.595 336.852 287.111 337.422 287.435 338.142L286.463 338.7C286.223 338.16 285.833 337.734 285.293 337.422C284.765 337.098 284.165 336.936 283.493 336.936C282.497 336.936 281.657 337.284 280.973 337.98C280.289 338.664 279.947 339.504 279.947 340.5C279.947 341.496 280.289 342.342 280.973 343.038C281.657 343.722 282.497 344.064 283.493 344.064C284.165 344.064 284.765 343.908 285.293 343.596C285.821 343.272 286.235 342.84 286.535 342.3L287.525 342.876C287.153 343.596 286.607 344.166 285.887 344.586C285.167 345.006 284.369 345.216 283.493 345.216ZM295.535 336V345H294.347V341.544H292.799L290.027 345H288.515L291.359 341.508C290.639 341.4 290.045 341.1 289.577 340.608C289.109 340.116 288.875 339.51 288.875 338.79C288.875 337.974 289.163 337.308 289.739 336.792C290.327 336.264 291.041 336 291.881 336H295.535ZM291.881 340.428H294.347V337.152H291.881C291.377 337.152 290.945 337.302 290.585 337.602C290.237 337.902 290.063 338.298 290.063 338.79C290.063 339.282 290.237 339.678 290.585 339.978C290.945 340.278 291.377 340.428 291.881 340.428ZM305.435 343.848H306.875V347.412H305.687V345H298.055V336H299.243V343.848H304.247V336H305.435V343.848ZM312.479 335.784C313.811 335.784 314.885 336.258 315.701 337.206C316.529 338.142 316.943 339.252 316.943 340.536C316.943 340.668 316.931 340.854 316.907 341.094H309.005C309.125 342.006 309.509 342.732 310.157 343.272C310.817 343.8 311.627 344.064 312.587 344.064C313.271 344.064 313.859 343.926 314.351 343.65C314.855 343.362 315.233 342.99 315.485 342.534L316.529 343.146C316.133 343.782 315.593 344.286 314.909 344.658C314.225 345.03 313.445 345.216 312.569 345.216C311.153 345.216 310.001 344.772 309.113 343.884C308.225 342.996 307.781 341.868 307.781 340.5C307.781 339.156 308.219 338.034 309.095 337.134C309.971 336.234 311.099 335.784 312.479 335.784ZM312.479 336.936C311.543 336.936 310.757 337.218 310.121 337.782C309.497 338.334 309.125 339.054 309.005 339.942H315.719C315.599 338.994 315.233 338.256 314.621 337.728C314.009 337.2 313.295 336.936 312.479 336.936ZM324.556 340.374C325.54 340.734 326.032 341.436 326.032 342.48C326.032 343.212 325.786 343.818 325.294 344.298C324.814 344.766 324.118 345 323.206 345H318.832V336H322.846C323.722 336 324.4 336.228 324.88 336.684C325.36 337.128 325.6 337.704 325.6 338.412C325.6 339.312 325.252 339.966 324.556 340.374ZM322.846 337.152H320.02V339.888H322.846C323.89 339.888 324.412 339.42 324.412 338.484C324.412 338.064 324.274 337.74 323.998 337.512C323.734 337.272 323.35 337.152 322.846 337.152ZM323.206 343.848C323.734 343.848 324.136 343.722 324.412 343.47C324.7 343.218 324.844 342.864 324.844 342.408C324.844 341.988 324.7 341.658 324.412 341.418C324.136 341.166 323.734 341.04 323.206 341.04H320.02V343.848H323.206Z" fill="black"/>
<path d="M670.774 332.4V345H669.1V333.984H663.304V345H661.63V332.4H670.774ZM678.284 335.766C679.544 335.766 680.618 336.228 681.506 337.152C682.394 338.064 682.838 339.18 682.838 340.5C682.838 341.82 682.394 342.942 681.506 343.866C680.618 344.778 679.544 345.234 678.284 345.234C676.796 345.234 675.662 344.64 674.882 343.452V348.6H673.316V336H674.882V337.548C675.662 336.36 676.796 335.766 678.284 335.766ZM678.086 343.722C678.986 343.722 679.742 343.416 680.354 342.804C680.966 342.18 681.272 341.412 681.272 340.5C681.272 339.588 680.966 338.826 680.354 338.214C679.742 337.59 678.986 337.278 678.086 337.278C677.174 337.278 676.412 337.59 675.8 338.214C675.188 338.826 674.882 339.588 674.882 340.5C674.882 341.412 675.188 342.18 675.8 342.804C676.412 343.416 677.174 343.722 678.086 343.722ZM692.159 336H693.725V345H692.159V343.452C691.379 344.64 690.245 345.234 688.757 345.234C687.497 345.234 686.423 344.778 685.535 343.866C684.647 342.942 684.203 341.82 684.203 340.5C684.203 339.18 684.647 338.064 685.535 337.152C686.423 336.228 687.497 335.766 688.757 335.766C690.245 335.766 691.379 336.36 692.159 337.548V336ZM688.955 343.722C689.867 343.722 690.629 343.416 691.241 342.804C691.853 342.18 692.159 341.412 692.159 340.5C692.159 339.588 691.853 338.826 691.241 338.214C690.629 337.59 689.867 337.278 688.955 337.278C688.055 337.278 687.299 337.59 686.687 338.214C686.075 338.826 685.769 339.588 685.769 340.5C685.769 341.412 686.075 342.18 686.687 342.804C687.299 343.416 688.055 343.722 688.955 343.722ZM703.711 345H701.767L697.663 340.734V345H696.097V336H697.663V339.978L701.551 336H703.567L699.265 340.356L703.711 345ZM711.863 336V337.512H708.803V345H707.237V337.512H704.159V336H711.863ZM719.77 336H721.03V345H719.482V338.682L714.496 345H713.236V336H714.784V342.318L719.77 336ZM731.028 345H729.084L724.98 340.734V345H723.414V336H724.98V339.978L728.868 336H730.884L726.582 340.356L731.028 345ZM739.11 336H740.676V345H739.11V343.452C738.33 344.64 737.196 345.234 735.708 345.234C734.448 345.234 733.374 344.778 732.486 343.866C731.598 342.942 731.154 341.82 731.154 340.5C731.154 339.18 731.598 338.064 732.486 337.152C733.374 336.228 734.448 335.766 735.708 335.766C737.196 335.766 738.33 336.36 739.11 337.548V336ZM735.906 343.722C736.818 343.722 737.58 343.416 738.192 342.804C738.804 342.18 739.11 341.412 739.11 340.5C739.11 339.588 738.804 338.826 738.192 338.214C737.58 337.59 736.818 337.278 735.906 337.278C735.006 337.278 734.25 337.59 733.638 338.214C733.026 338.826 732.72 339.588 732.72 340.5C732.72 341.412 733.026 342.18 733.638 342.804C734.25 343.416 735.006 343.722 735.906 343.722ZM747.008 345V343.632L751.454 339.096C752.642 337.908 753.236 336.888 753.236 336.036C753.236 335.328 753.02 334.776 752.588 334.38C752.156 333.984 751.628 333.786 751.004 333.786C749.816 333.786 748.952 334.35 748.412 335.478L747.008 334.65C747.404 333.834 747.95 333.216 748.646 332.796C749.354 332.376 750.134 332.166 750.986 332.166C752.042 332.166 752.96 332.514 753.74 333.21C754.52 333.906 754.91 334.842 754.91 336.018C754.91 337.29 754.16 338.676 752.66 340.176L749.438 343.38H755.144V345H747.008ZM770.541 336V345H769.011V338.466L766.149 343.074H765.951L763.089 338.466V345H761.541V336H763.215L766.041 340.554L768.867 336H770.541ZM774.029 341.22C774.185 342.024 774.551 342.648 775.127 343.092C775.715 343.536 776.435 343.758 777.287 343.758C778.475 343.758 779.339 343.32 779.879 342.444L781.211 343.2C780.335 344.556 779.015 345.234 777.251 345.234C775.823 345.234 774.659 344.79 773.759 343.902C772.871 343.002 772.427 341.868 772.427 340.5C772.427 339.144 772.865 338.016 773.741 337.116C774.617 336.216 775.751 335.766 777.143 335.766C778.463 335.766 779.537 336.234 780.365 337.17C781.205 338.094 781.625 339.21 781.625 340.518C781.625 340.746 781.607 340.98 781.571 341.22H774.029ZM777.143 337.242C776.303 337.242 775.607 337.482 775.055 337.962C774.503 338.43 774.161 339.06 774.029 339.852H780.041C779.909 339 779.573 338.352 779.033 337.908C778.493 337.464 777.863 337.242 777.143 337.242ZM787.638 345.234C786.282 345.234 785.154 344.784 784.254 343.884C783.354 342.972 782.904 341.844 782.904 340.5C782.904 339.156 783.354 338.034 784.254 337.134C785.154 336.222 786.282 335.766 787.638 335.766C788.526 335.766 789.324 335.982 790.032 336.414C790.74 336.834 791.268 337.404 791.616 338.124L790.302 338.88C790.074 338.4 789.72 338.016 789.24 337.728C788.772 337.44 788.238 337.296 787.638 337.296C786.738 337.296 785.982 337.602 785.37 338.214C784.77 338.826 784.47 339.588 784.47 340.5C784.47 341.4 784.77 342.156 785.37 342.768C785.982 343.38 786.738 343.686 787.638 343.686C788.238 343.686 788.778 343.548 789.258 343.272C789.738 342.984 790.104 342.6 790.356 342.12L791.688 342.894C791.304 343.602 790.752 344.172 790.032 344.604C789.312 345.024 788.514 345.234 787.638 345.234ZM799.79 336V345H798.242V341.76H796.928L794.408 345H792.5L795.128 341.67C794.456 341.502 793.91 341.166 793.49 340.662C793.07 340.158 792.86 339.57 792.86 338.898C792.86 338.07 793.154 337.38 793.742 336.828C794.33 336.276 795.068 336 795.956 336H799.79ZM796.01 340.356H798.242V337.458H796.01C795.566 337.458 795.188 337.59 794.876 337.854C794.564 338.118 794.408 338.472 794.408 338.916C794.408 339.348 794.564 339.696 794.876 339.96C795.188 340.224 795.566 340.356 796.01 340.356ZM809.724 343.506H811.2V347.412H809.652V345H802.164V336H803.73V343.506H808.158V336H809.724V343.506ZM819.969 336H821.535V345H819.969V343.452C819.189 344.64 818.055 345.234 816.567 345.234C815.307 345.234 814.233 344.778 813.345 343.866C812.457 342.942 812.013 341.82 812.013 340.5C812.013 339.18 812.457 338.064 813.345 337.152C814.233 336.228 815.307 335.766 816.567 335.766C818.055 335.766 819.189 336.36 819.969 337.548V336ZM816.765 343.722C817.677 343.722 818.439 343.416 819.051 342.804C819.663 342.18 819.969 341.412 819.969 340.5C819.969 339.588 819.663 338.826 819.051 338.214C818.439 337.59 817.677 337.278 816.765 337.278C815.865 337.278 815.109 337.59 814.497 338.214C813.885 338.826 813.579 339.588 813.579 340.5C813.579 341.412 813.885 342.18 814.497 342.804C815.109 343.416 815.865 343.722 816.765 343.722Z" fill="black"/>
</g>
<defs>
<clipPath id="clip0_3_236">
<rect width="1147" height="350" fill="white"/>
</clipPath>
<clipPath id="clip1_3_236">
<rect width="48" height="36" fill="white" transform="translate(1005.08 62)"/>
</clipPath>
</defs>
</svg>
