<svg width="388" height="199" viewBox="0 0 388 199" fill="none" xmlns="http://www.w3.org/2000/svg">
<g filter="url(#filter0_d_202_5)">
<path d="M24 26C24 21.5817 27.5817 18 32 18H40V173H32C27.5817 173 24 169.418 24 165V26Z" fill="#46DD9E"/>
</g>
<g filter="url(#filter1_d_202_5)">
<path fill-rule="evenodd" clip-rule="evenodd" d="M18.696 6C14.2778 6 10.696 9.58172 10.696 14V59.822C10.696 63.4612 13.1523 66.6419 16.6733 67.562L39.9522 73.6455V177C39.9522 181.418 43.534 185 47.9522 185H369.912C374.33 185 377.912 181.418 377.912 177V14C377.912 9.58172 374.33 6 369.912 6H340.655H47.9522H18.696Z" fill="white"/>
</g>
<defs>
<filter id="filter0_d_202_5" x="18" y="12" width="28" height="167" filterUnits="userSpaceOnUse" color-interpolation-filters="sRGB">
<feFlood flood-opacity="0" result="BackgroundImageFix"/>
<feColorMatrix in="SourceAlpha" type="matrix" values="0 0 0 0 0 0 0 0 0 0 0 0 0 0 0 0 0 0 127 0" result="hardAlpha"/>
<feOffset/>
<feGaussianBlur stdDeviation="3"/>
<feColorMatrix type="matrix" values="0 0 0 0 0 0 0 0 0 0 0 0 0 0 0 0 0 0 0.12 0"/>
<feBlend mode="normal" in2="BackgroundImageFix" result="effect1_dropShadow_202_5"/>
<feBlend mode="normal" in="SourceGraphic" in2="effect1_dropShadow_202_5" result="shape"/>
</filter>
<filter id="filter1_d_202_5" x="0.696045" y="0" width="387.216" height="199" filterUnits="userSpaceOnUse" color-interpolation-filters="sRGB">
<feFlood flood-opacity="0" result="BackgroundImageFix"/>
<feColorMatrix in="SourceAlpha" type="matrix" values="0 0 0 0 0 0 0 0 0 0 0 0 0 0 0 0 0 0 127 0" result="hardAlpha"/>
<feOffset dy="4"/>
<feGaussianBlur stdDeviation="5"/>
<feComposite in2="hardAlpha" operator="out"/>
<feColorMatrix type="matrix" values="0 0 0 0 0 0 0 0 0 0 0 0 0 0 0 0 0 0 0.25 0"/>
<feBlend mode="normal" in2="BackgroundImageFix" result="effect1_dropShadow_202_5"/>
<feBlend mode="normal" in="SourceGraphic" in2="effect1_dropShadow_202_5" result="shape"/>
</filter>
</defs>
</svg>
