<svg width="388" height="199" viewBox="0 0 388 199" fill="none" xmlns="http://www.w3.org/2000/svg">
<g filter="url(#filter0_d_202_2)">
<path d="M23 26C23 21.5817 26.5817 18 31 18H39V173H31C26.5817 173 23 169.418 23 165V26Z" fill="#4B267E"/>
</g>
<g filter="url(#filter1_d_202_2)">
<path fill-rule="evenodd" clip-rule="evenodd" d="M18 6C13.5817 6 10 9.58172 10 14V59.822C10 63.4612 12.4563 66.6419 15.9773 67.562L39.2562 73.6455V177C39.2562 181.418 42.8379 185 47.2562 185H369.216C373.634 185 377.216 181.418 377.216 177V14C377.216 9.58172 373.634 6 369.216 6H339.959H47.2562H18Z" fill="white"/>
</g>
<defs>
<filter id="filter0_d_202_2" x="17" y="12" width="28" height="167" filterUnits="userSpaceOnUse" color-interpolation-filters="sRGB">
<feFlood flood-opacity="0" result="BackgroundImageFix"/>
<feColorMatrix in="SourceAlpha" type="matrix" values="0 0 0 0 0 0 0 0 0 0 0 0 0 0 0 0 0 0 127 0" result="hardAlpha"/>
<feOffset/>
<feGaussianBlur stdDeviation="3"/>
<feColorMatrix type="matrix" values="0 0 0 0 0 0 0 0 0 0 0 0 0 0 0 0 0 0 0.12 0"/>
<feBlend mode="normal" in2="BackgroundImageFix" result="effect1_dropShadow_202_2"/>
<feBlend mode="normal" in="SourceGraphic" in2="effect1_dropShadow_202_2" result="shape"/>
</filter>
<filter id="filter1_d_202_2" x="0" y="0" width="387.216" height="199" filterUnits="userSpaceOnUse" color-interpolation-filters="sRGB">
<feFlood flood-opacity="0" result="BackgroundImageFix"/>
<feColorMatrix in="SourceAlpha" type="matrix" values="0 0 0 0 0 0 0 0 0 0 0 0 0 0 0 0 0 0 127 0" result="hardAlpha"/>
<feOffset dy="4"/>
<feGaussianBlur stdDeviation="5"/>
<feComposite in2="hardAlpha" operator="out"/>
<feColorMatrix type="matrix" values="0 0 0 0 0 0 0 0 0 0 0 0 0 0 0 0 0 0 0.25 0"/>
<feBlend mode="normal" in2="BackgroundImageFix" result="effect1_dropShadow_202_2"/>
<feBlend mode="normal" in="SourceGraphic" in2="effect1_dropShadow_202_2" result="shape"/>
</filter>
</defs>
</svg>
